<svg width="229" height="39" viewBox="0 0 229 39" fill="none" xmlns="http://www.w3.org/2000/svg">
  <g clip-path="url(#clip0_375_52038)">
    <path d="M0 2.83008H5.06904C9.03772 2.83008 11.0221 5.33308 11.0221 10.3391C11.0221 12.2526 10.7642 13.6702 10.2486 14.5965C9.73293 15.5229 8.82133 16.2246 7.51378 16.6972C9.01009 17.3054 10.0368 18.0867 10.5893 19.0364C11.151 19.9768 11.4318 21.3897 11.4318 23.2751C11.4318 28.4542 9.2495 31.0415 4.88488 31.0415H0V2.83008ZM3.52669 15.2609C4.97696 15.2609 5.98524 14.9193 6.54694 14.2363C7.10863 13.5158 7.39408 12.2573 7.39408 10.4514C7.39408 7.40565 6.31673 5.88046 4.15744 5.88046H3.86739H3.70625C3.60956 5.88046 3.54971 5.88514 3.52669 5.89918V15.2609ZM3.52669 27.7946C5.05983 27.7946 6.12336 27.4577 6.70808 26.7887C7.29739 26.1197 7.58745 24.9079 7.58745 23.1535C7.58745 21.3523 7.28358 20.0891 6.67124 19.3686C6.07272 18.6387 5.023 18.2738 3.52209 18.2738V27.7946H3.52669Z" fill="white"/>
    <path d="M22.5226 24.6702H25.7224C25.4692 29.1195 23.6736 31.3417 20.3265 31.3417C19.332 31.3417 18.4756 31.1546 17.762 30.7757C17.0484 30.3967 16.4591 29.8119 15.9895 29.0212C15.5199 28.2305 15.1792 27.2247 14.9536 26.0036C14.7326 24.7872 14.6221 23.3368 14.6221 21.6526C14.6221 18.3168 15.0825 15.8419 15.9987 14.2325C16.9149 12.6231 18.3329 11.8184 20.2528 11.8184C23.9821 11.8184 25.8467 15.1588 25.8467 21.835V22.2748H17.9922C17.9922 26.3217 18.7841 28.3428 20.3679 28.3428C21.8044 28.3475 22.5226 27.1217 22.5226 24.6702ZM22.343 19.7578C22.2003 17.7741 21.9747 16.4688 21.6754 15.8465C21.3624 15.1541 20.8605 14.8032 20.1653 14.8032C19.4563 14.8032 18.9545 15.1495 18.6552 15.8465C18.3559 16.4688 18.1349 17.7741 17.9922 19.7578H22.343Z" fill="white"/>
    <path d="M39.908 12.1357V31.0509H36.4733V28.6181C35.9807 29.652 35.4881 30.3679 35 30.7562C34.5074 31.1445 33.8583 31.341 33.0572 31.341C31.5102 31.341 30.3776 30.5363 29.6594 28.9269C28.9411 27.3175 28.582 24.7958 28.582 21.3617C28.582 18.0821 28.9411 15.6727 29.6594 14.1334C30.3776 12.5942 31.5102 11.8223 33.0572 11.8223C34.4706 11.8223 35.6124 12.641 36.4733 14.2691V12.131H39.908V12.1357ZM32.1363 21.5114C32.1363 23.9957 32.2975 25.7315 32.6198 26.7186C32.9559 27.7058 33.5452 28.197 34.3831 28.197C35.152 28.197 35.7091 27.6871 36.0544 26.6625C36.4043 25.5677 36.5746 23.8788 36.5746 21.6003C36.5746 19.3079 36.3997 17.6143 36.0544 16.5195C35.7045 15.4949 35.1474 14.9849 34.3831 14.9849C33.5682 14.9849 32.9881 15.4715 32.6382 16.4446C32.3067 17.3476 32.1363 19.0365 32.1363 21.5114Z" fill="white"/>
    <path d="M44.1758 12.1367H47.6104V24.7827C47.6334 25.9523 47.8038 26.7851 48.1214 27.2857C48.4391 27.7863 48.9686 28.0343 49.7144 28.0343C50.4925 28.0343 51.0404 27.8144 51.3535 27.3746C51.6665 26.9114 51.8231 26.1067 51.8231 24.9605V23.4447V12.1367H55.2577V23.4493C55.2577 26.0927 55.0643 27.8612 54.6822 28.7501C53.8765 30.4811 52.2098 31.3466 49.6822 31.3466C47.6933 31.3466 46.2752 30.8367 45.4373 29.8121C44.5994 28.7782 44.1804 27.0518 44.1804 24.6424V12.1367H44.1758Z" fill="white"/>
    <path d="M59.9218 6.83594H63.3564V12.1367H65.2303V14.9157H63.3564V31.0519H59.9218V14.9157H58.0342V12.1367H59.9218V6.83594Z" fill="white"/>
    <path d="M66.2617 12.1367H70.1475L72.8823 25.3301L76.0821 12.1367H79.572L71.9615 38.7995H68.3473L71.2065 29.5361L66.2617 12.1367Z" fill="white"/>
    <path d="M92.932 2.83008H96.6889V24.4869C96.6889 26.6904 96.3712 28.2811 95.7359 29.2589C94.8013 30.6859 93.2773 31.397 91.1687 31.397C89.921 31.397 88.8621 31.1537 87.9873 30.6672V26.8682C89.0554 27.5139 89.8796 27.8367 90.4689 27.8367C92.1125 27.8367 92.932 26.6624 92.932 24.3091V23.1769V2.83008Z" fill="white"/>
    <path d="M112.131 21.7454C112.131 28.1409 110.184 31.341 106.284 31.341C102.389 31.341 100.441 28.0941 100.441 21.6003C100.441 15.0832 102.384 11.8223 106.27 11.8223C107.278 11.8223 108.149 12.0188 108.885 12.4071C109.622 12.7954 110.23 13.3989 110.708 14.2177C111.187 15.0364 111.546 16.0657 111.781 17.3055C112.011 18.55 112.131 20.0284 112.131 21.7454ZM108.568 21.6565C108.568 19.1722 108.406 17.4411 108.079 16.468C107.757 15.4809 107.182 14.9896 106.353 14.9896C105.538 14.9896 104.958 15.4762 104.608 16.4493C104.286 17.4224 104.125 19.1254 104.125 21.5489C104.125 23.9723 104.286 25.666 104.608 26.6297C104.958 27.6029 105.538 28.0894 106.353 28.0894C107.168 28.0894 107.739 27.6075 108.061 26.6438C108.402 25.7455 108.568 24.0799 108.568 21.6565Z" fill="white"/>
    <path d="M115.699 0H119.134V14.2741C119.373 13.8109 119.617 13.4226 119.87 13.1045C120.124 12.7863 120.368 12.5431 120.607 12.3746C121.086 12.0097 121.712 11.8273 122.476 11.8273C123.268 11.8273 123.95 12.0144 124.525 12.384C125.101 12.7536 125.57 13.3291 125.939 14.1104C126.302 14.8917 126.579 15.8835 126.758 17.0906C126.938 18.2976 127.03 19.7292 127.03 21.3854C127.03 24.8195 126.671 27.3412 125.952 28.9412C125.234 30.5413 124.106 31.346 122.573 31.346C121.758 31.346 121.104 31.1495 120.612 30.7612C120.119 30.3728 119.626 29.657 119.138 28.6231V31.0512H115.704V0H115.699ZM123.471 21.6942C123.471 19.1257 123.3 17.3806 122.969 16.4683C122.647 15.4812 122.062 14.9899 121.224 14.9899C120.432 14.9899 119.875 15.4905 119.553 16.487C119.231 17.4742 119.069 19.1819 119.069 21.6053C119.069 24.0194 119.231 25.7224 119.553 26.7236C119.875 27.7108 120.432 28.202 121.224 28.202C122.039 28.202 122.619 27.7155 122.969 26.7423C123.3 25.8347 123.471 24.1551 123.471 21.6942Z" fill="white"/>
    <path d="M138.793 2.83008H142.531V13.8713H148.015V2.83008H151.758V31.0508H148.015V17.0855H142.531V31.0508H138.793V2.83008Z" fill="white"/>
    <path d="M156.21 12.1367H159.645V24.7827C159.668 25.9523 159.838 26.7851 160.156 27.2857C160.473 27.7863 161.003 28.0343 161.749 28.0343C162.527 28.0343 163.075 27.8144 163.388 27.3746C163.701 26.9114 163.857 26.1067 163.857 24.9605V23.4447V12.1367H167.292V23.4493C167.292 26.0927 167.098 27.8612 166.716 28.7501C165.915 30.4811 164.249 31.3466 161.716 31.3466C159.727 31.3466 158.309 30.8367 157.471 29.8121C156.634 28.7782 156.215 27.0518 156.215 24.6424V12.1367H156.21Z" fill="white"/>
    <path d="M171.542 12.1369H174.977V14.3124C175.957 12.6562 177.228 11.8281 178.789 11.8281C180.299 11.8281 181.376 12.4317 182.025 13.6387C182.384 14.3218 182.564 15.6411 182.564 17.6061V31.0568H179.129L179.111 18.4108C179.111 17.1335 178.959 16.2259 178.66 15.6879C178.361 15.1499 177.845 14.8832 177.113 14.8832C176.717 14.8832 176.385 14.9534 176.114 15.0937C175.842 15.2341 175.626 15.4586 175.46 15.7721C175.29 16.0809 175.17 16.4879 175.092 16.9885C175.013 17.4891 174.977 18.102 174.977 18.8365V31.0615H171.542V12.1369Z" fill="white"/>
    <path d="M187.232 6.83594H190.667V12.1367H192.536V14.9157H190.667V31.0519H187.232V14.9157H185.345V12.1367H187.232V6.83594Z" fill="white"/>
    <path d="M196.988 4.09375C197.61 4.09375 198.153 4.32768 198.609 4.79085C199.065 5.25402 199.29 5.80608 199.29 6.45172C199.29 7.11138 199.06 7.66813 198.609 8.1313C198.153 8.59447 197.601 8.82372 196.956 8.82372C196.307 8.82372 195.759 8.58979 195.303 8.1313C194.861 7.68216 194.636 7.11606 194.636 6.433C194.636 5.8014 194.861 5.25402 195.317 4.79085C195.805 4.323 196.362 4.09375 196.988 4.09375ZM195.368 12.1361H198.821V31.0513H195.368V12.1361Z" fill="white"/>
    <path d="M203.057 12.1369H206.491V14.3124C207.472 12.6562 208.743 11.8281 210.303 11.8281C211.814 11.8281 212.891 12.4317 213.54 13.6387C213.899 14.3218 214.079 15.6411 214.079 17.6061V31.0568H210.644L210.626 18.4108C210.626 17.1335 210.474 16.2259 210.174 15.6879C209.875 15.1499 209.36 14.8832 208.628 14.8832C208.232 14.8832 207.9 14.9534 207.628 15.0937C207.357 15.2341 207.14 15.4586 206.975 15.7721C206.804 16.0809 206.685 16.4879 206.606 16.9885C206.528 17.4891 206.491 18.102 206.491 18.8365V31.0615H203.057V12.1369Z" fill="white"/>
    <path d="M225.547 12.1369H229V31.6556C229 33.9949 228.77 35.6136 228.314 36.5166C227.476 38.1728 225.791 39.0009 223.259 39.0009C221.592 39.0009 220.284 38.519 219.336 37.5552C218.378 36.5821 217.9 35.2721 217.9 33.6253L217.918 33.0405H221.247C221.247 35.0522 221.983 36.0581 223.457 36.0581C224.258 36.0581 224.806 35.8008 225.091 35.2908C225.39 34.8043 225.542 33.8358 225.542 32.3855V28.7503C224.81 30.4813 223.691 31.3468 222.177 31.3468C220.616 31.3468 219.47 30.5796 218.733 29.045C217.996 27.5105 217.628 25.1104 217.628 21.8448C217.628 18.3827 217.982 15.8329 218.691 14.1861C219.387 12.6141 220.542 11.8281 222.163 11.8281C222.932 11.8281 223.553 12.0153 224.032 12.3942C224.511 12.7732 225.013 13.4422 225.542 14.406V12.1369H225.547ZM225.602 21.7653C225.602 17.2458 224.833 14.9861 223.3 14.9861C222.568 14.9861 222.034 15.4961 221.698 16.5113C221.362 17.5265 221.196 19.1593 221.196 21.4003C221.196 23.777 221.371 25.5221 221.716 26.6449C222.075 27.6789 222.674 28.1982 223.516 28.1982C224.308 28.1982 224.852 27.735 225.151 26.8087C225.45 25.9478 225.602 24.2636 225.602 21.7653Z" fill="white"/>
  </g>
  <defs>
    <clipPath id="clip0_375_52038">
      <rect width="229" height="39" fill="white"/>
    </clipPath>
  </defs>
</svg>
