<svg width="90" height="90" viewBox="0 0 90 90" fill="none" xmlns="http://www.w3.org/2000/svg">
<g clip-path="url(#clip0_3230_27186)">
<path d="M27.5239 65.5127C25.083 66.5772 22.241 65.4616 21.1765 63.0205L20.3587 61.1458C18.4561 56.7832 19.5013 51.6828 22.9596 48.4537C25.5608 46.0247 26.2163 42.1189 24.5529 38.9553C22.7316 35.4912 18.581 33.8798 14.8983 35.207C11.0019 36.6085 8.82061 40.8153 9.92909 44.7795C10.0282 45.1339 10.1539 45.4865 10.3026 45.8277C11.3672 48.2686 10.2515 51.1106 7.8104 52.1751C5.3695 53.2397 2.52747 52.124 1.46294 49.6829C1.13651 48.9346 0.860184 48.1585 0.641512 47.3761C-1.81995 38.5719 3.00559 29.2402 11.6287 26.1342C19.8145 23.1844 29.0404 26.7668 33.0888 34.4675C36.7684 41.4664 35.3094 50.1162 29.5408 55.5025C29.0636 55.9479 28.9259 56.6663 29.1981 57.2904L30.0158 59.1651C31.0807 61.6061 29.965 64.4482 27.5239 65.5127Z" fill="#FFD15B"/>
<path d="M33.2589 78.6643C30.818 79.7288 27.976 78.6131 26.9114 76.1721L26.8954 76.1355C25.8309 73.6946 26.9466 70.8526 29.3877 69.788C31.8286 68.7235 34.6706 69.8392 35.7351 72.2803L35.7511 72.3168C36.8157 74.7579 35.6998 77.5998 33.2589 78.6643Z" fill="#FFD15B"/>
<path d="M4.54756 45.6733C4.76535 46.4559 5.04291 47.2309 5.36934 47.9792C6.12801 49.7188 7.78914 50.7864 9.56453 50.8687C9.10223 51.4171 8.51107 51.8694 7.80918 52.1756C5.36969 53.2396 2.52678 52.1252 1.46189 49.6836C1.13547 48.9351 0.860195 48.1592 0.642226 47.3766C-1.82117 38.5714 3.00613 29.2401 11.6282 26.134C11.9371 26.0229 12.2477 25.9217 12.5598 25.8301C5.84359 29.7999 2.38598 37.9398 4.54756 45.6733Z" fill="#FFC344"/>
<path d="M26.8672 46.7501C23.4092 49.9792 22.363 55.081 24.2656 59.4434L25.083 61.3178C25.8417 63.0575 27.5051 64.1239 29.2805 64.2062C28.8182 64.7546 28.227 65.2069 27.5252 65.5131C25.0836 66.578 22.2428 65.4627 21.1779 63.0211L20.3605 61.1467C18.458 56.7844 19.502 51.6835 22.962 48.4534C25.5626 46.0237 26.217 42.1202 24.5536 38.9568C22.9904 35.981 19.7083 34.3723 16.4805 34.821C17.16 34.2645 17.9417 33.8157 18.8069 33.5042C22.4897 32.1766 26.6399 33.7876 28.4612 37.2526C30.1244 40.416 29.4679 44.3206 26.8672 46.7501Z" fill="#FFC344"/>
<path d="M35.0143 77.3576C34.552 77.906 33.9609 78.3583 33.259 78.6645C30.8174 79.7294 27.9766 78.6141 26.9117 76.1725L26.8953 76.1349C25.8313 73.6954 26.9458 70.8525 29.3874 69.7876C30.0895 69.4814 30.823 69.3559 31.5395 69.3903C30.3928 70.7496 30.0429 72.6943 30.8005 74.4317L30.8168 74.4693C31.5757 76.2087 33.2391 77.2753 35.0143 77.3576Z" fill="#FFC344"/>
<path d="M65.9869 65.0432C63.4147 64.3539 61.888 61.7098 62.5773 59.1376L63.1067 57.162C64.3386 52.5648 68.3355 49.2281 73.0526 48.8593C76.6007 48.5818 79.5481 45.9363 80.2195 42.4257C80.955 38.5818 78.7142 34.7344 75.0073 33.4764C71.087 32.1432 66.7591 34.0728 65.1544 37.8635C65.011 38.2023 64.8893 38.5565 64.7932 38.9159C64.1039 41.4881 61.4598 43.0148 58.8876 42.3256C56.3154 41.6363 54.7887 38.9922 55.478 36.42C55.6893 35.6315 55.957 34.8524 56.2737 34.1043C59.8375 25.6857 69.428 21.3974 78.1068 24.3444C86.3462 27.1409 91.3266 35.6933 89.6919 44.2382C88.2058 52.0046 81.6729 57.8585 73.8046 58.474C73.1538 58.5248 72.5982 59.0009 72.4221 59.6583L71.8926 61.6339C71.2032 64.2059 68.5591 65.7324 65.9869 65.0432Z" fill="#6FD7A3"/>
<path d="M62.2743 78.9021C59.7021 78.2129 58.1755 75.5688 58.8647 72.9966L58.8751 72.9579C59.5643 70.3857 62.2084 68.8591 64.7806 69.5483C67.3528 70.2375 68.8795 72.8816 68.1903 75.4538L68.1799 75.4925C67.4906 78.0649 64.8467 79.5914 62.2743 78.9021Z" fill="#6FD7A3"/>
<path d="M60.3905 35.2081C60.073 35.9559 59.8069 36.7348 59.5956 37.5235C59.1045 39.3567 59.7378 41.2269 61.0747 42.3981C60.3712 42.5387 59.6271 42.524 58.8874 42.3257C56.3168 41.6368 54.7885 38.9932 55.478 36.4201C55.6892 35.6314 55.9577 34.8531 56.2753 34.1055C59.8382 25.6848 69.4297 21.3979 78.1079 24.3441C78.4186 24.4498 78.7247 24.5642 79.0258 24.6873C71.2993 23.6045 63.5213 27.8137 60.3905 35.2081Z" fill="#3EC3A4"/>
<path d="M77.1715 49.9614C72.4547 50.3307 68.456 53.6678 67.2243 58.2646L66.6951 60.2397C66.2039 62.0729 66.8396 63.9438 68.1764 65.1148C67.4729 65.2554 66.7288 65.2407 65.9891 65.0424C63.416 64.353 61.8903 61.7099 62.5797 59.1369L63.109 57.1618C64.3408 52.5647 68.3369 49.2272 73.0561 48.8586C76.604 48.58 79.5493 45.9357 80.2206 42.4253C80.8534 39.124 79.29 35.8202 76.4863 34.1589C77.3645 34.1474 78.2555 34.2838 79.1263 34.5795C82.8337 35.8372 85.0742 39.684 84.3382 43.5287C83.6669 47.0392 80.7194 49.683 77.1715 49.9614Z" fill="#3EC3A4"/>
<path d="M64.4615 78.9751C63.7581 79.1157 63.014 79.1009 62.2743 78.9026C59.7012 78.2132 58.1754 75.5702 58.8648 72.9973L58.8754 72.9577C59.5643 70.3871 62.2078 68.8589 64.7807 69.5483C65.5206 69.7465 66.1724 70.1057 66.7112 70.5792C64.9673 70.9273 63.4812 72.2296 62.9906 74.0606L62.98 74.1001C62.4891 75.9332 63.1247 77.804 64.4615 78.9751Z" fill="#3EC3A4"/>
<path d="M47.1638 58.6355C44.1739 58.6355 41.7501 56.2117 41.7501 53.2218V50.9254C41.7501 45.5818 45.1151 40.8018 50.1234 39.0312C53.8906 37.6991 56.3183 33.9736 56.0263 29.9714C55.7068 25.589 52.1586 22.0678 47.773 21.7805C43.1342 21.4741 39.0012 24.8242 38.3626 29.4015C38.3055 29.8106 38.2766 30.23 38.2766 30.6478C38.2766 33.6377 35.8528 36.0615 32.8629 36.0615C29.8731 36.0615 27.4492 33.6377 27.4492 30.6478C27.4492 29.7313 27.5132 28.8084 27.6392 27.9051C29.0578 17.7397 38.2123 10.3022 48.4806 10.976C58.2287 11.6144 66.1153 19.4421 66.8255 29.1841C67.4707 38.0384 62.0871 46.2853 53.7329 49.2393C53.0419 49.4837 52.5777 50.1611 52.5777 50.9254V53.2218C52.5775 56.2117 50.1537 58.6355 47.1638 58.6355Z" fill="#0573CE"/>
<path d="M47.1637 74.7433C44.1738 74.7433 41.75 72.3195 41.75 69.3296V69.2848C41.75 66.2949 44.1738 63.8711 47.1637 63.8711C50.1536 63.8711 52.5774 66.2949 52.5774 69.2848V69.3296C52.5774 72.3195 50.1536 74.7433 47.1637 74.7433Z" fill="#0573CE"/>
<path d="M32.4247 27.9063C32.2976 28.8095 32.2354 29.7316 32.2354 30.6483C32.2354 32.7791 33.4657 34.6232 35.2558 35.5048C34.5339 35.8618 33.7227 36.0618 32.8628 36.0618C29.8746 36.0618 27.4492 33.6391 27.4492 30.6483C27.4492 29.7316 27.5141 28.8095 27.6412 27.9063C29.0581 17.7389 38.2142 10.3025 48.4816 10.9759C48.8494 11.0002 49.2145 11.0353 49.5767 11.0814C40.8831 12.1523 33.6713 18.9775 32.4247 27.9063Z" fill="#0067C5"/>
<path d="M54.9079 39.0305C49.8999 40.8017 46.5334 45.5826 46.5334 50.9258V53.2215C46.5334 55.3523 47.7665 57.1966 49.5566 58.0782C48.8347 58.4352 48.0235 58.6352 47.1635 58.6352C44.1728 58.6352 41.75 56.2123 41.75 53.2215V50.9258C41.75 45.5824 45.1139 40.8017 50.1246 39.0305C53.8914 37.6974 56.317 33.9738 56.0248 29.9718C55.7517 26.2076 53.0963 23.0791 49.5728 22.0921C50.522 21.8243 51.5278 21.7134 52.5581 21.7811C56.9442 22.0678 60.492 25.5885 60.811 29.9718C61.103 33.9738 58.6747 37.6972 54.9079 39.0305Z" fill="#0067C5"/>
<path d="M49.5566 74.1872C48.8347 74.5442 48.0235 74.7442 47.1635 74.7442C44.1728 74.7442 41.75 72.3214 41.75 69.3307V69.2846C41.75 66.2965 44.1728 63.8711 47.1635 63.8711C48.0235 63.8711 48.8347 64.0711 49.5566 64.4281C47.7665 65.3123 46.5334 67.1566 46.5334 69.2846V69.3307C46.5334 71.4615 47.7665 73.3056 49.5566 74.1872Z" fill="#0067C5"/>
</g>
<defs>
<clipPath id="clip0_3230_27186">
<rect width="90" height="90" fill="white"/>
</clipPath>
</defs>
</svg>
