<svg width="20" height="20" viewBox="0 0 20 20" fill="none" xmlns="http://www.w3.org/2000/svg">
  <path d="M10.0125 20H9.96475C9.83968 20 9.71916 19.95 9.6282 19.8613C8.8141 19.0471 5.38715 15.4151 3.62024 13.2795C1.78738 11.0575 0 8.61042 0 5.28997C0 2.37435 2.28766 0 5.10063 0C7.2564 0 9.02104 1.09393 9.99659 2.9793C10.9653 1.09393 12.73 0 14.8994 0C17.7123 0 20 2.37435 20 5.28997C20 8.61042 18.2126 11.0575 16.3798 13.2795C14.6538 15.365 11.2223 18.9879 10.3468 19.8613C10.2581 19.95 10.1376 20 10.0125 20ZM5.10063 0.948374C2.81069 0.948374 0.948266 2.89516 0.948266 5.28997C0.948266 8.29657 2.55827 10.4981 4.3502 12.6746C5.92609 14.5781 8.83684 17.6848 9.98749 18.872C11.1723 17.6552 14.1035 14.5395 15.6475 12.6746C17.4395 10.5003 19.0495 8.29884 19.0495 5.28997C19.0495 2.89516 17.187 0.948374 14.8971 0.948374C12.7504 0.948374 11.1336 2.18558 10.4628 4.33932C10.4014 4.53718 10.2172 4.67364 10.0102 4.67364C9.8033 4.67364 9.59636 4.53946 9.53496 4.3416C8.85276 2.18558 7.23593 0.948374 5.10063 0.948374Z" fill="black"/>
</svg>
