<svg width="20" height="20" viewBox="0 0 20 20" fill="none" xmlns="http://www.w3.org/2000/svg">
<path fill-rule="evenodd" clip-rule="evenodd" d="M4.72111 3.56839C4.39808 3.25035 3.88039 3.25675 3.56481 3.58267C3.24924 3.9086 3.25528 4.43064 3.57831 4.74868L8.91271 10.0007L3.57831 15.2526C3.25528 15.5707 3.24924 16.0927 3.56481 16.4186C3.88039 16.7446 4.39808 16.7509 4.72111 16.4329L10.0835 11.1534L15.2763 16.2659C15.5993 16.5839 16.117 16.5776 16.4326 16.2516C16.7482 15.9257 16.7421 15.4037 16.4191 15.0856L11.2543 10.0007L16.4191 4.91568C16.7421 4.59764 16.7482 4.0756 16.4326 3.74968C16.117 3.42375 15.5993 3.41735 15.2763 3.73539L10.0835 8.84794L4.72111 3.56839Z" fill="white"/>
</svg>
