<svg width="214" height="140" viewBox="0 0 214 140" fill="none" xmlns="http://www.w3.org/2000/svg">
<path d="M210.284 33.0081L206.937 49.1907L204.783 47.0924L201.118 49.704L198.317 46.23L192.036 50.7898L186.669 41.8274L180.682 45.3292L178.307 42.0613L170.705 46.3383L168.418 41.4468L173.747 15.6768L202.318 21.5668L210.284 33.0081Z" fill="#EBEBEB"/>
<path d="M202.315 21.5654L210.281 33.0068L200.371 30.9643L202.315 21.5654Z" fill="#DBDBDB"/>
<path d="M206.222 52.4221L201.316 76.1636L162.832 68.2312L167.703 44.6816L169.99 49.5696L177.596 45.2926L179.967 48.5606L185.957 45.0622L191.322 54.0246L197.606 49.4649L200.403 52.9353L204.072 50.3272L206.222 52.4221Z" fill="#EBEBEB"/>
<path d="M151.143 49.6408L111.924 52.0638L108.809 1.80156L137.931 0L148.621 8.95545L151.143 49.6408Z" fill="#EBEBEB"/>
<path d="M137.93 0L148.62 8.95545L138.521 9.58041L137.93 0Z" fill="#DBDBDB"/>
<path d="M127.071 33.8219L126.918 32.6872C126.522 30.3375 127.166 27.7085 129.212 24.9608C131.058 22.5168 132.058 20.7711 131.946 18.788C131.82 16.5535 130.334 15.1429 127.568 15.2547C125.987 15.3366 124.469 15.8968 123.214 16.8607L122.008 14.1618C123.407 13.0271 125.854 12.1892 128.18 12.067C133.226 11.7877 135.681 14.7694 135.873 18.0967C136.041 21.0748 134.495 23.3128 132.53 25.9279C130.726 28.3125 130.135 30.2782 130.39 32.5022L130.498 33.6404L127.071 33.8219ZM126.449 40.0052C126.358 38.3852 127.39 37.1842 128.925 37.1004C130.46 37.0166 131.579 38.0919 131.67 39.7154C131.754 41.2482 130.813 42.4841 129.191 42.5749C127.641 42.6622 126.522 41.5379 126.435 40.0052H126.449Z" fill="#DBDBDB"/>
<path d="M28.9747 25.2695L25.0302 23.4854L24.4811 24.6899C24.4001 24.862 24.2736 25.0089 24.1152 25.1147C23.9569 25.2205 23.7727 25.2812 23.5824 25.2904C23.3656 25.2975 23.1496 25.3185 22.9355 25.3533C22.7476 25.3811 22.5556 25.3575 22.3801 25.2849C22.2045 25.2124 22.052 25.0936 21.9388 24.9413L21.166 23.8624L17.6446 26.3832L18.4174 27.4621C18.5249 27.6178 18.5882 27.7996 18.6005 27.9884C18.6128 28.1771 18.5737 28.3656 18.4873 28.5339C18.3876 28.7259 18.2978 28.9229 18.2181 29.124C18.1488 29.3013 18.0324 29.4564 17.8815 29.5727C17.7305 29.689 17.5507 29.762 17.3613 29.7838L16.043 29.913L16.4661 34.2179L17.7914 34.0853C17.9815 34.0701 18.1721 34.1069 18.3428 34.1918C18.5135 34.2767 18.6577 34.4064 18.7601 34.5671C18.8161 34.6578 18.8755 34.7451 18.9385 34.8324C19.0014 34.9197 19.0643 35.0035 19.1308 35.0873C19.2515 35.2339 19.3291 35.411 19.355 35.599C19.3809 35.787 19.3542 35.9785 19.2777 36.1522L18.7251 37.3672L22.6732 39.1548L23.2222 37.9433C23.3041 37.7713 23.4313 37.6248 23.5903 37.5196C23.7492 37.4144 23.9339 37.3545 24.1244 37.3462C24.3388 37.3374 24.5524 37.3164 24.7644 37.2834C24.9523 37.2555 25.1443 37.2791 25.3198 37.3517C25.4953 37.4242 25.6478 37.543 25.761 37.6954L26.5338 38.7742L30.0588 36.2534L29.286 35.1746C29.1752 35.0203 29.1099 34.8381 29.0975 34.6486C29.0852 34.4592 29.1262 34.2701 29.216 34.1027C29.3134 33.9118 29.401 33.716 29.4783 33.5162C29.5455 33.3375 29.6613 33.1811 29.8127 33.0646C29.964 32.948 30.1449 32.8759 30.335 32.8563L31.6604 32.7236L31.2338 28.4187L29.9084 28.5479C29.7195 28.5644 29.5297 28.5285 29.36 28.4441C29.1903 28.3597 29.0473 28.2301 28.9467 28.0696C28.8873 27.9788 28.8279 27.8915 28.7649 27.8042C28.702 27.7169 28.639 27.6296 28.5726 27.5493C28.4527 27.4009 28.3757 27.2227 28.3498 27.0338C28.3239 26.8449 28.3502 26.6526 28.4257 26.4775L28.9747 25.2695ZM26.7367 29.2532C27.1456 29.8229 27.3761 30.5009 27.3991 31.2015C27.422 31.9021 27.2364 32.5937 26.8656 33.1889C26.4948 33.7841 25.9556 34.2562 25.3161 34.5454C24.6766 34.8346 23.9655 34.928 23.2728 34.8137C22.5802 34.6994 21.937 34.3826 21.4247 33.9033C20.9124 33.4241 20.5539 32.8039 20.3947 32.1213C20.2354 31.4386 20.2825 30.7241 20.53 30.0682C20.7774 29.4122 21.2142 28.8443 21.785 28.4362C22.5502 27.889 23.5017 27.6678 24.4303 27.821C25.3588 27.9742 26.1885 28.4893 26.7367 29.2532Z" fill="#EBEBEB"/>
<path d="M207.284 82.3896L204.655 83.9049L205.12 84.7079C205.189 84.8232 205.224 84.956 205.219 85.0904C205.215 85.2248 205.172 85.355 205.095 85.4656C205.015 85.5913 204.938 85.7205 204.868 85.8566C204.81 85.9771 204.72 86.0786 204.606 86.1491C204.493 86.2196 204.361 86.2563 204.228 86.2546H203.305V89.2887H204.235C204.368 89.287 204.5 89.3237 204.613 89.3942C204.727 89.4647 204.817 89.5662 204.875 89.6867C204.945 89.8228 205.022 89.952 205.102 90.0777C205.179 90.1883 205.222 90.3185 205.226 90.4529C205.231 90.5873 205.196 90.7201 205.127 90.8354L204.662 91.6384L207.291 93.1537L207.76 92.3471C207.828 92.2327 207.926 92.1395 208.044 92.0778C208.162 92.0162 208.295 91.9885 208.428 91.998H208.875C209.008 91.9889 209.141 92.0167 209.259 92.0784C209.377 92.14 209.475 92.233 209.543 92.3471L210.012 93.1571L212.638 91.6419L212.173 90.8354C212.107 90.7195 212.074 90.5875 212.079 90.4543C212.084 90.3211 212.126 90.1918 212.201 90.0812C212.281 89.9555 212.358 89.8228 212.428 89.6902C212.486 89.5697 212.577 89.4682 212.69 89.3977C212.803 89.3272 212.935 89.2905 213.068 89.2922H213.998V86.2581H213.061C212.928 86.2597 212.796 86.2231 212.683 86.1526C212.57 86.082 212.479 85.9805 212.421 85.8601C212.351 85.7274 212.274 85.5948 212.194 85.4691C212.119 85.3584 212.077 85.2292 212.072 85.096C212.067 84.9627 212.1 84.8308 212.166 84.7149L212.631 83.9084L210.005 82.3931L209.536 83.1892C209.468 83.3036 209.37 83.3968 209.252 83.4585C209.134 83.5202 209.001 83.5478 208.868 83.5383H208.645H208.421C208.288 83.5473 208.154 83.5194 208.036 83.4578C207.918 83.3963 207.818 83.3033 207.749 83.1892L207.284 82.3896ZM208.645 85.2875C209.137 85.2868 209.619 85.4321 210.029 85.705C210.439 85.9779 210.759 86.3661 210.948 86.8205C211.137 87.2749 211.186 87.775 211.09 88.2575C210.994 88.74 210.757 89.1833 210.409 89.5312C210.06 89.879 209.616 90.1159 209.133 90.2117C208.65 90.3075 208.149 90.258 207.694 90.0694C207.239 89.8808 206.85 89.5616 206.576 89.1523C206.303 88.743 206.158 88.2619 206.158 87.7699C206.158 87.4436 206.222 87.1204 206.346 86.8189C206.471 86.5173 206.654 86.2432 206.885 86.0123C207.116 85.7814 207.39 85.5983 207.692 85.4733C207.994 85.3484 208.318 85.284 208.645 85.284V85.2875Z" fill="#EBEBEB"/>
<path d="M36.9542 12.3688L34.5448 14.2123L35.1008 14.9489C35.1837 15.0539 35.2347 15.1804 35.2477 15.3135C35.2608 15.4466 35.2353 15.5806 35.1742 15.6996C35.1073 15.8355 35.0489 15.9754 34.9994 16.1186C34.9563 16.2447 34.8788 16.3562 34.7756 16.4407C34.6724 16.5252 34.5477 16.5793 34.4154 16.5969L33.4922 16.7156L33.8839 19.7217L34.807 19.603C34.9414 19.5843 35.0784 19.6039 35.2021 19.6594C35.3258 19.715 35.4313 19.8044 35.5064 19.9172C35.5906 20.0387 35.6817 20.1552 35.7792 20.2663C35.8693 20.3653 35.929 20.4879 35.9514 20.6198C35.9737 20.7516 35.9576 20.887 35.9051 21.01L35.5554 21.8689L38.353 23.0315L38.7027 22.1727C38.7547 22.0494 38.8403 21.9433 38.9497 21.8661C39.0591 21.789 39.1879 21.744 39.3216 21.7362L39.5454 21.7118L39.7657 21.6769C39.8951 21.6525 40.0288 21.6641 40.1521 21.7102C40.2754 21.7564 40.3837 21.8354 40.4651 21.9387L41.0351 22.6824L43.4445 20.8389L42.8815 20.1023C42.8002 19.9958 42.7502 19.8688 42.7373 19.7356C42.7243 19.6024 42.7488 19.4682 42.8081 19.3481C42.8744 19.2131 42.9328 19.0744 42.9829 18.9326C43.026 18.8065 43.1035 18.695 43.2067 18.6104C43.3099 18.5259 43.4346 18.4719 43.5669 18.4543L44.4901 18.3356L44.0985 15.3295L43.1753 15.4482C43.0412 15.4673 42.9045 15.4482 42.7808 15.3933C42.6571 15.3383 42.5514 15.2497 42.4759 15.1375C42.3885 15.0118 42.2975 14.8931 42.1996 14.7883C42.1182 14.6873 42.0654 14.5662 42.047 14.4378C42.0285 14.3095 42.045 14.1785 42.0947 14.0586L42.4444 13.1997L39.6468 12.0371L39.2971 12.896C39.2444 13.0187 39.1587 13.1245 39.0494 13.2015C38.9402 13.2786 38.8117 13.3239 38.6782 13.3324L38.4544 13.3534L38.2481 13.3604C38.1186 13.3847 37.985 13.3732 37.8617 13.327C37.7384 13.2808 37.6301 13.2018 37.5487 13.0985L36.9542 12.3688ZM38.6782 15.0676C39.1653 15.0051 39.6601 15.088 40.1 15.3059C40.54 15.5238 40.9055 15.8669 41.1504 16.292C41.3953 16.717 41.5086 17.205 41.4761 17.6942C41.4435 18.1835 41.2666 18.6522 40.9676 19.0412C40.6685 19.4302 40.2608 19.722 39.7959 19.8799C39.3309 20.0378 38.8295 20.0547 38.3549 19.9285C37.8804 19.8022 37.4539 19.5384 37.1293 19.1704C36.8047 18.8025 36.5965 18.3467 36.531 17.8608C36.4873 17.5365 36.5083 17.2067 36.5927 16.8906C36.6771 16.5744 36.8233 16.278 37.0228 16.0184C37.2224 15.7588 37.4713 15.5412 37.7554 15.378C38.0395 15.2148 38.3531 15.1094 38.6782 15.0676Z" fill="#EBEBEB"/>
<path d="M18.955 91.1428C19.0864 87.7676 19.0397 84.3879 18.8151 81.0177C18.3148 74.0584 17.2517 67.1508 15.6364 60.3625C14.7482 56.543 13.6571 52.7862 12.5171 49.0329C12.4821 48.9177 12.3003 48.9492 12.3318 49.0679C15.8532 62.3003 18.7417 75.9517 18.5424 89.7078C18.4864 93.5483 18.0388 97.3365 17.6751 101.163C17.6751 101.264 17.8325 101.306 17.857 101.201C18.5808 97.9161 18.8186 94.4875 18.955 91.1428Z" fill="#EBEBEB"/>
<path d="M12.3304 49.0586C12.3304 49.0586 7.00101 62.5703 8.19347 65.7335C9.38594 68.8967 11.8478 69.5741 11.8478 69.5741C11.8478 69.5741 8.58513 74.2246 10.8651 78.5854C13.1452 82.9461 18.2088 82.7402 18.5585 87.684C18.548 87.7084 18.8277 67.0358 12.3304 49.0586Z" fill="#EBEBEB"/>
<path d="M17.9692 79.1695C17.9778 79.1471 17.9778 79.1222 17.9692 79.0997C17.2697 69.8751 15.536 60.7579 12.8007 51.9191C12.8007 51.8947 12.7482 51.9017 12.7552 51.9191C13.8113 55.8761 14.7438 59.8493 15.5528 63.8388C14.8363 63.1611 13.961 62.6737 13.007 62.4213C13.007 62.4213 12.979 62.4422 13.007 62.4492C14.0092 62.8159 14.9103 63.4141 15.6367 64.1949C15.7906 64.9805 15.9444 65.7626 16.0878 66.5481C14.8953 65.2179 13.2448 64.558 11.5907 63.9296C11.587 63.9312 11.5838 63.9339 11.5816 63.9373C11.5793 63.9407 11.5781 63.9447 11.5781 63.9488C11.5781 63.9528 11.5793 63.9568 11.5816 63.9602C11.5838 63.9637 11.587 63.9663 11.5907 63.968C13.3147 64.6663 15.0282 65.567 16.1962 67.0509C16.6019 69.2924 16.9586 71.542 17.2663 73.7998C16.4053 72.8992 15.3011 72.2673 14.0876 71.9807C14.0491 71.9807 14.0281 72.0261 14.0666 72.0366C15.3132 72.4031 16.4261 73.1237 17.2698 74.1105H17.2908C17.3957 74.9019 17.4959 75.6968 17.5915 76.4951C16.9254 75.9324 16.1734 75.4797 15.3639 75.1544C15.343 75.1544 15.329 75.1789 15.3639 75.1858C16.19 75.5431 16.9464 76.0431 17.5985 76.6627C17.5985 76.6627 17.616 76.6627 17.6265 76.6627C17.7139 77.4203 17.8013 78.178 17.8783 78.9356C16.6774 77.4863 15.119 76.3744 13.3567 75.7096C13.3493 75.7096 13.3422 75.7125 13.3369 75.7177C13.3317 75.723 13.3287 75.7301 13.3287 75.7375C13.3287 75.7449 13.3317 75.752 13.3369 75.7572C13.3422 75.7625 13.3493 75.7654 13.3567 75.7654C15.0969 76.5312 16.6255 77.7064 17.8118 79.1905C17.8249 79.2068 17.8425 79.2188 17.8624 79.225C17.8824 79.2312 17.9037 79.2314 17.9237 79.2254C18.0391 80.388 18.144 81.5507 18.228 82.7168C18.228 82.7343 18.2559 82.7343 18.2559 82.7168C18.165 81.546 18.0694 80.3636 17.9692 79.1695Z" fill="white"/>
<path d="M13.6851 61.0923C12.72 60.4926 11.6174 60.1489 10.4819 60.0938C10.4764 60.0938 10.471 60.096 10.4671 60.0999C10.4631 60.1038 10.4609 60.1091 10.4609 60.1147C10.4609 60.1203 10.4631 60.1256 10.4671 60.1295C10.471 60.1334 10.4764 60.1356 10.4819 60.1356C11.5797 60.3435 12.6451 60.6957 13.6502 61.1831C13.6921 61.1935 13.7236 61.1202 13.6851 61.0923Z" fill="white"/>
<path d="M14.3306 75.3967C13.5888 74.9716 12.7719 74.693 11.9247 74.5762C11.8967 74.5762 11.8932 74.6146 11.9247 74.6216C12.752 74.7872 13.5523 75.0669 14.3026 75.4525C14.3341 75.47 14.362 75.4141 14.3306 75.3967Z" fill="white"/>
<path d="M32.9693 65.966C30.7148 67.522 28.6442 69.3281 26.7972 71.3498C24.8924 73.4904 23.4232 75.9806 22.4715 78.6817C20.446 84.3092 19.3568 90.2298 19.2473 96.2086C19.1793 99.5196 19.4973 102.827 20.1949 106.065C20.2006 106.088 20.2151 106.109 20.2354 106.122C20.2558 106.135 20.2804 106.14 20.3042 106.135C20.3281 106.131 20.3492 106.117 20.3634 106.098C20.3775 106.078 20.3836 106.054 20.3803 106.03C19.5122 100.317 19.5453 94.5029 20.4782 88.7998C21.3944 83.2136 22.8316 77.1316 26.3915 72.5892C28.3289 70.1138 30.7453 68.1691 33.1337 66.1581C33.2596 66.0464 33.0987 65.8753 32.9693 65.966Z" fill="#EBEBEB"/>
<path d="M20.0312 92.179C21.3146 90.1066 22.8227 88.1817 24.5283 86.4392C27.1965 83.7752 29.4416 81.8829 29.7913 80.1232C30.141 78.3635 27.1196 77.0647 27.1196 77.0647C27.1196 77.0647 30.8089 77.7281 31.8195 76.1814C32.8301 74.6347 33.3162 65.6758 33.3162 65.6758C33.3162 65.6758 26.602 70.4625 23.4723 77.173C20.3425 83.8834 20.0312 92.179 20.0312 92.179Z" fill="#EBEBEB"/>
<path d="M30.9051 74.08C30.463 74.014 30.0149 73.9987 29.5693 74.0344C29.5168 74.0344 29.5203 74.1255 29.5693 74.129C30.0099 74.129 30.454 74.108 30.8946 74.129C30.8997 74.1277 30.9043 74.1251 30.9079 74.1213C30.9115 74.1175 30.9139 74.1128 30.915 74.1078C30.9161 74.1027 30.9158 74.0973 30.914 74.0924C30.9123 74.0875 30.9092 74.0832 30.9051 74.08Z" fill="white"/>
<path d="M26.0858 82.7705C25.3768 82.7849 24.676 82.9244 24.0156 83.1825C24.0156 83.1825 24.0156 83.2174 24.0156 83.2139C24.715 83.0498 25.3899 82.9835 26.0823 82.8648C26.0914 82.8608 26.0991 82.8544 26.1047 82.8463C26.1102 82.8381 26.1134 82.8286 26.1137 82.8187C26.1141 82.8089 26.1117 82.7992 26.1067 82.7906C26.1018 82.7821 26.0946 82.7751 26.0858 82.7705Z" fill="white"/>
<path d="M24.6382 79.7677C24.3438 79.7654 24.0499 79.7912 23.7604 79.8449C23.7551 79.8468 23.7505 79.8504 23.7472 79.8551C23.7439 79.8598 23.7422 79.8654 23.7422 79.8711C23.7422 79.8769 23.7439 79.8825 23.7472 79.8872C23.7505 79.8919 23.7551 79.8955 23.7604 79.8974C24.0536 79.9144 24.3476 79.9015 24.6382 79.8589C24.6502 79.8589 24.6618 79.8541 24.6703 79.8455C24.6788 79.837 24.6836 79.8254 24.6836 79.8133C24.6836 79.8012 24.6788 79.7896 24.6703 79.7811C24.6618 79.7725 24.6502 79.7677 24.6382 79.7677Z" fill="white"/>
<path d="M0.347951 75.4712C2.53327 76.2108 4.62738 77.1959 6.59002 78.4074C8.62644 79.6994 10.3924 81.3737 11.79 83.3373C14.7306 87.4241 16.982 91.9634 18.4552 96.7757C19.2768 99.4403 19.7838 102.192 19.9659 104.974C19.9621 104.992 19.9522 105.008 19.9378 105.019C19.9235 105.031 19.9056 105.037 19.8872 105.037C19.8688 105.037 19.8509 105.031 19.8366 105.019C19.8223 105.008 19.8124 104.992 19.8085 104.974C19.1913 100.15 17.8201 95.4527 15.7451 91.0533C13.7063 86.7414 11.1361 82.1537 7.20549 79.2978C5.06535 77.7441 2.65944 76.7246 0.260527 75.6492C0.134637 75.6073 0.222061 75.4293 0.347951 75.4712Z" fill="#EBEBEB"/>
<path d="M16.8868 93.6981C15.3676 92.318 13.7012 91.1086 11.9176 90.0915C9.14105 88.5518 6.88551 87.5392 6.19661 86.1951C5.50771 84.8509 7.65135 83.1052 7.65135 83.1052C7.65135 83.1052 4.81881 84.5017 3.64383 83.4718C2.46885 82.4418 0 75.3193 0 75.3193C0 75.3193 6.54281 77.6411 10.6238 82.351C14.7047 87.0609 16.8868 93.6981 16.8868 93.6981Z" fill="#EBEBEB"/>
<path d="M11.457 87.141C10.8138 87.0963 10.1679 87.1757 9.55469 87.375C9.55469 87.375 9.55469 87.4064 9.55469 87.4029C10.1803 87.2958 10.8123 87.2305 11.4465 87.2074C11.492 87.2074 11.5025 87.1445 11.457 87.141Z" fill="white"/>
<path d="M5.74916 79.6708C5.45572 79.6468 5.16038 79.6633 4.87143 79.7199C4.83995 79.7199 4.85044 79.776 4.87143 79.7725C5.16167 79.741 5.44493 79.7515 5.73168 79.7445C5.74059 79.7448 5.74934 79.7421 5.75644 79.7367C5.76355 79.7313 5.76856 79.7236 5.77062 79.7149C5.77269 79.7062 5.77168 79.697 5.76776 79.689C5.76385 79.681 5.75727 79.6746 5.74916 79.6708Z" fill="white"/>
<path d="M25.3263 113.976H10.5586L12.6638 98.5757L13.2023 94.627H22.6826L23.2211 98.5757L25.3263 113.976Z" fill="#DBDBDB"/>
<path d="M23.2214 98.5757H12.6641L13.2026 94.627H22.6828L23.2214 98.5757Z" fill="#C7C7C7"/>
<path d="M24.0342 93.2598H11.8438V96.6045H24.0342V93.2598Z" fill="#DBDBDB"/>
<path d="M1.16797 113.976L27.7484 113.893L54.3287 113.861L107.49 113.802L160.65 113.861L187.231 113.893L213.811 113.976L187.231 114.064L160.65 114.092L107.49 114.151L54.3287 114.092L27.7484 114.06L1.16797 113.976Z" fill="#324054"/>
<path d="M108.19 140C163.568 140 208.462 135.088 208.462 129.03C208.462 122.971 163.568 118.06 108.19 118.06C52.8112 118.06 7.91797 122.971 7.91797 129.03C7.91797 135.088 52.8112 140 108.19 140Z" fill="#EBEBEB"/>
<path d="M84.8462 127.214C84.0314 127.49 60.6682 127.563 59.773 127.012C59.4233 126.802 59.224 123.405 59.0736 119.292C59.0422 118.405 59.0177 117.487 58.9967 116.558L57.1328 104.115L72.7537 104.014L74.226 116.461L74.1665 119.198C74.1665 119.198 83.1257 123.161 84.0419 123.88C84.9581 124.599 85.661 126.938 84.8462 127.214Z" fill="#FFF5EA"/>
<path d="M84.8473 127.214C84.0325 127.49 60.6693 127.564 59.7741 127.012C59.3614 126.754 59.1376 121.792 59.0117 116.559L74.2095 116.461L74.1501 119.198C74.1501 119.198 83.1093 123.161 84.0255 123.88C84.9417 124.599 85.6621 126.939 84.8473 127.214Z" fill="white"/>
<path d="M84.8468 127.215C84.032 127.49 60.6688 127.564 59.7736 127.012C59.4239 126.803 59.2246 123.405 59.0742 119.293L74.1356 119.198C74.1356 119.198 83.0948 123.161 84.011 123.88C84.9272 124.599 85.6616 126.939 84.8468 127.215Z" fill="#A6A6A6"/>
<path d="M84.5074 126.281C80.5908 126.198 64.7845 126.236 60.9064 126.452C60.8749 126.452 60.8749 126.473 60.9064 126.477C64.788 126.641 80.5943 126.477 84.5074 126.344C84.5913 126.341 84.5913 126.281 84.5074 126.281Z" fill="#324054"/>
<path d="M82.5192 123.046C82.0837 123.036 81.6509 123.117 81.2482 123.282C80.8455 123.448 80.4817 123.696 80.1797 124.009C79.6295 124.569 79.3186 125.32 79.3125 126.104C79.3125 126.129 79.3545 126.129 79.358 126.104C79.488 125.332 79.8647 124.622 80.4319 124.081C80.9992 123.54 81.7264 123.196 82.5052 123.102C82.5126 123.103 82.5205 123.102 82.5271 123.098C82.5336 123.094 82.5383 123.088 82.5402 123.081C82.542 123.073 82.5409 123.065 82.5369 123.059C82.533 123.052 82.5266 123.048 82.5192 123.046Z" fill="#324054"/>
<path d="M75.6679 119.581C74.1012 119.564 72.2863 120.123 71.3141 121.407C71.2792 121.456 71.3491 121.509 71.3946 121.484C72.7633 120.763 74.2052 120.189 75.6958 119.773C75.7189 119.767 75.7388 119.753 75.7519 119.733C75.765 119.713 75.7703 119.689 75.7669 119.665C75.7635 119.642 75.7515 119.62 75.7332 119.605C75.715 119.589 75.6918 119.581 75.6679 119.581Z" fill="#324054"/>
<path d="M76.8844 120.046C75.3142 120.046 73.4993 120.591 72.5306 121.872C72.4922 121.924 72.5621 121.977 72.6111 121.952C73.9778 121.228 75.4187 120.654 76.9088 120.238C76.9316 120.232 76.9513 120.217 76.9644 120.198C76.9775 120.178 76.983 120.155 76.9801 120.131C76.9771 120.108 76.9658 120.086 76.9482 120.071C76.9306 120.055 76.9079 120.046 76.8844 120.046Z" fill="#324054"/>
<path d="M78.0936 120.515C76.527 120.515 74.7121 121.056 73.7399 122.341C73.705 122.39 73.7749 122.442 73.8204 122.417C75.1891 121.696 76.631 121.123 78.1216 120.707C78.1447 120.7 78.1646 120.686 78.1777 120.666C78.1908 120.646 78.1961 120.622 78.1927 120.598C78.1892 120.575 78.1773 120.553 78.159 120.538C78.1408 120.522 78.1175 120.514 78.0936 120.515Z" fill="#324054"/>
<path d="M79.3059 120.982C77.7358 120.964 75.9208 121.523 74.9522 122.808C74.9137 122.857 74.9872 122.909 75.0326 122.885C76.4011 122.163 77.8431 121.589 79.3339 121.174C79.3569 121.168 79.3769 121.153 79.39 121.133C79.403 121.113 79.4084 121.089 79.4049 121.066C79.4015 121.042 79.3895 121.02 79.3713 121.005C79.353 120.99 79.3298 120.981 79.3059 120.982Z" fill="#324054"/>
<path d="M61.8934 122.733C60.1449 122.733 60.1449 125.474 61.8934 125.464C63.6419 125.453 63.6559 122.723 61.8934 122.733Z" fill="#324054"/>
<path d="M77.3507 115.398C76.5569 114.742 75.5567 115.398 75.0707 116.072C74.2615 117.263 73.7792 118.645 73.6719 120.08C73.6719 120.112 73.6963 120.126 73.7208 120.126C73.727 120.155 73.7403 120.183 73.7594 120.206C73.7785 120.23 73.803 120.248 73.8307 120.26C73.8585 120.272 73.8887 120.277 73.9189 120.275C73.9491 120.273 73.9783 120.264 74.0041 120.248C75.1161 119.476 76.403 118.785 77.2458 117.692C77.7249 117.057 78.1165 116.009 77.3507 115.398ZM75.4413 118.729C74.9028 119.124 74.3468 119.49 73.8222 119.906C74.102 119.124 74.3433 118.335 74.7 117.581C74.8648 117.219 75.054 116.869 75.2665 116.533C75.6162 116.013 77.1409 114.7 77.3017 116.4C77.3926 117.333 76.0813 118.261 75.4413 118.729Z" fill="#324054"/>
<path d="M69.7687 120.674C71.1325 120.876 72.5418 120.485 73.8812 120.272C73.9102 120.265 73.9371 120.251 73.9597 120.231C73.9823 120.211 73.9999 120.186 74.0111 120.158C74.0223 120.13 74.0268 120.1 74.0243 120.07C74.0218 120.041 74.0123 120.012 73.9966 119.986C74.0016 119.982 74.0058 119.977 74.0086 119.971C74.0114 119.966 74.0129 119.959 74.0129 119.953C74.0129 119.947 74.0114 119.94 74.0086 119.934C74.0058 119.929 74.0016 119.924 73.9966 119.92C72.9204 118.962 71.6106 118.303 70.1989 118.01C69.3736 117.853 68.2056 118.08 68.1007 119.103C67.9748 120.066 68.9714 120.548 69.7687 120.674ZM68.8176 119.787C67.7685 118.446 69.7722 118.331 70.3737 118.471C70.7639 118.568 71.1471 118.692 71.5207 118.841C72.2856 119.158 73.0337 119.513 73.7623 119.906C73.0978 119.972 72.4439 120.091 71.783 120.182C70.9927 120.286 69.4051 120.524 68.8176 119.787Z" fill="#324054"/>
<path d="M34.1641 46.6016C34.1641 46.6016 52.3028 77.4097 52.7889 79.5744C53.5337 82.8982 57.4818 115.721 57.4818 115.721L76.3654 115.372C76.3654 115.372 73.1132 86.4315 70.0324 76.8965C67.8153 70.0289 51.8062 47.251 51.8062 47.251L34.1641 46.6016Z" fill="#37474F"/>
<path d="M74.648 112.493C71.9378 112.472 62.3317 112.364 58.7228 112.699C58.6948 112.699 58.6983 112.748 58.7228 112.752C59.9642 112.93 71.9343 112.654 74.6445 112.567C74.6501 112.569 74.6562 112.569 74.6622 112.569C74.6682 112.568 74.6739 112.566 74.6789 112.562C74.6839 112.559 74.6881 112.555 74.691 112.549C74.694 112.544 74.6957 112.538 74.696 112.532C74.6962 112.526 74.6951 112.52 74.6927 112.515C74.6902 112.509 74.6865 112.504 74.6818 112.501C74.6772 112.497 74.6717 112.494 74.6658 112.493C74.6599 112.492 74.6538 112.492 74.648 112.493Z" fill="#324054"/>
<path d="M37.2603 49.4296C38.4493 51.2905 39.7082 53.113 40.9181 54.96C42.1281 56.8069 43.345 58.6539 44.5445 60.4973C46.9364 64.2215 49.2677 67.9701 51.5384 71.7432C52.6466 73.4921 53.5946 75.3372 54.371 77.2561C55.0796 79.1754 55.6122 81.155 55.9621 83.1705C56.3327 85.192 56.5775 87.2345 56.8048 89.277C57.038 91.4486 57.2816 93.6215 57.5357 95.7954C58.0323 100.243 58.53 104.692 59.0289 109.14C59.0883 109.684 59.1478 110.229 59.2037 110.777C59.2037 110.857 59.0674 110.871 59.0569 110.777C58.5009 106.36 58.0393 101.926 57.5357 97.5097C57.2839 95.3055 57.0333 93.1024 56.7839 90.9005C56.5496 88.851 56.3258 86.7981 56.0075 84.7626C55.7155 82.7534 55.2713 80.7693 54.6787 78.8272C54.0257 76.8163 53.1508 74.8842 52.07 73.0664C49.8844 69.2992 47.5694 65.5983 45.2544 61.8939C42.9394 58.1895 40.5615 54.4537 38.1206 50.7947C37.8198 50.3444 37.5156 49.894 37.2009 49.4506C37.1764 49.4261 37.2393 49.3947 37.2603 49.4296Z" fill="#324054"/>
<path d="M40.1102 129.031C39.25 128.978 17.0303 119.991 16.4148 119.139C16.3874 119.089 16.3753 119.032 16.3799 118.975C16.3799 118.211 17.922 115.543 19.2089 112.038C19.2893 111.814 19.8628 110.774 20.6566 109.374C22.8632 105.537 26.7099 98.9277 26.7099 98.9277L41.2327 104.689L34.2808 115.075L33.2002 117.589C33.2002 117.589 40.0158 124.624 40.5893 125.62C41.1628 126.615 40.967 129.079 40.1102 129.031Z" fill="#FFF5EA"/>
<path d="M40.1102 129.029C39.25 128.976 17.0303 119.989 16.4148 119.138C16.3874 119.087 16.3753 119.03 16.3799 118.973C16.3799 118.209 17.922 115.541 19.2089 112.036C19.2893 111.813 19.8628 110.772 20.6566 109.372L34.2948 115.074L33.2142 117.587C33.2142 117.587 40.0298 124.623 40.6033 125.618C41.1768 126.613 40.967 129.078 40.1102 129.029Z" fill="white"/>
<path d="M40.1089 129.029C39.2487 128.976 17.029 119.99 16.4135 119.138C16.1757 118.813 17.1689 115.786 19.2111 112.036L33.1989 117.591C33.1989 117.591 40.0145 124.619 40.5915 125.621C41.1685 126.623 40.9657 129.078 40.1089 129.029Z" fill="#A6A6A6"/>
<path d="M40.1459 128.039C36.5475 126.496 21.8813 120.609 18.206 119.359C18.1745 119.359 18.1675 119.359 18.206 119.38C21.7414 120.986 36.4531 126.754 40.1319 128.109C40.2019 128.126 40.2228 128.07 40.1459 128.039Z" fill="#324054"/>
<path d="M39.5179 124.291C39.1188 124.116 38.6878 124.025 38.252 124.025C37.8161 124.025 37.3851 124.116 36.9861 124.291C36.2686 124.604 35.7 125.182 35.3984 125.904C35.3984 125.925 35.4299 125.942 35.4404 125.921C35.8527 125.252 36.4711 124.734 37.2031 124.445C37.935 124.156 38.7411 124.112 39.5004 124.319C39.5063 124.317 39.5113 124.313 39.5145 124.308C39.5178 124.303 39.519 124.297 39.5179 124.291Z" fill="#324054"/>
<path d="M34.4694 118.518C33.0251 117.914 31.1298 117.753 29.7485 118.581C29.696 118.612 29.7485 118.685 29.7939 118.682C31.3337 118.526 32.8858 118.534 34.4239 118.706C34.4476 118.709 34.4714 118.703 34.4908 118.689C34.5103 118.675 34.5241 118.655 34.5297 118.632C34.5353 118.609 34.5322 118.585 34.5211 118.563C34.51 118.542 34.4916 118.526 34.4694 118.518Z" fill="#324054"/>
<path d="M35.4186 119.404C33.9743 118.8 32.079 118.64 30.6977 119.467C30.6452 119.499 30.6977 119.572 30.7431 119.569C32.2829 119.411 33.8351 119.419 35.3731 119.593C35.3968 119.596 35.4206 119.589 35.4401 119.576C35.4595 119.562 35.4733 119.542 35.4789 119.519C35.4845 119.496 35.4814 119.471 35.4703 119.45C35.4592 119.429 35.4408 119.413 35.4186 119.404Z" fill="#324054"/>
<path d="M36.3694 120.291C34.9217 119.687 33.0263 119.527 31.6485 120.354C31.5926 120.385 31.6485 120.459 31.6905 120.455C33.2302 120.298 34.7825 120.306 36.3205 120.48C36.3446 120.484 36.3694 120.479 36.39 120.465C36.4105 120.452 36.4253 120.431 36.4315 120.408C36.4376 120.384 36.4346 120.359 36.4232 120.337C36.4117 120.316 36.3925 120.299 36.3694 120.291Z" fill="#324054"/>
<path d="M37.3148 121.176C35.867 120.572 33.9752 120.412 32.5939 121.236C32.5379 121.271 32.5939 121.344 32.6358 121.341C34.1756 121.183 35.7278 121.191 37.2658 121.365C37.2899 121.369 37.3147 121.364 37.3353 121.351C37.3558 121.337 37.3706 121.317 37.3768 121.293C37.3829 121.269 37.3799 121.244 37.3685 121.223C37.357 121.201 37.3378 121.185 37.3148 121.176Z" fill="#324054"/>
<path d="M20.5133 116.279C18.8802 115.63 17.8661 118.168 19.5062 118.817C21.1463 119.467 22.1639 116.929 20.5133 116.279Z" fill="#324054"/>
<path d="M37.599 115.27C37.106 114.365 35.9415 114.589 35.2316 115.039C34.0358 115.839 33.0711 116.938 32.434 118.227C32.4312 118.233 32.4298 118.239 32.4297 118.245C32.4296 118.251 32.431 118.258 32.4337 118.263C32.4364 118.269 32.4403 118.274 32.4452 118.278C32.4501 118.282 32.4559 118.285 32.462 118.286C32.462 118.401 32.5389 118.538 32.6753 118.51C34.0007 118.206 35.4519 118.049 36.6409 117.351C37.3228 116.946 38.0641 116.125 37.599 115.27ZM34.5742 117.64C33.9272 117.804 33.2768 117.937 32.6369 118.126C33.1662 117.489 33.7276 116.879 34.3189 116.3C34.61 116.023 34.9196 115.766 35.2456 115.532C35.7527 115.182 37.669 114.537 37.1794 116.174C36.9101 117.078 35.347 117.445 34.5742 117.64Z" fill="#324054"/>
<path d="M28.5865 117.319C29.7754 118.017 31.2267 118.182 32.5485 118.489C32.6849 118.52 32.7758 118.384 32.7653 118.265C32.7719 118.265 32.7781 118.262 32.7835 118.258C32.7889 118.255 32.7932 118.249 32.796 118.243C32.7988 118.237 32.8 118.231 32.7996 118.224C32.7991 118.218 32.7969 118.211 32.7933 118.206C32.1572 116.915 31.1925 115.813 29.9957 115.011C29.2963 114.557 28.1249 114.33 27.6283 115.231C27.1317 116.132 27.8906 116.911 28.5865 117.319ZM28.0409 116.139C27.5548 114.502 29.4677 115.151 29.9747 115.504C30.3003 115.739 30.6088 115.997 30.8979 116.275C31.4881 116.856 32.0484 117.467 32.5765 118.105C31.9365 117.916 31.2861 117.78 30.6392 117.616C29.8559 117.406 28.3067 117.057 28.0409 116.139Z" fill="#324054"/>
<path d="M35.4097 114.494L19.1523 107.941C19.1523 107.941 39.3088 78.3514 39.4557 76.1483C39.5886 74.2001 30.7343 57.2249 30.3881 52.2776C30.0104 46.9358 32.5842 42.8054 35.4167 40.2393L52.1846 47.3582C52.1846 47.3582 50.4152 50.1828 47.6386 51.7574C47.6386 51.7574 56.2376 71.3791 55.748 77.4122C55.2585 83.4454 35.4097 114.494 35.4097 114.494Z" fill="#37474F"/>
<path d="M36.1287 111.408C33.7788 110.399 34.4677 110.654 32.1037 109.662C30.9497 109.18 23.3613 106.027 22.1933 105.766C22.1689 105.766 22.1514 105.801 22.1759 105.814C23.1865 106.432 30.8378 109.453 32.0023 109.913C34.3837 110.849 33.7088 110.556 36.1007 111.464C36.1043 111.468 36.1091 111.472 36.1145 111.475C36.12 111.477 36.1259 111.478 36.1319 111.477C36.1378 111.477 36.1435 111.475 36.1484 111.471C36.1533 111.468 36.1573 111.464 36.16 111.458C36.1627 111.453 36.1639 111.447 36.1637 111.441C36.1634 111.435 36.1616 111.429 36.1585 111.424C36.1553 111.419 36.151 111.415 36.1458 111.412C36.1405 111.409 36.1347 111.408 36.1287 111.408Z" fill="#324054"/>
<path d="M50.3878 51.3984C48.6421 51.8047 46.9341 52.3583 45.2822 53.0533C45.2756 53.0556 45.2694 53.0592 45.2642 53.0639C45.2589 53.0685 45.2546 53.0742 45.2515 53.0805C45.2484 53.0868 45.2466 53.0937 45.2462 53.1007C45.2458 53.1077 45.2467 53.1148 45.249 53.1214C45.2513 53.1281 45.2549 53.1342 45.2596 53.1395C45.2642 53.1447 45.2699 53.149 45.2762 53.1521C45.2826 53.1552 45.2895 53.157 45.2965 53.1574C45.3035 53.1578 45.3106 53.1569 45.3172 53.1546C47.0307 52.6553 48.7722 52.1875 50.4577 51.5974C50.5871 51.552 50.5207 51.3705 50.3878 51.3984Z" fill="#324054"/>
<path d="M48.3926 50.7205C48.2297 51.0099 48.086 51.3096 47.9625 51.6178C47.8418 51.8517 47.767 52.1065 47.7422 52.3685C47.7422 52.4209 47.8121 52.4313 47.8436 52.3999C48.019 52.1904 48.1606 51.9548 48.2632 51.7016C48.4066 51.4258 48.5535 51.1535 48.6899 50.8707C48.7843 50.6647 48.501 50.532 48.3926 50.7205Z" fill="#324054"/>
<path d="M48.5993 49.1361C48.7043 48.8777 48.8057 48.6228 48.9141 48.3644C49.0225 48.1061 49.1589 47.8407 49.2638 47.5684C49.2638 47.5265 49.3477 47.5684 49.3302 47.5998C49.2253 47.8582 49.1589 48.1305 49.0784 48.3959C48.998 48.6612 48.9071 48.9266 48.8196 49.1919C48.6553 49.6842 48.47 50.173 48.2427 50.6513C48.5178 50.665 48.7926 50.6173 49.047 50.5117C49.3068 50.3456 49.5065 50.1009 49.617 49.8134C49.7638 49.5271 49.9002 49.2338 50.0506 48.9475C50.2357 48.638 50.3914 48.3119 50.5157 47.9734C50.5157 47.9315 50.5996 47.9734 50.5821 48.0048C50.3541 48.7204 50.0554 49.4117 49.6904 50.0683C49.533 50.3231 49.4106 50.592 49.1239 50.6897C48.8135 50.7764 48.4886 50.799 48.1692 50.7561C48.1273 50.7561 48.0783 50.7561 48.0923 50.6932C48.2355 50.1661 48.4047 49.6464 48.5993 49.1361Z" fill="#324054"/>
<path d="M47.8868 52.3963C48.4848 53.6567 49.0094 54.9136 49.5654 56.1705C50.1214 57.4274 50.6145 58.6424 51.1145 59.8923C52.1147 62.4131 53.0099 64.9828 53.7967 67.5734C54.1849 68.8583 54.5451 70.1536 54.8668 71.4594C55.2211 72.761 55.4806 74.0865 55.6431 75.4256C55.7834 76.7624 55.6647 78.1138 55.2934 79.4058C54.9077 80.6829 54.4129 81.9246 53.8142 83.1172C53.447 83.8713 53.3246 83.77 53.4995 83.3895C53.9995 82.3072 55.3109 79.0287 55.2165 76.274C55.14 74.9552 54.9362 73.6468 54.608 72.3671C54.3026 71.0474 53.9587 69.7381 53.5764 68.4393C52.8316 65.8766 51.9468 63.3663 51.0376 60.8595C50.5271 59.4629 49.9885 58.0663 49.464 56.6698C48.9394 55.2732 48.4149 53.9884 47.8274 52.4452C47.8099 52.3823 47.8694 52.3579 47.8868 52.3963Z" fill="#324054"/>
<path d="M35.545 48.2315C35.8353 48.1233 36.2444 48.3013 36.5381 48.3502C36.9186 48.4147 37.303 48.4532 37.6886 48.4654C38.0702 48.4788 38.4523 48.466 38.8321 48.427C39.2147 48.4172 39.5895 48.3179 39.9267 48.1372C40.4799 47.7349 40.954 47.2343 41.3255 46.6604C41.7681 46.0739 42.1336 45.4333 42.413 44.7541C42.413 44.7122 42.4865 44.7541 42.4725 44.782C42.3501 45.1695 42.2592 45.5606 42.1228 45.9411C41.972 46.2987 41.7919 46.6432 41.5843 46.9711C41.2476 47.6309 40.7496 48.1953 40.1365 48.6121C39.4616 48.9961 38.5944 48.9612 37.8425 48.9298C37.4065 48.9044 36.9728 48.8472 36.5451 48.7587C36.2374 48.6924 35.7199 48.6435 35.524 48.3746C35.5148 48.3643 35.508 48.3522 35.504 48.339C35.5 48.3257 35.499 48.3118 35.501 48.2982C35.503 48.2845 35.508 48.2715 35.5156 48.2599C35.5232 48.2484 35.5332 48.2387 35.545 48.2315Z" fill="#324054"/>
<path d="M23.792 104.837C26.4637 100.796 29.0864 96.7231 31.6602 92.6172C34.2339 88.5114 36.7727 84.374 39.2765 80.2053C39.8745 79.2103 40.5634 78.2187 40.9481 77.1154C41.3677 75.9179 41.1299 74.7552 40.7523 73.5821C40.0391 71.442 39.2055 69.3438 38.2554 67.2976C37.3182 65.2342 36.3076 63.2057 35.3145 61.1702C34.3213 59.1347 33.2827 57.1236 32.5169 55.0009C31.8175 52.9724 31.5343 50.8705 32.0798 48.7687C32.6253 46.6669 33.8003 44.8095 35.0277 43.0603C35.3494 42.5994 35.6817 42.142 36.0069 41.6637C36.0314 41.6288 36.0838 41.6637 36.0593 41.7056C34.706 43.5281 33.3877 45.4589 32.5938 47.5991C32.1881 48.654 31.9612 49.7691 31.9224 50.8985C31.9158 52.0449 32.0941 53.1848 32.4505 54.2747C33.1079 56.3974 34.1465 58.405 35.1151 60.4021C36.0838 62.3991 37.1189 64.4661 38.0736 66.5225C39.0585 68.5922 39.9339 70.7121 40.6963 72.8734C41.0215 73.8335 41.3957 74.839 41.3677 75.869C41.3432 76.9967 40.8047 78.0127 40.2452 78.9624C37.7973 83.0997 35.29 87.1881 32.7372 91.2521C30.1844 95.3161 27.5582 99.3801 24.9005 103.402L23.8934 104.921C23.8409 104.984 23.75 104.91 23.792 104.837Z" fill="#324054"/>
<path d="M53.1154 28.5405C54.6296 31.8573 62.2774 36.4276 65.8583 36.9199C68.4321 37.269 76.2582 37.3947 78.9404 36.9862C82.0877 36.5044 79.6818 28.0378 77.8249 28.2577C72.7193 28.8513 68.3831 29.5146 67.0193 29.5146C65.3547 29.5146 56.3501 26.6307 55.266 26.2222C52.6083 25.2342 52.2586 26.6586 53.1154 28.5405Z" fill="#FFF5EA"/>
<path d="M53.1657 29.4225C55.082 32.2541 61.45 36.8837 61.45 36.8837L62.3347 34.9285L65.2617 28.4624C65.2617 28.4624 59.4113 26.6294 55.5611 25.7915C55.108 25.6885 54.6472 25.6231 54.1833 25.5959C51.725 25.4633 51.5116 26.9785 53.1657 29.4225Z" fill="#F7F7F7"/>
<path d="M53.1657 29.4222C55.082 32.2538 61.45 36.8834 61.45 36.8834L62.3347 34.9282C59.9603 32.1735 56.292 28.0012 54.1833 25.6026C51.725 25.463 51.5116 26.9783 53.1657 29.4222Z" fill="#324054"/>
<path d="M60.3015 35.5717C60.7876 34.3811 62.9487 29.5874 63.4873 28.5888C63.5222 28.519 63.5782 28.526 63.5467 28.5888C62.6093 30.9727 61.5423 33.3038 60.3505 35.5717C60.3365 35.6136 60.2805 35.5996 60.3015 35.5717Z" fill="#324054"/>
<path d="M76.8867 28.3457C79.992 27.9406 83.8352 27.2459 87.0909 28.625C87.4565 28.7682 87.7633 29.0301 87.9616 29.3686C89.4303 29.9622 89.5912 30.8315 89.5912 30.8315C90.7906 31.8021 90.8326 32.7169 90.8326 32.7169C90.8326 32.7169 92.5531 33.4152 92.2908 34.5394C92.0041 35.7823 89.6471 34.5394 87.9336 34.6407C83.9995 34.885 78.4918 36.327 77.3553 36.5085L76.8867 28.3457Z" fill="#FFF5EA"/>
<path d="M83.6318 32.0038C84.7821 31.9252 85.9365 31.9252 87.0868 32.0038C88.3395 32.1607 89.5786 32.4116 90.7936 32.7544C90.8015 32.7572 90.8101 32.7567 90.8177 32.7531C90.8252 32.7495 90.831 32.7431 90.8338 32.7352C90.8366 32.7273 90.8361 32.7187 90.8325 32.7112C90.8289 32.7036 90.8224 32.6978 90.8146 32.6951C88.5321 31.801 86.0475 31.5498 83.6318 31.9688C83.5759 31.9619 83.5759 32.0073 83.6318 32.0038Z" fill="#324054"/>
<path d="M82.9016 28.3758C84.8214 28.4735 86.0209 28.7808 87.9512 29.3604V29.3394C85.825 28.4526 84.9543 28.3688 82.8911 28.292C82.8246 28.3199 82.8281 28.3758 82.9016 28.3758Z" fill="#324054"/>
<path d="M83.2129 35.2334C82.7128 35.4673 82.8352 35.7292 83.7899 35.9491C84.7446 36.1691 88.7136 36.2354 88.5737 37.618C88.4338 39.0006 82.8352 38.8261 81.2721 38.3373C79.7089 37.8485 77.3555 36.5078 77.3555 36.5078C78.464 36.3227 81.0657 35.6209 83.2129 35.2334Z" fill="#FFF5EA"/>
<path d="M57.273 33.8257C57.2485 34.4227 57.1926 35.0302 57.1087 35.6342C57.1087 35.6098 57.1087 35.5889 57.1331 35.5679C57.2485 35.2537 57.3639 34.9325 57.5038 34.6287C57.5038 34.6287 57.5388 34.6287 57.5353 34.6287C57.4681 34.9616 57.3673 35.2867 57.2346 35.5993C57.1716 35.7495 57.1122 35.8961 57.0457 36.0427C57.0038 36.3116 56.9548 36.5769 56.9023 36.8423C56.7974 37.3415 56.3253 39.4643 56.2029 39.8239C56.182 39.8972 56.091 39.8798 56.098 39.796C56.1225 39.405 56.5177 37.1949 56.5981 36.6921C56.7543 35.7214 56.9633 34.7598 57.2241 33.8117C57.2415 33.7943 57.2765 33.8082 57.273 33.8257Z" fill="#324054"/>
<path d="M53.6357 49.7014C52.702 50.1797 51.499 50.9234 46.0788 49.8585C45.7291 49.7887 45.4003 49.7049 45.0576 49.6036C39.9766 48.0814 33.8674 42.1146 33.5352 41.6921C33.5352 41.6921 41.6096 28.6238 51.9362 24.5144C53.2125 24.0082 55.3247 24.9858 56.4822 26.2043C56.8983 26.6407 57.8041 29.8493 57.4579 32.4469C57.1117 35.0445 54.5659 49.2231 53.6357 49.7014Z" fill="#F7F7F7"/>
<path d="M52.908 32.3291C52.9471 32.8813 52.8695 33.4356 52.6801 33.9561C52.6357 33.4037 52.7135 32.8483 52.908 32.3291Z" fill="white"/>
<path d="M49.3894 41.2275C49.4117 41.5024 49.4023 41.7788 49.3613 42.0515C49.3276 42.3262 49.2605 42.5959 49.1615 42.8545C49.1373 42.5786 49.1467 42.3008 49.1895 42.0271C49.2254 41.7539 49.2924 41.4856 49.3894 41.2275Z" fill="white"/>
<path d="M43.4039 34.5C43.4434 35.0534 43.3658 35.6089 43.176 36.1305C43.132 35.577 43.2098 35.0205 43.4039 34.5Z" fill="white"/>
<path d="M55.2136 40.7744C55.236 41.0504 55.2266 41.328 55.1855 41.6019C55.1518 41.8766 55.0847 42.1463 54.9857 42.4049C54.9615 42.129 54.971 41.8511 55.0137 41.5774C55.0492 41.303 55.1162 41.0336 55.2136 40.7744Z" fill="white"/>
<path d="M47.5312 33.3479C47.8064 33.3246 48.0833 33.3328 48.3565 33.3724C48.6318 33.4072 48.9019 33.4752 49.1608 33.5749C48.6077 33.6146 48.0524 33.5372 47.5312 33.3479Z" fill="white"/>
<path d="M40.7383 39.7745C41.2914 39.7355 41.8465 39.8128 42.3679 40.0014C41.8146 40.0457 41.2583 39.9682 40.7383 39.7745Z" fill="white"/>
<path d="M48.7422 46.7347C49.2953 46.6951 49.8506 46.7724 50.3718 46.9617C49.8185 47.0052 49.2624 46.9278 48.7422 46.7347Z" fill="white"/>
<path d="M38.6445 44.2051C39.1976 44.1662 39.7528 44.2435 40.2741 44.4321C39.7208 44.4756 39.1647 44.3982 38.6445 44.2051Z" fill="white"/>
<path d="M52.8555 26.0703C53.4086 26.0314 53.9637 26.1087 54.485 26.2973C53.9319 26.3362 53.3768 26.2589 52.8555 26.0703Z" fill="white"/>
<path d="M50.879 28.2998C50.7022 28.512 50.5002 28.7019 50.2775 28.8654C50.0608 29.0327 49.8263 29.1756 49.5781 29.2914C49.7537 29.0805 49.9532 28.8907 50.1726 28.7258C50.3914 28.5578 50.6283 28.4149 50.879 28.2998Z" fill="white"/>
<path d="M40.113 34.6279C39.934 34.8383 39.731 35.0269 39.508 35.19C39.2935 35.3605 39.0586 35.5036 38.8086 35.616C38.9885 35.4066 39.1914 35.218 39.4136 35.0539C39.6286 34.8842 39.8634 34.7411 40.113 34.6279Z" fill="white"/>
<path d="M53.5583 37.4854C53.3794 37.6968 53.1763 37.8866 52.9533 38.051C52.7383 38.2207 52.5034 38.3637 52.2539 38.4769C52.4328 38.2655 52.6358 38.0757 52.8589 37.9113C53.0751 37.7433 53.3097 37.6004 53.5583 37.4854Z" fill="white"/>
<path d="M44.8512 42.959C44.6724 43.1704 44.4693 43.3602 44.2463 43.5246C44.0309 43.6938 43.7961 43.8368 43.5469 43.9505C43.7258 43.7391 43.9288 43.5493 44.1519 43.3849C44.368 43.2169 44.6027 43.074 44.8512 42.959Z" fill="white"/>
<path d="M56.8942 30.0068C56.7153 30.2183 56.5123 30.4081 56.2892 30.5724C56.0726 30.7397 55.838 30.8826 55.5898 30.9984C55.7687 30.787 55.9718 30.5971 56.1948 30.4328C56.4102 30.2636 56.645 30.1206 56.8942 30.0068Z" fill="white"/>
<path d="M56.7119 36.3511C56.5001 36.1725 56.31 35.9698 56.1454 35.7471C55.9752 35.5326 55.8319 35.2981 55.7188 35.0488C55.9313 35.2253 56.1215 35.427 56.2853 35.6493C56.4523 35.8673 56.5954 36.1026 56.7119 36.3511Z" fill="white"/>
<path d="M37.3056 40.7212C37.0939 40.5426 36.9037 40.3399 36.7391 40.1172C36.5708 39.9014 36.4277 39.6671 36.3125 39.4189C36.5243 39.5976 36.7144 39.8003 36.879 40.023C37.0485 40.238 37.1917 40.4724 37.3056 40.7212Z" fill="white"/>
<path d="M54.3525 45.9209C54.14 45.7444 53.9498 45.5427 53.786 45.3204C53.6184 45.104 53.4754 44.8698 53.3594 44.6221C53.5711 44.8007 53.7613 45.0034 53.9259 45.2261C54.0946 45.4403 54.2378 45.6735 54.3525 45.9209Z" fill="white"/>
<path d="M45.8095 31.0996C45.5978 30.9222 45.4077 30.7207 45.243 30.4991C45.0762 30.2822 44.9331 30.0481 44.8164 29.8008C45.0289 29.9773 45.2192 30.1789 45.3829 30.4013C45.5498 30.6181 45.6928 30.8522 45.8095 31.0996Z" fill="white"/>
<path d="M45.9619 48.8804C45.7501 48.7018 45.56 48.4991 45.3954 48.2764C45.2276 48.0602 45.0845 47.826 44.9688 47.5781C45.1813 47.7546 45.3715 47.9563 45.5353 48.1786C45.7035 48.3958 45.8467 48.6312 45.9619 48.8804Z" fill="white"/>
<path d="M47.4115 38.3931C47.2017 38.2135 47.0129 38.0109 46.8485 37.7891C46.6778 37.575 46.5345 37.3404 46.4219 37.0908C46.6326 37.2695 46.8215 37.4722 46.9849 37.6948C47.1549 37.9095 47.2981 38.144 47.4115 38.3931Z" fill="white"/>
<path d="M54.5925 29.6845C53.2742 29.4402 52.0363 26.7203 51.8789 24.8909C51.8789 24.7652 52.4944 23.7701 53.1973 22.5237C53.6239 21.766 54.075 20.9107 54.4352 20.1006C54.5086 19.9366 54.9387 20.4917 54.9387 20.4917L55.8759 21.19L58.9707 23.5606C58.2338 24.4436 57.6078 25.4132 57.1069 26.448C57.0574 26.5602 57.0199 26.6772 56.995 26.7972C56.9936 26.8169 56.9936 26.8367 56.995 26.8565C56.8026 27.5478 55.8619 29.9185 54.5925 29.6845Z" fill="#FFF5EA"/>
<path d="M56.9925 26.8163C56.9911 26.8361 56.9911 26.8559 56.9925 26.8757C56.8087 26.8219 56.6298 26.753 56.4574 26.6697C53.0689 25.0846 54.5621 20.5527 54.5621 20.5527L55.8909 21.2091L58.9857 23.5798C58.2488 24.4627 57.6228 25.4324 57.1218 26.4672C57.0664 26.5786 57.023 26.6957 56.9925 26.8163Z" fill="#324054"/>
<path d="M62.5273 13.9141C62.5273 13.9141 64.0765 14.8951 64.0835 16.6408C64.0905 18.3865 63.3841 20.0938 63.2372 20.1567C63.0904 20.2195 62.5273 13.9141 62.5273 13.9141Z" fill="#324054"/>
<path d="M54.8406 14.8212C53.9104 16.6542 53.9593 22.4325 55.1203 23.9198C56.8059 26.0775 60.051 26.8212 62.0128 24.6879C63.9117 22.621 63.7159 15.0935 62.3625 13.69C60.3937 11.6161 56.2184 12.1084 54.8406 14.8212Z" fill="#FFF5EA"/>
<path d="M59.7771 19.4482C59.7771 19.4482 59.7457 19.4692 59.7492 19.4832C59.7702 19.8777 59.7282 20.3316 59.375 20.4712C59.375 20.4712 59.375 20.4957 59.375 20.4922C59.8121 20.4223 59.8611 19.8183 59.7771 19.4482Z" fill="#324054"/>
<path d="M59.416 19.0456C58.7795 19.0107 58.7585 20.2816 59.3495 20.313C59.9405 20.3444 59.9475 19.0736 59.416 19.0456Z" fill="#324054"/>
<path d="M61.9338 19.4346C61.9338 19.4346 61.9653 19.4346 61.9653 19.4695C61.9443 19.864 61.9897 20.3179 62.3464 20.4541C62.3464 20.4541 62.3464 20.4785 62.3464 20.475C61.9058 20.4087 61.8533 19.8047 61.9338 19.4346Z" fill="#324054"/>
<path d="M62.296 19.0302C62.929 18.9917 62.9605 20.2626 62.373 20.2975C61.7855 20.3324 61.7645 19.0616 62.296 19.0302Z" fill="#324054"/>
<path d="M59.0182 18.0792C59.1853 18.0317 59.3499 17.9758 59.5113 17.9116C59.695 17.8784 59.8623 17.785 59.9869 17.6462C60.0171 17.5954 60.0297 17.5361 60.0228 17.4774C60.0158 17.4187 59.9897 17.3639 59.9484 17.3215C59.8538 17.2497 59.7417 17.2044 59.6236 17.1903C59.5056 17.1762 59.3859 17.1938 59.277 17.2412C59.041 17.3043 58.8368 17.4523 58.7035 17.6567C58.6769 17.7053 58.6648 17.7606 58.6687 17.8158C58.6725 17.8711 58.6922 17.9241 58.7253 17.9686C58.7584 18.0131 58.8036 18.0471 58.8556 18.0667C58.9075 18.0863 58.9639 18.0906 59.0182 18.0792Z" fill="#324054"/>
<path d="M62.7277 18.6429C62.5576 18.6049 62.3895 18.5583 62.2242 18.5032C62.0399 18.4789 61.8689 18.3941 61.7381 18.2623C61.7044 18.2138 61.6881 18.1553 61.692 18.0963C61.6958 18.0374 61.7194 17.9814 61.7591 17.9376C61.8493 17.8606 61.9586 17.8093 62.0755 17.789C62.1924 17.7688 62.3126 17.7803 62.4235 17.8224C62.6627 17.8719 62.8748 18.0089 63.018 18.2065C63.048 18.2532 63.0637 18.3077 63.0632 18.3632C63.0627 18.4187 63.0461 18.4729 63.0153 18.5191C62.9846 18.5654 62.941 18.6017 62.89 18.6236C62.8389 18.6456 62.7825 18.6523 62.7277 18.6429Z" fill="#324054"/>
<path d="M58.8821 23.1805C58.9765 23.2748 59.0674 23.4004 59.2108 23.4144C59.3578 23.4143 59.5031 23.3834 59.6374 23.3236C59.6374 23.3236 59.6619 23.3236 59.6374 23.3446C59.5801 23.4213 59.503 23.481 59.4143 23.5173C59.3255 23.5536 59.2286 23.5651 59.1339 23.5506C59.054 23.5288 58.9822 23.4842 58.9275 23.4221C58.8728 23.36 58.8376 23.2833 58.8261 23.2014C58.8233 23.194 58.8236 23.1858 58.8269 23.1786C58.8302 23.1714 58.8362 23.1658 58.8436 23.163C58.851 23.1603 58.8592 23.1605 58.8665 23.1638C58.8737 23.1671 58.8793 23.1731 58.8821 23.1805Z" fill="#324054"/>
<path d="M61.1707 21.4982C61.1707 21.4982 61.1882 22.0847 61.1707 22.3605C60.6334 22.3036 60.0907 22.3224 59.5586 22.4164C59.4327 22.4443 59.4467 22.3431 59.5901 22.2767C60.0187 22.0812 60.496 22.0179 60.9609 22.0952C60.9889 22.0219 60.9154 21.1874 60.9609 21.1909C61.1724 21.2324 61.3772 21.3029 61.5694 21.4004C61.5694 20.1714 61.3735 18.9564 61.391 17.7275C61.391 17.6856 61.4575 17.6786 61.4645 17.7275C61.713 19.0275 61.8301 20.3493 61.8142 21.6727C61.8177 21.8229 61.2756 21.554 61.1707 21.4982Z" fill="#324054"/>
<path d="M60.3819 22.1506C60.2425 22.5167 59.9838 22.8254 59.6475 23.027C59.1195 23.24 58.9481 22.7616 59.4797 22.3287C59.7584 22.188 60.0705 22.1264 60.3819 22.1506Z" fill="#324054"/>
<path d="M59.834 22.9201C59.7782 22.9655 59.7157 23.002 59.6487 23.0284C59.1626 23.2239 58.9703 22.8363 59.3619 22.4453C59.6277 22.4663 59.9319 22.564 59.834 22.9201Z" fill="#FF99BA"/>
<path d="M54.574 19.7627C55.2139 19.9583 55.9483 18.038 56.1581 17.3188C56.34 16.6694 56.5498 14.6059 56.5812 14.4628C56.6127 14.3196 59.3788 16.2888 60.9804 15.8209C62.582 15.3531 63.6696 13.9042 63.6941 13.2303C63.7185 12.5565 61.7148 10.8457 59.9838 10.7584C58.2528 10.6711 55.9063 12.8533 55.9063 12.8533C56.1898 12.5321 56.447 12.1889 56.6757 11.8268C56.6477 11.75 55.5287 12.1969 55.3223 12.9929C55.3223 12.9929 55.5461 11.9909 55.4622 11.9734C55.3783 11.956 54.5075 12.8114 54.7034 13.4608C54.7034 13.4608 53.6963 14.3301 53.6053 15.2833C53.5144 16.2364 53.8221 19.5323 54.574 19.7627Z" fill="#324054"/>
<path d="M62.127 15.4572C61.6507 15.7151 61.1377 15.8987 60.6058 16.0019C60.0088 16.055 59.4079 15.959 58.8574 15.7226C58.3027 15.5086 57.7875 15.2042 57.3327 14.8218C56.9305 14.4936 56.5703 14.0921 56.1402 13.7988C56.0318 13.722 55.9094 13.8791 55.9759 13.9769C56.6935 14.9889 57.7186 15.743 58.8993 16.1276C59.4477 16.3061 60.0331 16.3394 60.5982 16.2244C61.1634 16.1093 61.6889 15.8498 62.1235 15.4712C62.1235 15.4712 62.134 15.4572 62.127 15.4572Z" fill="#324054"/>
<path d="M55.2432 19.5919C55.2432 19.5919 54.2501 17.5809 53.3549 17.9056C52.4597 18.2303 53.0052 21.0129 53.9249 21.5227C54.0375 21.5955 54.1638 21.6448 54.296 21.6677C54.4282 21.6905 54.5636 21.6865 54.6943 21.6559C54.8249 21.6253 54.948 21.5686 55.0561 21.4893C55.1643 21.41 55.2553 21.3097 55.3237 21.1945L55.2432 19.5919Z" fill="#FFF5EA"/>
<path d="M53.5328 18.6992C53.5328 18.6992 53.5118 18.6992 53.5328 18.7272C54.1692 19.1042 54.428 19.7746 54.5819 20.4729C54.5529 20.3989 54.5082 20.3322 54.4508 20.2772C54.3935 20.2222 54.3248 20.1803 54.2497 20.1544C54.1745 20.1285 54.0946 20.1192 54.0155 20.1272C53.9364 20.1352 53.86 20.1602 53.7915 20.2005C53.7706 20.2005 53.7915 20.2389 53.7915 20.2389C53.9166 20.2195 54.0447 20.2393 54.158 20.2956C54.2714 20.3519 54.3645 20.4418 54.4245 20.5532C54.5246 20.7396 54.6043 20.9362 54.6623 21.1397C54.6833 21.206 54.7987 21.1886 54.7882 21.1153C54.9385 20.2459 54.449 18.9297 53.5328 18.6992Z" fill="#324054"/>
<path d="M48.6853 28.5726C47.9859 32.5283 52.2801 45.855 55.0322 48.3444C59.1272 52.0453 66.6981 54.4788 69.4432 55.2713C70.6392 55.6205 73.9473 47.2167 72.7373 46.6615C70.1461 45.4849 62.0961 42.9711 61.3303 42.3427C60.5644 41.7142 55.9484 35.0561 53.8922 31.2225C51.1401 26.0622 49.0315 26.572 48.6853 28.5726Z" fill="#FFF5EA"/>
<path d="M70.6988 45.9209C70.6988 45.9209 74.2727 46.8322 76.5772 47.5339C77.8641 47.9285 80.0112 48.7978 80.826 49.517C82.043 50.5959 86.4421 55.8749 85.1832 56.9677C84.0432 57.9593 80.84 52.9421 80.84 52.9421C80.84 52.9421 84.5188 57.7183 82.9382 58.6575C81.3576 59.5967 78.4656 53.4484 78.4656 53.4484C78.4656 53.4484 82.1339 58.4411 80.3399 59.1498C78.9831 59.684 76.0737 54.2619 76.0737 54.2619C76.0737 54.2619 79.1999 58.5737 77.8221 59.1847C76.3045 59.8621 73.3076 55.023 73.3076 55.023C69.5588 55.9901 67.3627 54.9182 65.9185 53.9756C65.5793 53.7451 70.6988 45.9209 70.6988 45.9209Z" fill="#FFF5EA"/>
<path d="M79.6723 51.205C80.1269 51.7497 80.5885 52.3013 80.9906 52.8844C81.3928 53.4674 81.774 54.068 82.1201 54.6859C82.5892 55.4852 82.9647 56.3357 83.2392 57.2207C82.6377 55.6845 81.2284 53.5722 80.8263 52.9891C80.4241 52.406 80.05 51.802 79.6513 51.219C79.6408 51.205 79.6618 51.191 79.6723 51.205Z" fill="#324054"/>
<path d="M77.5363 52.6196C78.3127 53.2341 79.9388 55.5174 80.5647 57.0502C80.5927 57.113 80.5647 57.1095 80.5192 57.0502C80.0297 56.2925 78.0434 53.3598 77.5189 52.63C77.5084 52.6196 77.5259 52.6091 77.5363 52.6196Z" fill="#324054"/>
<path d="M75.4833 53.513C76.4479 54.5232 77.21 55.7083 77.7284 57.0044C77.7529 57.0673 77.7039 57.0568 77.6654 57.0044C76.9416 55.8278 76.3821 54.9096 75.4449 53.5444C75.4309 53.513 75.4624 53.4816 75.4833 53.513Z" fill="#324054"/>
<path d="M52.5891 28.8608C49.3964 24.3534 47.4871 26.0223 48.127 30.9173C48.7285 35.4945 50.3336 40.9481 50.3336 40.9481L58.3766 37.0517C58.3766 37.0517 54.6209 31.7482 52.5891 28.8608Z" fill="#F7F7F7"/>
<path d="M54.5284 30.6357C54.6346 30.8903 54.7111 31.1563 54.7563 31.4283C54.8055 31.7012 54.8231 31.9788 54.8089 32.2558C54.7037 31.9998 54.6284 31.7327 54.5845 31.4597C54.5323 31.1883 54.5135 30.9116 54.5284 30.6357Z" fill="white"/>
<path d="M49.7617 33.3749C50.275 33.1664 50.8273 33.0711 51.3808 33.0955C51.1257 33.2002 50.8593 33.2752 50.587 33.319C50.3152 33.3708 50.0381 33.3896 49.7617 33.3749Z" fill="white"/>
<path d="M49.9672 26.3662C49.7506 26.8765 49.4276 27.3347 49.0195 27.7104C49.2361 27.2001 49.5592 26.7419 49.9672 26.3662Z" fill="white"/>
<path d="M56.7836 35.4805C56.6775 35.7358 56.5425 35.9783 56.3815 36.2032C56.2246 36.431 56.0415 36.6395 55.8359 36.8247C56.0525 36.3144 56.3756 35.8561 56.7836 35.4805Z" fill="white"/>
<path d="M51.1901 38.2137C50.9337 38.109 50.6907 37.9742 50.4662 37.8122C50.238 37.6558 50.029 37.473 49.8438 37.2676C50.3548 37.4838 50.8138 37.8064 51.1901 38.2137Z" fill="white"/>
<path d="M53.6378 30.2188C54.0679 30.8088 54.512 31.3849 54.9526 31.9645C54.8407 31.6712 54.7428 31.3744 54.6589 31.0741H54.6799C54.7673 31.3046 54.8687 31.5315 54.9526 31.7724L55.0785 32.1216C55.0894 32.1454 55.0987 32.1699 55.1065 32.1949C55.4562 32.6453 55.8059 33.0957 56.1276 33.5565C56.5228 34.1082 56.9039 34.6668 57.2886 35.2254C57.6733 35.784 58.0614 36.4788 58.4776 37.041C58.516 37.0898 57.7782 37.3901 57.6977 37.4285C57.6173 37.4669 57.5753 37.4006 57.6523 37.3761C57.7292 37.3517 58.3167 36.9921 58.3237 36.9851C57.939 36.4195 57.4949 35.8993 57.0928 35.3511C56.6906 34.803 56.292 34.2548 55.9038 33.6997C55.117 32.5685 54.3966 31.3954 53.6133 30.2606L53.6378 30.2188Z" fill="#324054"/>
<path d="M48.3134 34.1581C48.4357 34.3955 48.5686 34.6294 48.663 34.8738L48.7959 35.1776C48.6106 34.3082 48.4462 33.4319 48.2539 32.5625C48.6246 33.9591 48.9988 35.387 49.3415 36.8046C49.6667 38.1592 50.0618 39.5278 50.2507 40.9104C50.4945 40.8036 50.7473 40.7184 51.006 40.6556C50.7463 40.8234 50.4668 40.9582 50.1737 41.0571C49.7522 39.6511 49.4021 38.2248 49.1247 36.7836C49.0372 36.3926 48.9568 36.0015 48.8729 35.6105C48.7819 35.3731 48.6735 35.1461 48.5651 34.9122C48.4567 34.6783 48.3588 34.4164 48.2609 34.1685C48.2819 34.1546 48.3064 34.1406 48.3134 34.1581Z" fill="#324054"/>
<path d="M50.4514 39.6007C51.5704 38.9722 56.2459 36.5562 57.2915 36.1093C57.3649 36.0779 57.4034 36.1093 57.3299 36.1582C55.1106 37.4457 52.8225 38.6112 50.4759 39.6496C50.4479 39.6566 50.4199 39.6182 50.4514 39.6007Z" fill="#324054"/>
<path d="M178.588 131.389H72.043L87.4471 44.1562H193.992L178.588 131.389Z" fill="#F7F7F7"/>
<path d="M123.916 35.1201H89.0473L87.4492 44.1559H124.765L123.916 35.1201Z" fill="#F7F7F7"/>
<g opacity="0.1">
<path d="M178.588 131.388H72.043L87.4471 44.1553H193.992L178.588 131.388Z" fill="#324054"/>
<path d="M123.912 35.1191H89.0434L87.4453 44.1549H124.761L123.912 35.1191Z" fill="#324054"/>
</g>
<path d="M85.2847 38.8071C85.0509 37.8079 85.0509 36.7687 85.2847 35.7695C85.5185 36.7687 85.5185 37.8079 85.2847 38.8071Z" fill="#324054"/>
<path d="M82.1848 39.7017C81.8288 39.3331 81.522 38.92 81.2721 38.4727C81.01 38.0348 80.8044 37.5656 80.6602 37.0762C81.0173 37.4426 81.3242 37.8547 81.5729 38.3017C81.8344 38.7411 82.0399 39.2114 82.1848 39.7017Z" fill="#324054"/>
<path d="M79.9457 42.0227C78.9631 41.7244 78.0622 41.2048 77.3125 40.5039C77.8027 40.6462 78.2728 40.8503 78.7113 41.1114C79.1593 41.3625 79.574 41.6686 79.9457 42.0227Z" fill="#324054"/>
<path d="M79.1635 45.1512C78.1627 45.3839 77.1218 45.3839 76.1211 45.1512C77.1218 44.9184 78.1627 44.9184 79.1635 45.1512Z" fill="#324054"/>
<path d="M80.0711 48.2441C79.7003 48.5978 79.2868 48.9039 78.8402 49.1554C78.4017 49.4165 77.9317 49.6206 77.4414 49.7629C77.8106 49.4074 78.2244 49.1011 78.6723 48.8516C79.1102 48.5893 79.5804 48.3851 80.0711 48.2441Z" fill="#324054"/>
<path d="M82.3962 50.4756C82.0985 51.4581 81.5779 52.359 80.875 53.1081C81.0174 52.618 81.2231 52.1486 81.487 51.7115C81.7362 51.2627 82.0418 50.8474 82.3962 50.4756Z" fill="#324054"/>
<path d="M85.5278 51.2471C85.65 51.744 85.7089 52.2543 85.7031 52.7658C85.7107 53.2775 85.6517 53.788 85.5278 54.2846C85.4022 53.7883 85.3432 53.2776 85.3525 52.7658C85.3467 52.2543 85.4056 51.744 85.5278 51.2471Z" fill="#324054"/>
<path d="M88.625 50.3712C88.9811 50.7399 89.2879 51.153 89.5377 51.6002C89.8005 52.0374 90.005 52.5068 90.1462 52.9968C89.4432 52.2476 88.9227 51.3468 88.625 50.3643V50.3712Z" fill="#324054"/>
<path d="M90.8594 48.0303C91.3501 48.1712 91.8203 48.3754 92.2582 48.6378C92.7061 48.8872 93.1199 49.1935 93.4891 49.549C92.9984 49.4081 92.5281 49.2039 92.0903 48.9415C91.6423 48.6921 91.2286 48.3858 90.8594 48.0303Z" fill="#324054"/>
<path d="M91.6328 44.9021C92.6347 44.6694 93.6768 44.6694 94.6787 44.9021C93.6768 45.1348 92.6347 45.1348 91.6328 44.9021Z" fill="#324054"/>
<path d="M90.7375 41.8098C91.1077 41.4564 91.5213 41.1514 91.9684 40.902C92.4054 40.6372 92.8758 40.4317 93.3672 40.291C92.6169 40.9928 91.7146 41.5125 90.7305 41.8098H90.7375Z" fill="#324054"/>
<path d="M88.4141 39.5796C88.558 39.0907 88.7624 38.6216 89.0225 38.1831C89.2724 37.7358 89.5792 37.3227 89.9352 36.9541C89.7941 37.444 89.5895 37.9135 89.3268 38.3507C89.0769 38.7979 88.7701 39.211 88.4141 39.5796Z" fill="#324054"/>
<path d="M178.432 131.388H71.6589L56.4961 47.3223H163.272L178.432 131.388Z" fill="#F7F7F7"/>
<path d="M93.4962 98.7127C95.9471 98.7127 97.9339 96.7291 97.9339 94.2822C97.9339 91.8352 95.9471 89.8516 93.4962 89.8516C91.0454 89.8516 89.0586 91.8352 89.0586 94.2822C89.0586 96.7291 91.0454 98.7127 93.4962 98.7127Z" fill="#324054"/>
<path d="M128.578 98.7127C131.029 98.7127 133.016 96.7291 133.016 94.2822C133.016 91.8352 131.029 89.8516 128.578 89.8516C126.127 89.8516 124.141 91.8352 124.141 94.2822C124.141 96.7291 126.127 98.7127 128.578 98.7127Z" fill="#324054"/>
<path d="M117.413 99.422L117.169 98.9576C117.148 98.9157 114.854 94.6841 110.241 94.6841C106.045 94.6841 104.996 98.6678 104.968 98.8389L104.842 99.3452L103.824 99.1008L103.947 98.591C103.947 98.5421 105.199 93.6367 110.241 93.6367C115.487 93.6367 117.994 98.2733 118.099 98.4723L118.344 98.9332L117.413 99.422Z" fill="#324054"/>
<path d="M171.382 93.9424L171.309 93.5932C171.536 93.5443 171.76 93.492 171.984 93.4326L172.071 93.7818C171.833 93.8411 171.613 93.8935 171.382 93.9424Z" fill="#324054"/>
<path d="M173.423 93.3794L173.311 93.0512C173.748 92.9011 174.186 92.737 174.609 92.5589L174.745 92.8802C174.315 93.0617 173.871 93.2293 173.423 93.3794ZM176.028 92.2657L175.871 91.9584C176.28 91.7455 176.689 91.515 177.078 91.2601L177.259 91.5569C176.861 91.8327 176.445 92.0667 176.028 92.2657ZM178.434 90.7888L178.228 90.506C178.606 90.2302 178.969 89.9404 179.312 89.6436L179.543 89.9055C179.176 90.2232 178.826 90.52 178.431 90.8028L178.434 90.7888ZM180.568 88.9314L180.312 88.6905C180.634 88.3413 180.938 87.9922 181.218 87.6431L181.494 87.856C181.204 88.2401 180.893 88.5997 180.575 88.9453L180.568 88.9314ZM182.299 86.6969L182.001 86.5118C182.243 86.1218 182.458 85.7159 182.645 85.2968L182.966 85.44C182.769 85.8769 182.545 86.3013 182.295 86.7108L182.299 86.6969ZM183.456 84.1063L183.106 84.0085C183.234 83.5705 183.329 83.1235 183.39 82.6713L183.739 82.7167C183.681 83.1914 183.585 83.6608 183.453 84.1202L183.456 84.1063ZM183.844 81.3131H183.494V81.2119C183.494 80.7894 183.47 80.36 183.428 79.9375L183.778 79.9026C183.824 80.3375 183.847 80.7746 183.848 81.2119L183.844 81.3131ZM183.215 78.5794C183.121 78.1292 183.004 77.6841 182.865 77.2457L183.215 77.1409C183.358 77.5948 183.48 78.0557 183.564 78.5061L183.215 78.5794ZM182.386 75.9503C182.218 75.5384 182.036 75.1159 181.812 74.69L182.127 74.5328C182.34 74.9658 182.536 75.3987 182.708 75.8177L182.386 75.9503ZM181.162 73.461C180.945 73.0804 180.707 72.6789 180.463 72.2669L180.76 72.0819C181.015 72.4973 181.256 72.9023 181.459 73.2899L181.162 73.461ZM179.7 71.0903C179.445 70.7063 179.186 70.3187 178.92 69.9312L179.211 69.7356C179.476 70.1232 179.735 70.5107 179.991 70.9018L179.7 71.0903ZM178.127 68.779C177.864 68.3949 177.599 68.0074 177.34 67.6233L177.63 67.4278C177.889 67.8119 178.151 68.1994 178.413 68.58L178.127 68.779ZM176.564 66.4537C176.308 66.0627 176.06 65.6647 175.815 65.2667L176.112 65.0851C176.357 65.4831 176.605 65.8742 176.857 66.2652L176.564 66.4537ZM175.105 64.0551C174.867 63.6327 174.647 63.2137 174.448 62.8122L174.763 62.6551C174.958 63.0531 175.179 63.4651 175.41 63.8841L175.105 64.0551ZM173.864 61.5413C173.679 61.1049 173.514 60.6615 173.36 60.2286L173.71 60.1168C173.857 60.5393 174.021 60.9757 174.203 61.4052L173.864 61.5413ZM172.955 58.8774C172.839 58.4235 172.738 57.9591 172.661 57.4808L173.011 57.425C173.088 57.8719 173.182 58.3257 173.297 58.7726L172.955 58.8774ZM172.486 56.0843C172.451 55.6548 172.434 55.2219 172.434 54.789V54.6737H172.783V54.7855C172.783 55.2079 172.783 55.6339 172.836 56.0528L172.486 56.0843ZM172.836 53.2911L172.486 53.2562C172.486 53.162 172.504 53.0642 172.514 52.9629C172.556 52.5894 172.608 52.2158 172.671 51.8597L173.021 51.919C172.962 52.2682 172.909 52.6348 172.867 53.0014C172.881 53.1096 172.881 53.2039 172.853 53.3016L172.836 53.2911ZM173.322 50.5748L172.972 50.4806C173.102 50.0197 173.252 49.5693 173.42 49.1399L173.745 49.2656C173.586 49.6978 173.451 50.1384 173.339 50.5853L173.322 50.5748ZM190.747 48.5393C190.551 48.5393 190.349 48.5114 190.149 48.4835C189.876 48.4451 189.604 48.3997 189.334 48.3473L189.404 47.9982C189.663 48.0471 189.932 48.0924 190.198 48.1308C190.387 48.1553 190.579 48.1727 190.765 48.1832L190.747 48.5393ZM192.184 48.4311L192.111 48.082C192.55 47.9915 192.971 47.8287 193.356 47.6002L193.538 47.8969C193.126 48.1514 192.674 48.3355 192.202 48.4416L192.184 48.4311ZM174.329 48.0156L174.018 47.8515C174.24 47.4351 174.487 47.0318 174.756 46.6435L175.042 46.8425C174.787 47.2227 174.554 47.618 174.346 48.0261L174.329 48.0156ZM187.967 47.9947C187.516 47.8517 187.072 47.6851 186.638 47.4954L186.782 47.1742C187.202 47.3607 187.633 47.5227 188.072 47.6595L187.967 47.9947ZM194.611 46.9054L194.321 46.7098C194.57 46.3492 194.717 45.9283 194.748 45.4913L195.097 45.5158C195.068 46.0167 194.903 46.5003 194.622 46.9158L194.611 46.9054ZM185.379 46.853C184.97 46.6155 184.574 46.3556 184.194 46.0744L184.4 45.7951C184.77 46.0678 185.156 46.3195 185.554 46.5492L185.379 46.853ZM175.903 45.7637L175.644 45.5298C175.96 45.1782 176.298 44.8459 176.654 44.5347L176.885 44.7966C176.542 45.103 176.218 45.4294 175.913 45.7742L175.903 45.7637ZM183.103 45.1736C182.755 44.8533 182.424 44.5141 182.113 44.1576L182.375 43.9272C182.678 44.2735 182.999 44.6033 183.337 44.9153L183.103 45.1736ZM194.485 44.2275C194.285 43.8285 194.008 43.4726 193.671 43.18L193.901 42.9182C194.273 43.2391 194.578 43.6292 194.8 44.0669L194.485 44.2275ZM177.973 43.9516L177.773 43.6653C178.165 43.3987 178.57 43.1528 178.987 42.9287L179.151 43.2359C178.75 43.4576 178.36 43.6999 177.983 43.9621L177.973 43.9516ZM181.239 43.0439C181.106 42.8553 180.977 42.6633 180.854 42.4643L180.4 42.6424L180.267 42.3212L180.669 42.1606C180.606 42.0558 180.543 41.9511 180.484 41.8463L180.788 41.6752C180.858 41.7974 180.928 41.9196 181.001 42.0244C181.197 41.9546 181.396 41.8882 181.599 41.8254L181.701 42.1745C181.529 42.2269 181.351 42.2827 181.19 42.3421C181.298 42.5132 181.41 42.6912 181.54 42.8414L181.239 43.0439ZM192.545 42.4434C192.206 42.275 191.856 42.1326 191.496 42.0174L191.265 41.9441L191.366 41.5949L191.604 41.6718C191.979 41.791 192.343 41.9392 192.695 42.1152L192.545 42.4434ZM183.04 41.8184L182.966 41.4692C183.418 41.368 183.886 41.2842 184.365 41.2179L184.418 41.567C183.956 41.6403 183.498 41.7276 183.05 41.8289L183.04 41.8184ZM189.929 41.6299C189.492 41.553 189.03 41.4937 188.558 41.4518L188.586 41.1027C189.072 41.1446 189.544 41.2039 189.985 41.2842L189.929 41.6299ZM185.785 41.4274L185.761 41.0782C186.177 41.0538 186.593 41.0398 187.005 41.0398H187.177V41.3889H187.009C186.614 41.3994 186.201 41.4099 185.795 41.4378L185.785 41.4274ZM179.875 40.5929C179.686 40.167 179.525 39.7236 179.368 39.2732L179.718 39.1649C179.865 39.6048 180.029 40.0378 180.211 40.4533L179.875 40.5929ZM178.99 37.9115C178.885 37.4611 178.798 36.9933 178.732 36.515L179.081 36.4661C179.148 36.9269 179.232 37.3843 179.333 37.8277L178.99 37.9115ZM178.599 35.1184C178.581 34.8042 178.571 34.483 178.571 34.1617C178.571 34.0116 178.571 33.858 178.571 33.7079H178.92C178.92 33.858 178.92 34.0046 178.92 34.1548C178.92 34.469 178.92 34.7867 178.945 35.0905L178.599 35.1184ZM179.015 32.3253L178.665 32.2904C178.714 31.8295 178.781 31.3581 178.861 30.8938L179.211 30.9531C179.116 31.4175 179.05 31.8644 179.004 32.3322L179.015 32.3253ZM179.494 29.5985L179.144 29.5147C179.256 29.0643 179.386 28.6104 179.529 28.1565L179.879 28.2648C179.721 28.7221 179.592 29.1655 179.483 29.6055L179.494 29.5985ZM180.333 26.9555L180.008 26.8298C180.179 26.3934 180.358 25.9569 180.571 25.5345L180.886 25.6881C180.676 26.1071 180.491 26.533 180.323 26.9764L180.333 26.9555ZM181.536 24.4661L181.232 24.2881C181.47 23.8865 181.725 23.485 181.991 23.101L182.278 23.3C182.005 23.684 181.756 24.0751 181.526 24.4731L181.536 24.4661ZM183.113 22.1932L182.841 21.9733C183.134 21.6241 183.449 21.254 183.774 20.9258L184.026 21.1667C183.697 21.4949 183.39 21.8441 183.103 22.2002L183.113 22.1932ZM185.016 20.1822L184.781 19.9238C185.131 19.6131 185.481 19.3058 185.855 19.0091L186.072 19.2849C185.698 19.5816 185.341 19.8854 185.005 20.1892L185.016 20.1822ZM187.187 18.4574L186.988 18.1676C187.369 17.9058 187.768 17.6474 188.173 17.403L188.352 17.6998C187.946 17.9477 187.568 18.2025 187.177 18.4644L187.187 18.4574ZM189.562 17.0155L189.397 16.7082C189.81 16.4883 190.237 16.2788 190.663 16.0833L190.81 16.401C190.366 16.6 189.957 16.8095 189.551 17.0224L189.562 17.0155ZM192.09 15.8563L191.961 15.5281C192.401 15.357 192.845 15.179 193.286 15.0498L193.398 15.3989C192.954 15.5316 192.513 15.6922 192.08 15.8633L192.09 15.8563Z" fill="#324054"/>
<path d="M194.787 14.9746L194.699 14.6254C195.133 14.5137 195.399 14.4648 195.399 14.4648L195.462 14.814C195.462 14.814 195.21 14.8664 194.787 14.9746Z" fill="#324054"/>
<path d="M200.971 12.7182C200.079 9.95996 194.107 10.9515 195.271 14.5581C196.436 18.1648 201.863 15.4799 200.971 12.7182Z" fill="#324054"/>
<path d="M192.02 11.6155C192.066 10.404 193.751 9.47176 196.136 9.9012C198.521 10.3306 200.763 11.9367 200.763 11.9367C200.763 11.9367 198.409 13.3612 196 13.623C193.591 13.8849 191.975 12.8235 192.02 11.6155Z" fill="#EBEBEB"/>
<path d="M200.765 11.9305C199.527 11.9305 198.293 11.8956 197.058 11.8572C195.824 11.8188 194.586 11.756 193.352 11.6582C194.589 11.6582 195.827 11.6896 197.062 11.728C198.296 11.7664 199.534 11.8293 200.765 11.9305Z" fill="#324054"/>
<path d="M194.418 10.5361C195.121 10.8718 195.783 11.2852 196.394 11.7686C196.042 11.6038 195.701 11.4173 195.373 11.21C195.042 11.0041 194.723 10.7791 194.418 10.5361Z" fill="#324054"/>
<path d="M197.659 11.8135C197.026 12.3254 196.341 12.7678 195.613 13.1332C196.249 12.6207 196.939 12.1782 197.669 11.8135H197.659Z" fill="#324054"/>
<path d="M198.02 11.1328C198.372 11.302 198.681 11.5506 198.922 11.859C198.745 11.7759 198.58 11.6715 198.429 11.5483C198.277 11.4258 198.14 11.2864 198.02 11.1328Z" fill="#324054"/>
<path d="M194.294 18.7901C195.039 19.7468 196.952 19.5163 198.634 17.7776C200.316 16.0389 201.208 13.4238 201.208 13.4238C201.208 13.4238 198.452 13.6333 196.35 14.8204C194.249 16.0075 193.546 17.83 194.294 18.7901Z" fill="#EBEBEB"/>
<path d="M201.205 13.4238C200.198 14.1221 199.219 14.8972 198.237 15.6479C197.254 16.3985 196.292 17.1736 195.352 17.9731C196.359 17.2748 197.338 16.5032 198.317 15.7526C199.296 15.0019 200.251 14.2269 201.205 13.4238Z" fill="#324054"/>
<path d="M196.863 18.2493C197.05 17.9102 197.217 17.5605 197.363 17.2019C197.512 16.8424 197.638 16.4739 197.741 16.0986C197.554 16.4375 197.387 16.7873 197.241 17.1461C197.094 17.5061 196.967 17.8745 196.863 18.2493Z" fill="#324054"/>
<path d="M198.76 15.329C197.942 15.2852 197.122 15.3287 196.312 15.4588C196.72 15.4833 197.129 15.4833 197.536 15.4588C197.947 15.4387 198.355 15.3954 198.76 15.329Z" fill="#324054"/>
<path d="M199.434 15.6754C199.527 15.503 199.6 15.3202 199.651 15.1308C199.703 14.9427 199.733 14.7495 199.742 14.5547C199.556 14.9003 199.45 15.2835 199.434 15.6754Z" fill="#324054"/>
<path d="M200.971 12.7175C200.773 12.7815 200.561 12.7856 200.361 12.7292C200.162 12.6728 199.983 12.5584 199.848 12.4007C199.714 12.2429 199.629 12.0487 199.605 11.8428C199.581 11.6369 199.618 11.4285 199.713 11.2439C199.808 11.0594 199.955 10.9071 200.136 10.8062C200.318 10.7053 200.525 10.6605 200.732 10.6773C200.939 10.6941 201.136 10.7719 201.299 10.9008C201.462 11.0296 201.582 11.2038 201.646 11.4012C201.73 11.6651 201.707 11.9518 201.581 12.1986C201.454 12.4453 201.235 12.6319 200.971 12.7175Z" fill="#455A64"/>
<path d="M201.614 14.7119C201.417 14.7757 201.205 14.7796 201.005 14.7232C200.806 14.6667 200.627 14.5525 200.493 14.3948C200.358 14.2372 200.274 14.0432 200.249 13.8375C200.225 13.6318 200.263 13.4236 200.357 13.2391C200.451 13.0546 200.598 12.9022 200.779 12.8011C200.96 12.7001 201.167 12.6549 201.374 12.6713C201.581 12.6876 201.778 12.7649 201.941 12.8932C202.104 13.0215 202.225 13.1952 202.289 13.3922C202.332 13.5231 202.348 13.6611 202.337 13.7983C202.326 13.9354 202.288 14.0691 202.226 14.1917C202.163 14.3143 202.077 14.4233 201.972 14.5125C201.867 14.6018 201.745 14.6696 201.614 14.7119Z" fill="#455A64"/>
<path d="M86.9689 13.8237C86.8014 15.4273 86.1908 16.953 85.2053 18.2303C84.2198 19.5076 82.8982 20.4865 81.388 21.0575C79.8777 21.6286 78.2382 21.7694 76.6525 21.4643C75.0667 21.1592 73.5971 20.4201 72.4076 19.3296L68.0469 19.9685L70.229 16.2048C69.73 14.9802 69.5171 13.6581 69.6064 12.339C69.6958 11.0199 70.0851 9.73845 70.7447 8.59205C71.4044 7.44565 72.317 6.46442 73.4134 5.72289C74.5097 4.98136 75.7609 4.49904 77.0719 4.31256C78.3828 4.12609 79.7191 4.24036 80.9793 4.6467C82.2394 5.05304 83.3902 5.74076 84.3443 6.65762C85.2983 7.57448 86.0306 8.69637 86.4854 9.93807C86.9402 11.1798 87.1055 12.5086 86.9689 13.8237Z" fill="white"/>
<path d="M86.9674 13.8242C86.8034 15.427 86.1982 16.9533 85.219 18.2338C84.7405 18.8815 84.1635 19.4505 83.5089 19.9202C82.8687 20.4075 82.1622 20.8013 81.4108 21.0898C80.6589 21.3854 79.8689 21.5735 79.0643 21.6484C78.662 21.6845 78.2578 21.6926 77.8544 21.6729C77.4495 21.6625 77.0461 21.6205 76.6479 21.5472C75.0408 21.252 73.5477 20.5157 72.3362 19.4209L72.4376 19.4523L68.0838 20.1192L67.7656 20.1681L67.9265 19.8888L70.0946 16.1181V16.2682C69.583 15.0209 69.3655 13.6729 69.4589 12.3283C69.5522 10.9838 69.954 9.67861 70.6331 8.51378C71.3114 7.35261 72.2439 6.35957 73.3608 5.60893C74.4758 4.86826 75.7444 4.38926 77.0714 4.20786C78.3983 4.02646 79.7491 4.14737 81.0226 4.56151C82.2826 4.98948 83.4308 5.69329 84.3832 6.62144C85.3335 7.54727 86.0601 8.67705 86.5079 9.92506C86.9556 11.1731 87.1128 12.5065 86.9674 13.8242ZM86.9674 13.8242C87.1087 12.513 86.9464 11.1869 86.4928 9.94832C86.0393 8.70973 85.3067 7.59176 84.3516 6.68075C83.3966 5.76974 82.2446 5.09004 80.9847 4.69414C79.7247 4.29823 78.3905 4.19671 77.085 4.39741C75.7926 4.5884 74.5615 5.07339 73.4867 5.81492C72.421 6.56228 71.5309 7.53201 70.8779 8.65693C70.235 9.78433 69.856 11.0424 69.7694 12.3369C69.6842 13.6401 69.8946 14.9457 70.3849 16.1565L70.4163 16.2333L70.3744 16.3066L68.1783 20.0633L68.0244 19.8329L72.3886 19.2219H72.4481L72.49 19.2603C73.6566 20.3444 75.1023 21.083 76.6654 21.3936C77.0549 21.4728 77.4502 21.5207 77.8474 21.5367C78.2444 21.5646 78.6428 21.5646 79.0398 21.5367C79.836 21.4727 80.6196 21.3 81.3688 21.0235C82.1197 20.7505 82.8265 20.3694 83.467 19.8923C84.1188 19.4264 84.6965 18.8649 85.1805 18.2269C86.1724 16.9525 86.7909 15.4285 86.9674 13.8242Z" fill="#324054"/>
<path d="M74.0405 16.9767C74.0338 16.8611 74.0509 16.7454 74.0909 16.6367C74.1308 16.528 74.1927 16.4286 74.2727 16.3448C74.3528 16.261 74.4492 16.1945 74.556 16.1495C74.6628 16.1044 74.7778 16.0817 74.8937 16.0829C75.1312 16.0829 75.3589 16.1771 75.5268 16.3447C75.6946 16.5123 75.789 16.7396 75.789 16.9767C75.789 17.2137 75.6946 17.4411 75.5268 17.6087C75.3589 17.7763 75.1312 17.8705 74.8937 17.8705C74.7778 17.8716 74.6628 17.849 74.556 17.8039C74.4492 17.7589 74.3528 17.6924 74.2727 17.6086C74.1927 17.5247 74.1308 17.4254 74.0909 17.3167C74.0509 17.208 74.0338 17.0923 74.0405 16.9767ZM74.3902 14.9133L74.1874 7.98633H75.5861L75.3833 14.9133H74.3902Z" fill="#F7F7F7"/>
<path d="M77.3647 16.9767C77.358 16.8614 77.3751 16.746 77.4148 16.6375C77.4545 16.529 77.5161 16.4299 77.5958 16.3461C77.6754 16.2624 77.7714 16.1958 77.8778 16.1505C77.9842 16.1052 78.0988 16.0822 78.2145 16.0829C78.4519 16.0829 78.6796 16.1771 78.8475 16.3447C79.0154 16.5123 79.1097 16.7396 79.1097 16.9767C79.1097 17.2137 79.0154 17.4411 78.8475 17.6087C78.6796 17.7763 78.4519 17.8705 78.2145 17.8705C78.0988 17.8712 77.9842 17.8482 77.8778 17.8029C77.7714 17.7576 77.6754 17.691 77.5958 17.6073C77.5161 17.5235 77.4545 17.4243 77.4148 17.3159C77.3751 17.2074 77.358 17.092 77.3647 16.9767ZM77.7144 14.9133L77.5221 7.98633H78.9208L78.718 14.9133H77.7144Z" fill="#F7F7F7"/>
<path d="M80.6889 16.9767C80.6822 16.8611 80.6994 16.7454 80.7393 16.6367C80.7793 16.528 80.8412 16.4286 80.9212 16.3448C81.0012 16.261 81.0976 16.1945 81.2044 16.1495C81.3113 16.1044 81.4262 16.0817 81.5422 16.0829C81.7796 16.0829 82.0073 16.1771 82.1752 16.3447C82.3431 16.5123 82.4374 16.7396 82.4374 16.9767C82.4374 17.2137 82.3431 17.4411 82.1752 17.6087C82.0073 17.7763 81.7796 17.8705 81.5422 17.8705C81.4262 17.8716 81.3113 17.849 81.2044 17.8039C81.0976 17.7589 81.0012 17.6924 80.9212 17.6086C80.8412 17.5247 80.7793 17.4254 80.7393 17.3167C80.6994 17.208 80.6822 17.0923 80.6889 16.9767ZM81.0386 14.9133L80.8358 7.98633H82.2346L82.0353 14.9133H81.0386Z" fill="#F7F7F7"/>
</svg>
