<svg width="14" height="18" viewBox="0 0 14 18" fill="none" xmlns="http://www.w3.org/2000/svg">
  <path fill-rule="evenodd" clip-rule="evenodd" d="M3.48833 3.91988C4.4323 2.89499 5.69723 2.33366 7.00016 2.33366C8.3031 2.33366 9.56802 2.89499 10.512 3.91988C11.4581 4.94707 12.0002 6.35386 12.0002 7.83366C12.0002 8.36743 11.8163 9.04714 11.4608 9.83621C11.1104 10.6142 10.6203 11.4397 10.072 12.2482C8.99277 13.8396 7.73269 15.3005 7.00016 16.1099C6.26764 15.3005 5.00755 13.8396 3.92837 12.2482C3.38005 11.4397 2.88994 10.6142 2.53948 9.83621C2.18403 9.04714 2.00016 8.36743 2.00016 7.83366C2.00016 6.35386 2.54223 4.94707 3.48833 3.91988ZM7.00016 0.666992C5.2089 0.666992 3.50637 1.44018 2.26242 2.79075C1.02059 4.13903 0.333496 5.95405 0.333496 7.83366C0.333496 8.70662 0.621445 9.63625 1.01987 10.5207C1.42328 11.4163 1.96909 12.3286 2.54898 13.1837C3.70888 14.894 5.05117 16.4424 5.80086 17.2684C6.44713 17.9806 7.5532 17.9805 8.19947 17.2684C8.94916 16.4424 10.2914 14.894 11.4513 13.1837C12.0312 12.3286 12.577 11.4163 12.9805 10.5207C13.3789 9.63625 13.6668 8.70662 13.6668 7.83366C13.6668 5.95405 12.9797 4.13903 11.7379 2.79075C10.494 1.44018 8.79142 0.666992 7.00016 0.666992ZM6.16683 8.16699C6.16683 7.70676 6.53993 7.33366 7.00016 7.33366C7.4604 7.33366 7.8335 7.70676 7.8335 8.16699C7.8335 8.62723 7.4604 9.00033 7.00016 9.00033C6.53993 9.00033 6.16683 8.62723 6.16683 8.16699ZM7.00016 5.66699C5.61945 5.66699 4.50016 6.78628 4.50016 8.16699C4.50016 9.5477 5.61945 10.667 7.00016 10.667C8.38087 10.667 9.50016 9.5477 9.50016 8.16699C9.50016 6.78628 8.38087 5.66699 7.00016 5.66699Z" fill="#00AEE5"/>
</svg>
