<svg width="32" height="32" viewBox="0 0 32 32" fill="none" xmlns="http://www.w3.org/2000/svg">
<path d="M16 32C24.8366 32 32 24.8366 32 16C32 7.16344 24.8366 0 16 0C7.16344 0 0 7.16344 0 16C0 24.8366 7.16344 32 16 32Z" fill="#ECEEF4"/>
<path d="M16.0013 14.6668C18.9468 14.6668 21.3346 12.5775 21.3346 10.0002C21.3346 7.42283 18.9468 5.3335 16.0013 5.3335C13.0558 5.3335 10.668 7.42283 10.668 10.0002C10.668 12.5775 13.0558 14.6668 16.0013 14.6668Z" fill="#F6F7F8"/>
<path d="M16 26.6667C14.2415 26.6666 12.5303 26.1465 11.1222 25.184C9.71406 24.2215 8.68469 22.8685 8.18797 21.3271C7.33076 18.6672 9.513 16 12.5479 16H19.4521C22.487 16 24.6692 18.6661 23.812 21.3261C23.3155 22.8676 22.2862 24.2209 20.8781 25.1836C19.47 26.1462 17.7586 26.6665 16 26.6667Z" fill="white"/>
</svg>
