<svg width="20" height="21" viewBox="0 0 20 21" fill="none" xmlns="http://www.w3.org/2000/svg">
<path d="M12.499 16.3333C12.499 16.9963 12.2356 17.6322 11.7668 18.1011C11.2979 18.5699 10.662 18.8333 9.99899 18.8333C9.33595 18.8333 8.70007 18.5699 8.23123 18.1011C7.76238 17.6322 7.49899 16.9963 7.49899 16.3333M10.5998 4.66914L9.37816 4.66664C6.59149 4.65997 4.17233 6.92414 4.15316 9.66664V12.825C4.15316 13.4833 4.06983 14.1258 3.71066 14.6733L3.47149 15.0383C3.10733 15.5916 3.49899 16.3333 4.15316 16.3333H15.8448C16.499 16.3333 16.8898 15.5916 16.5265 15.0383L16.2873 14.6733C15.929 14.1258 15.8448 13.4825 15.8448 12.8241V9.66747C15.8115 6.92414 13.3865 4.67581 10.5998 4.66914V4.66914Z" stroke="#141416" stroke-width="1.5" stroke-linecap="round" stroke-linejoin="round"/>
<path d="M9.9987 2.16663C10.4407 2.16663 10.8646 2.34222 11.1772 2.65478C11.4898 2.96734 11.6654 3.39127 11.6654 3.83329V4.66663H8.33203V3.83329C8.33203 3.39127 8.50763 2.96734 8.82019 2.65478C9.13275 2.34222 9.55667 2.16663 9.9987 2.16663Z" stroke="#141416" stroke-width="1.5" stroke-linecap="round" stroke-linejoin="round"/>
</svg>
