<svg width="46" height="46" viewBox="0 0 46 46" fill="none" xmlns="http://www.w3.org/2000/svg">
<g filter="url(#filter0_d_1428_48619)">
<rect x="7" y="6" width="32" height="32" rx="4" fill="white" shape-rendering="crispEdges"/>
<path fill-rule="evenodd" clip-rule="evenodd" d="M21.5762 17.4935C21.9261 17.0662 21.8634 16.4361 21.4361 16.0862C21.0089 15.7363 20.3788 15.7989 20.0289 16.2262L16.4527 20.5926C15.8491 21.3296 15.8491 22.3901 16.4527 23.1271L20.0289 27.4935C20.3788 27.9207 21.0089 27.9834 21.4361 27.6335C21.8634 27.2835 21.9261 26.6535 21.5762 26.2262L18 21.8598L21.5762 17.4935ZM29.7664 17.4935C30.1163 17.0662 30.0536 16.4361 29.6263 16.0862C29.1991 15.7363 28.569 15.7989 28.2191 16.2262L24.6429 20.5926C24.0393 21.3296 24.0393 22.3901 24.6429 23.1271L28.2191 27.4935C28.569 27.9207 29.1991 27.9834 29.6263 27.6335C30.0536 27.2835 30.1163 26.6535 29.7664 26.2262L26.1902 21.8598L29.7664 17.4935Z" fill="#A6B3C6"/>
<rect x="7.5" y="6.5" width="31" height="31" rx="3.5" stroke="#EAE8E8" shape-rendering="crispEdges"/>
</g>
<defs>
<filter id="filter0_d_1428_48619" x="0" y="0" width="46" height="46" filterUnits="userSpaceOnUse" color-interpolation-filters="sRGB">
<feFlood flood-opacity="0" result="BackgroundImageFix"/>
<feColorMatrix in="SourceAlpha" type="matrix" values="0 0 0 0 0 0 0 0 0 0 0 0 0 0 0 0 0 0 127 0" result="hardAlpha"/>
<feOffset dy="1"/>
<feGaussianBlur stdDeviation="3.5"/>
<feComposite in2="hardAlpha" operator="out"/>
<feColorMatrix type="matrix" values="0 0 0 0 0.694118 0 0 0 0 0.686275 0 0 0 0 0.686275 0 0 0 0.25 0"/>
<feBlend mode="normal" in2="BackgroundImageFix" result="effect1_dropShadow_1428_48619"/>
<feBlend mode="normal" in="SourceGraphic" in2="effect1_dropShadow_1428_48619" result="shape"/>
</filter>
</defs>
</svg>
