<svg width="36" height="36" viewBox="0 0 36 36" fill="none" xmlns="http://www.w3.org/2000/svg">
  <rect x="0.5" y="0.5" width="35" height="35" fill="white"/>
  <path fill-rule="evenodd" clip-rule="evenodd" d="M14.6667 8C13.4394 8 12.4444 8.94256 12.4444 10.1053V12.2105H11.3333H9.11111C8.49746 12.2105 8 12.6818 8 13.2632C8 13.8445 8.49746 14.3158 9.11111 14.3158H10.2356L10.3836 25.9202C10.3982 27.0729 11.3888 28 12.6056 28H23.5556C24.7829 28 25.7778 27.0574 25.7778 25.8947V14.3158H26.8889C27.5025 14.3158 28 13.8445 28 13.2632C28 12.6818 27.5025 12.2105 26.8889 12.2105H24.6667H23.5556V10.1053C23.5556 8.94256 22.5606 8 21.3333 8H14.6667ZM21.3333 12.2105V10.1053H14.6667V12.2105H21.3333ZM14.6667 14.3158H12.4579L12.6056 25.8947L23.5556 25.8947V14.3158H21.3333H14.6667ZM16.8889 16.421C16.8889 15.8397 16.3914 15.3684 15.7778 15.3684C15.1641 15.3684 14.6667 15.8397 14.6667 16.421V22.7368C14.6667 23.3182 15.1641 23.7895 15.7778 23.7895C16.3914 23.7895 16.8889 23.3182 16.8889 22.7368V16.421ZM20.2222 15.3684C20.8359 15.3684 21.3333 15.8397 21.3333 16.421V22.7368C21.3333 23.3182 20.8359 23.7895 20.2222 23.7895C19.6086 23.7895 19.1111 23.3182 19.1111 22.7368V16.421C19.1111 15.8397 19.6086 15.3684 20.2222 15.3684Z" fill="#F72121"/>
  <rect x="0.5" y="0.5" width="35" height="35" stroke="#EAE8E8"/>
</svg>
