<svg width="20" height="20" viewBox="0 0 20 20" fill="none" xmlns="http://www.w3.org/2000/svg">
<path fill-rule="evenodd" clip-rule="evenodd" d="M3.31078 1.66675C2.40348 1.66675 1.66797 2.41294 1.66797 3.33341V16.6667C1.66797 17.5872 2.40348 18.3334 3.31078 18.3334H16.4532C17.3605 18.3334 18.0961 17.5872 18.0961 16.6667V13.3334C18.0961 12.8732 17.7283 12.5001 17.2746 12.5001C16.821 12.5001 16.4532 12.8732 16.4532 13.3334V16.6667H3.31078V3.33341H9.88201C10.3357 3.33341 10.7034 2.96032 10.7034 2.50008C10.7034 2.03984 10.3357 1.66675 9.88201 1.66675H3.31078ZM16.5087 2.40324C15.8705 1.85441 14.9277 1.87985 14.3191 2.46232L6.12532 10.3048C5.9247 10.4968 5.77496 10.737 5.68991 11.0032L5.08909 12.8836C4.64896 14.2611 6.03049 15.5135 7.33036 14.9154L9.25696 14.029C9.42217 13.953 9.57383 13.8497 9.70579 13.7234L17.8192 5.95787C18.5317 5.27587 18.5013 4.1168 17.7541 3.47419L16.5087 2.40324ZM15.4465 3.67462L16.6918 4.74557L8.57844 12.5111L6.65184 13.3975L7.25266 11.5171L15.4465 3.67462Z" fill="white"/>
</svg>
