<svg width="36" height="36" viewBox="0 0 36 36" fill="none" xmlns="http://www.w3.org/2000/svg">
  <rect x="0.5" y="0.5" width="35" height="35" fill="white"/>
  <path fill-rule="evenodd" clip-rule="evenodd" d="M9.97137 8C8.88261 8 8 8.89543 8 10V26C8 27.1046 8.88261 28 9.97137 28H25.7423C26.8311 28 27.7137 27.1046 27.7137 26V22C27.7137 21.4477 27.2724 21 26.728 21C26.1836 21 25.7423 21.4477 25.7423 22V26H9.97137V10H17.8569C18.4012 10 18.8425 9.55228 18.8425 9C18.8425 8.44772 18.4012 8 17.8569 8H9.97137ZM25.8089 8.88379C25.043 8.2252 23.9116 8.25572 23.1814 8.95468L13.3488 18.3657C13.1081 18.5961 12.9284 18.8843 12.8263 19.2037L12.1053 21.4602C11.5772 23.1132 13.235 24.6161 14.7949 23.8984L17.1068 22.8347C17.305 22.7434 17.487 22.6195 17.6454 22.468L27.3814 13.1494C28.2365 12.331 28.2 10.9401 27.3033 10.1689L25.8089 8.88379ZM24.5342 10.4094L26.0286 11.6946L16.2926 21.0132L13.9806 22.0769L14.7016 19.8204L24.5342 10.4094Z" fill="#00AEE5"/>
  <rect x="0.5" y="0.5" width="35" height="35" stroke="#EAE8E8"/>
</svg>
