<svg width="18" height="15" viewBox="0 0 18 15" fill="none" xmlns="http://www.w3.org/2000/svg">
<path fill-rule="evenodd" clip-rule="evenodd" d="M9.60326 1.5C6.18863 1.5 3.45708 4.18532 3.45708 7.45336C3.45708 8.4015 3.68536 9.29643 4.09171 10.0912C4.27234 10.4445 4.18376 10.8021 4.12823 10.9761C4.06177 11.1844 3.95369 11.394 3.84462 11.5813C3.63865 11.9349 3.35053 12.3388 3.08913 12.7052C3.07212 12.7291 3.05523 12.7528 3.03847 12.7763C2.92425 12.9365 2.81651 13.0885 2.71865 13.2308C2.93137 13.1442 3.16391 13.0426 3.41148 12.933C3.45599 12.9133 3.50101 12.8933 3.54641 12.8732C3.97195 12.6844 4.43124 12.4805 4.83108 12.3402C5.05289 12.2623 5.28768 12.1925 5.51047 12.1581C5.70786 12.1277 6.02513 12.1027 6.32566 12.2478C6.3633 12.266 6.40175 12.2846 6.44095 12.3036C6.89141 12.5216 7.44163 12.7879 8.00718 13.0084C8.63849 13.2546 9.19961 13.4067 9.60326 13.4067C13.0179 13.4067 15.7494 10.7214 15.7494 7.45336C15.7494 4.18532 13.0179 1.5 9.60326 1.5ZM1.83879 13.4997C1.83893 13.4996 1.84182 13.4996 1.84706 13.5C1.84128 13.5001 1.83866 13.4998 1.83879 13.4997ZM1.95708 7.45336C1.95708 3.31708 5.40058 0 9.60326 0C13.8059 0 17.2494 3.31708 17.2494 7.45336C17.2494 11.5896 13.8059 14.9067 9.60326 14.9067C8.90594 14.9067 8.12679 14.6651 7.46225 14.406C6.83838 14.1627 6.23658 13.8713 5.79156 13.6558C5.77939 13.6499 5.76733 13.644 5.7554 13.6383C5.75041 13.6389 5.74498 13.6397 5.73909 13.6406C5.64862 13.6545 5.51327 13.6904 5.3279 13.7555C4.98845 13.8747 4.58621 14.053 4.14583 14.2483C4.10381 14.2669 4.06145 14.2857 4.01876 14.3046C3.55181 14.5114 3.0378 14.7358 2.59939 14.8683C2.38203 14.934 2.13745 14.9917 1.90046 14.9992C1.68141 15.0061 1.31065 14.9745 1.02354 14.6832C0.693835 14.3486 0.735358 13.9263 0.779949 13.7219C0.828935 13.4973 0.932714 13.278 1.03202 13.0959C1.23478 12.7241 1.54156 12.2921 1.817 11.9056L1.84936 11.8602C2.12795 11.4695 2.37868 11.1178 2.54848 10.8263C2.60505 10.7292 2.64371 10.6535 2.66878 10.5974C2.21215 9.64179 1.95708 8.57591 1.95708 7.45336ZM2.70606 10.4933C2.70649 10.493 2.70573 10.4981 2.70252 10.5093C2.70403 10.4991 2.70564 10.4935 2.70606 10.4933ZM5.80103 13.6348C5.80094 13.6349 5.79862 13.635 5.79432 13.6347C5.79896 13.6346 5.80111 13.6347 5.80103 13.6348Z" fill="white"/>
</svg>
