<svg width="22" height="18" viewBox="0 0 22 18" fill="none" xmlns="http://www.w3.org/2000/svg">
<path d="M10.3135 2.84898L11 3.49725L11.6865 2.84898L11.823 2.72009L11.8295 2.71398L11.8359 2.70776C12.8117 1.75292 14.1206 1.21511 15.4859 1.20801C16.8139 1.20864 18.0877 1.73589 19.0276 2.67421C19.9679 3.61284 20.4974 4.88615 20.5 6.21473C20.4999 7.66542 20.2459 8.64083 19.4364 9.7494C18.5692 10.9369 17.0545 12.2918 14.3944 14.3937L11.6131 16.5525C11.2523 16.8326 10.7477 16.8326 10.3869 16.5525L7.60559 14.3937C4.94551 12.2918 3.43081 10.9369 2.56364 9.7494C1.75411 8.64087 1.5001 7.66549 1.5 6.21489C1.50255 4.88627 2.03207 3.61289 2.97239 2.67421C3.91235 1.73589 5.18604 1.20864 6.51413 1.20801C7.87933 1.21511 9.18829 1.75292 10.1641 2.70776L10.1705 2.71398L10.177 2.72009L10.3135 2.84898Z" fill="white" stroke="#F62121" stroke-width="2"/>
</svg>
