<svg width="24" height="24" viewBox="0 0 24 24" fill="none" xmlns="http://www.w3.org/2000/svg">
<path fill-rule="evenodd" clip-rule="evenodd" d="M12 20C7.58172 20 4 16.4183 4 12C4 7.58172 7.58172 4 12 4C16.4183 4 20 7.58172 20 12C20 16.4183 16.4183 20 12 20ZM12.7281 8.29032C12.3361 8.67942 12.3338 9.31258 12.7229 9.70452L13.965 10.9556L7.99864 10.9556C7.44636 10.9556 6.99864 11.4034 6.99864 11.9556C6.99864 12.5079 7.44636 12.9556 7.99864 12.9556L14.053 12.9556L12.7229 14.2955C12.3338 14.6874 12.3361 15.3206 12.7281 15.7097C13.12 16.0988 13.7532 16.0965 14.1423 15.7045L16.4211 13.409C17.1953 12.6292 17.1953 11.3708 16.4211 10.591L14.1423 8.29548C13.7532 7.90353 13.12 7.90122 12.7281 8.29032Z" fill="#0D99FF"/>
<path fill-rule="evenodd" clip-rule="evenodd" d="M12 20C7.58172 20 4 16.4183 4 12C4 7.58172 7.58172 4 12 4C16.4183 4 20 7.58172 20 12C20 16.4183 16.4183 20 12 20ZM12 22C6.47715 22 2 17.5228 2 12C2 6.47715 6.47715 2 12 2C17.5228 2 22 6.47715 22 12C22 17.5228 17.5228 22 12 22Z" fill="#0D99FF"/>
</svg>
