<svg width="18" height="18" viewBox="0 0 18 18" fill="none" xmlns="http://www.w3.org/2000/svg">
<path fill-rule="evenodd" clip-rule="evenodd" d="M0.675465 2.22343C0.707469 1.31314 1.47019 0.666992 2.31281 0.666992H4.76809C5.52875 0.666992 6.1929 1.182 6.38228 1.91871L7.04412 4.49335C7.21459 5.15647 6.96216 5.85638 6.40767 6.25804L3.54997 8.3281C4.65396 10.7392 6.62794 13.039 9.96671 14.4042L12.1336 11.7164C12.5511 11.1986 13.2365 10.9785 13.8773 11.1566L16.1132 11.7779C16.8345 11.9783 17.3337 12.635 17.3337 13.3837V15.6428C17.3337 16.5742 16.5587 17.3535 15.5919 17.2934C13.443 17.1598 11.5727 16.7708 9.95067 16.1837C5.48521 14.5673 2.99613 11.4862 1.74807 8.35183C0.883719 6.18114 0.613476 3.98657 0.675465 2.22343ZM11.6464 14.9762C12.8324 15.306 14.1669 15.5331 15.667 15.6281V13.3837L13.4312 12.7624L11.6464 14.9762ZM2.93776 6.71358L5.42994 4.90829L4.76809 2.33366H2.3394C2.30013 3.60891 2.45802 5.14593 2.93776 6.71358Z" fill="#00AEE5"/>
</svg>
