<svg width="32" height="32" viewBox="0 0 32 32" fill="none" xmlns="http://www.w3.org/2000/svg">
<rect width="32" height="32" rx="5" fill="url(#paint0_linear_914_20339)"/>
<path d="M15.999 7.04661C18.9142 7.04661 19.2598 7.05621 20.4118 7.11061C21.4774 7.15861 22.0566 7.33781 22.4406 7.48821C22.9494 7.68661 23.3142 7.92341 23.695 8.30421C24.0758 8.68501 24.3126 9.04981 24.511 9.55861C24.6614 9.94261 24.8374 10.5218 24.8886 11.5874C24.9398 12.7394 24.9526 13.085 24.9526 16.0002C24.9526 18.9154 24.943 19.261 24.8886 20.413C24.8406 21.4786 24.6614 22.0578 24.511 22.4418C24.3126 22.9506 24.0758 23.3154 23.695 23.6962C23.3142 24.077 22.9494 24.3138 22.4406 24.5122C22.0566 24.6626 21.4774 24.8386 20.4118 24.8898C19.2598 24.941 18.9142 24.9538 15.999 24.9538C13.0838 24.9538 12.7382 24.9442 11.5862 24.8898C10.5206 24.8418 9.94142 24.6626 9.55742 24.5122C9.04862 24.3138 8.68382 24.077 8.30302 23.6962C7.92222 23.3154 7.68542 22.9506 7.48702 22.4418C7.33662 22.0578 7.16062 21.4786 7.10942 20.413C7.05822 19.261 7.04542 18.9154 7.04542 16.0002C7.04542 13.085 7.05502 12.7394 7.10942 11.5874C7.15742 10.5218 7.33662 9.94261 7.48702 9.55861C7.68542 9.04981 7.92222 8.68501 8.30302 8.30421C8.68382 7.92341 9.04862 7.68661 9.55742 7.48821C9.94142 7.33781 10.5206 7.16181 11.5862 7.11061C12.7382 7.05621 13.0838 7.04661 15.999 7.04661ZM15.999 5.07861C13.0326 5.07861 12.6614 5.09141 11.4966 5.14581C10.335 5.20021 9.54142 5.38261 8.84382 5.65461C8.12702 5.92981 7.51582 6.30421 6.91102 6.91221C6.30302 7.52021 5.93182 8.12821 5.65022 8.84821C5.38142 9.54261 5.19582 10.3362 5.14142 11.501C5.08702 12.6658 5.07422 13.037 5.07422 16.0034C5.07422 18.9698 5.08702 19.341 5.14142 20.5058C5.19582 21.6674 5.37822 22.461 5.65022 23.1586C5.92862 23.8722 6.30302 24.4834 6.91102 25.0882C7.51902 25.6962 8.12702 26.0674 8.84702 26.349C9.54142 26.6178 10.335 26.8034 11.4998 26.8578C12.6646 26.9122 13.0358 26.925 16.0022 26.925C18.9686 26.925 19.3398 26.9122 20.5046 26.8578C21.6662 26.8034 22.4598 26.621 23.1574 26.349C23.871 26.0706 24.4822 25.6962 25.087 25.0882C25.695 24.4802 26.0662 23.8722 26.3478 23.1522C26.6166 22.4578 26.8022 21.6642 26.8566 20.4994C26.911 19.3346 26.9238 18.9634 26.9238 15.997C26.9238 13.0306 26.911 12.6594 26.8566 11.4946C26.8022 10.333 26.6198 9.53941 26.3478 8.84181C26.0694 8.12821 25.695 7.51701 25.087 6.91221C24.479 6.30421 23.871 5.93301 23.151 5.65141C22.4566 5.38261 21.663 5.19701 20.4982 5.14261C19.3366 5.09141 18.9654 5.07861 15.999 5.07861Z" fill="white"/>
<path d="M16.0002 10.3906C12.9026 10.3906 10.3906 12.9026 10.3906 16.0002C10.3906 19.0978 12.9026 21.6098 16.0002 21.6098C19.0978 21.6098 21.6098 19.0978 21.6098 16.0002C21.6098 12.9026 19.0978 10.3906 16.0002 10.3906ZM16.0002 19.6418C13.9906 19.6418 12.3586 18.013 12.3586 16.0002C12.3586 13.9874 13.9906 12.3586 16.0002 12.3586C18.0098 12.3586 19.6418 13.9874 19.6418 16.0002C19.6418 18.013 18.0098 19.6418 16.0002 19.6418Z" fill="white"/>
<path d="M21.8315 11.4814C22.5561 11.4814 23.1435 10.894 23.1435 10.1694C23.1435 9.44482 22.5561 8.85742 21.8315 8.85742C21.1069 8.85742 20.5195 9.44482 20.5195 10.1694C20.5195 10.894 21.1069 11.4814 21.8315 11.4814Z" fill="white"/>
<defs>
<linearGradient id="paint0_linear_914_20339" x1="4.68629" y1="27.3137" x2="27.3137" y2="4.68629" gradientUnits="userSpaceOnUse">
<stop stop-color="#FFD521"/>
<stop offset="0.0551048" stop-color="#FFD020"/>
<stop offset="0.1241" stop-color="#FEC01E"/>
<stop offset="0.2004" stop-color="#FCA71B"/>
<stop offset="0.2821" stop-color="#FA8316"/>
<stop offset="0.3681" stop-color="#F85510"/>
<stop offset="0.4563" stop-color="#F51E09"/>
<stop offset="0.5" stop-color="#F30005"/>
<stop offset="0.5035" stop-color="#F20007"/>
<stop offset="0.5966" stop-color="#E1003B"/>
<stop offset="0.6879" stop-color="#D30067"/>
<stop offset="0.7757" stop-color="#C70088"/>
<stop offset="0.8589" stop-color="#BF00A0"/>
<stop offset="0.9357" stop-color="#BB00AF"/>
<stop offset="1" stop-color="#B900B4"/>
</linearGradient>
</defs>
</svg>
