<svg width="24" height="24" viewBox="0 0 24 24" fill="none" xmlns="http://www.w3.org/2000/svg">
<path fill-rule="evenodd" clip-rule="evenodd" d="M2.31571 7.46478C2.71845 7.8427 3.35129 7.82259 3.72921 7.41986L5 6.06564L5 20C5 20.5523 5.44772 21 6 21C6.55229 21 7 20.5523 7 20L7 6.06565L8.27079 7.41986C8.64872 7.82259 9.28156 7.8427 9.68429 7.46478C10.087 7.08685 10.1071 6.45401 9.72921 6.05128L7.45842 3.63142C6.66839 2.78953 5.33162 2.78953 4.54158 3.63142L2.27079 6.05128C1.89287 6.45401 1.91298 7.08685 2.31571 7.46478ZM12 6C12 5.44772 12.4477 5 13 5H21C21.5523 5 22 5.44772 22 6C22 6.55228 21.5523 7 21 7H13C12.4477 7 12 6.55228 12 6ZM11 12C10.4477 12 10 12.4477 10 13C10 13.5523 10.4477 14 11 14L21 14C21.5523 14 22 13.5523 22 13C22 12.4477 21.5523 12 21 12L11 12ZM13 19C12.4477 19 12 19.4477 12 20C12 20.5523 12.4477 21 13 21H21C21.5523 21 22 20.5523 22 20C22 19.4477 21.5523 19 21 19H13Z" fill="#324054"/>
</svg>
