<svg width="24" height="24" viewBox="0 0 24 24" fill="none" xmlns="http://www.w3.org/2000/svg">
<path fill-rule="evenodd" clip-rule="evenodd" d="M12 20C12 20.5523 12.4477 21 13 21H21C21.5523 21 22 20.5523 22 20C22 19.4477 21.5523 19 21 19H13C12.4477 19 12 19.4477 12 20ZM11 14C10.4477 14 10 13.5523 10 13C10 12.4477 10.4477 12 11 12L21 12C21.5523 12 22 12.4477 22 13C22 13.5523 21.5523 14 21 14L11 14ZM13 7C12.4477 7 12 6.55229 12 6C12 5.44771 12.4477 5 13 5H21C21.5523 5 22 5.44771 22 6C22 6.55229 21.5523 7 21 7H13ZM2.31571 16.5352C2.71845 16.1573 3.35129 16.1774 3.72921 16.5801L5 17.9344L5 4C5 3.44772 5.44772 3 6 3C6.55229 3 7 3.44771 7 4L7 17.9344L8.27079 16.5801C8.64872 16.1774 9.28156 16.1573 9.68429 16.5352C10.087 16.9131 10.1071 17.546 9.72921 17.9487L7.45842 20.3686C6.66839 21.2105 5.33162 21.2105 4.54158 20.3686L2.27079 17.9487C1.89287 17.546 1.91298 16.9131 2.31571 16.5352Z" fill="#324054"/>
</svg>
