<svg width="32" height="32" viewBox="0 0 32 32" fill="none" xmlns="http://www.w3.org/2000/svg">
<rect width="32" height="32" rx="5" fill="#DCDADA"/>
<path d="M27.25 14.29C27.25 10.165 22.375 5.66504 16 5.66504C9.78906 5.66504 4.75 9.32129 4.75 14.29C4.75 18.8744 8.67813 22.6619 14.2047 23.2197C14.373 23.2336 14.536 23.2856 14.6814 23.3716C14.8267 23.4577 14.9506 23.5757 15.0438 23.7166C15.1765 23.9255 15.248 24.1675 15.25 24.415C15.2371 24.9236 15.1806 25.4302 15.0813 25.9291C15.0659 25.9967 15.0697 26.0673 15.092 26.1329C15.1144 26.1985 15.1545 26.2567 15.208 26.3009C15.2614 26.3451 15.326 26.3736 15.3947 26.3833C15.4633 26.3929 15.5333 26.3834 15.5969 26.3557C18.2453 25.1838 27.25 20.365 27.25 14.29Z" fill="white"/>
<path d="M11.875 16.3525H10.1875V12.415C10.1875 12.2659 10.1282 12.1228 10.0227 12.0173C9.91726 11.9118 9.77418 11.8525 9.625 11.8525C9.47582 11.8525 9.33274 11.9118 9.22725 12.0173C9.12176 12.1228 9.0625 12.2659 9.0625 12.415V16.915C9.0625 17.0642 9.12176 17.2073 9.22725 17.3128C9.33274 17.4183 9.47582 17.4775 9.625 17.4775H11.875C12.0242 17.4775 12.1673 17.4183 12.2727 17.3128C12.3782 17.2073 12.4375 17.0642 12.4375 16.915C12.4375 16.7659 12.3782 16.6228 12.2727 16.5173C12.1673 16.4118 12.0242 16.3525 11.875 16.3525Z" fill="#DCDADA"/>
<path d="M13.375 11.8525C13.2258 11.8525 13.0827 11.9118 12.9773 12.0173C12.8718 12.1228 12.8125 12.2659 12.8125 12.415V16.915C12.8125 17.0642 12.8718 17.2073 12.9773 17.3128C13.0827 17.4183 13.2258 17.4775 13.375 17.4775C13.5242 17.4775 13.6673 17.4183 13.7727 17.3128C13.8782 17.2073 13.9375 17.0642 13.9375 16.915V12.415C13.9375 12.2659 13.8782 12.1228 13.7727 12.0173C13.6673 11.9118 13.5242 11.8525 13.375 11.8525Z" fill="#DCDADA"/>
<path d="M18.6258 11.8525C18.5519 11.8525 18.4788 11.8671 18.4105 11.8954C18.3423 11.9236 18.2803 11.9651 18.228 12.0173C18.1758 12.0695 18.1344 12.1315 18.1061 12.1998C18.0778 12.268 18.0633 12.3412 18.0633 12.415V15.2275L15.7195 12.0775C15.6487 11.9831 15.5499 11.9133 15.4373 11.8781C15.3246 11.8429 15.2037 11.8441 15.0917 11.8814C14.9797 11.9187 14.8822 11.9904 14.8132 12.0861C14.7442 12.1819 14.707 12.297 14.707 12.415V16.915C14.7309 17.0443 14.7993 17.1611 14.9004 17.2452C15.0014 17.3292 15.1287 17.3753 15.2602 17.3753C15.3916 17.3753 15.5189 17.3292 15.6199 17.2452C15.721 17.1611 15.7894 17.0443 15.8133 16.915V14.1025L18.157 17.2525C18.211 17.3253 18.2819 17.3838 18.3636 17.423C18.4453 17.4622 18.5353 17.4809 18.6258 17.4775C18.6862 17.4773 18.7463 17.4679 18.8039 17.4494C18.916 17.412 19.0134 17.3402 19.0824 17.2443C19.1514 17.1484 19.1885 17.0332 19.1883 16.915V12.415C19.1883 12.3412 19.1737 12.268 19.1455 12.1998C19.1172 12.1315 19.0758 12.0695 19.0235 12.0173C18.9713 11.9651 18.9093 11.9236 18.841 11.8954C18.7728 11.8671 18.6996 11.8525 18.6258 11.8525Z" fill="#DCDADA"/>
<path d="M22.75 15.2275C22.8239 15.2275 22.897 15.213 22.9653 15.1847C23.0335 15.1565 23.0955 15.115 23.1477 15.0628C23.2 15.0106 23.2414 14.9485 23.2697 14.8803C23.298 14.8121 23.3125 14.7389 23.3125 14.665C23.3125 14.5912 23.298 14.518 23.2697 14.4498C23.2414 14.3815 23.2 14.3195 23.1477 14.2673C23.0955 14.2151 23.0335 14.1736 22.9653 14.1454C22.897 14.1171 22.8239 14.1025 22.75 14.1025H21.0625V12.9775H22.75C22.8992 12.9775 23.0423 12.9183 23.1477 12.8128C23.2532 12.7073 23.3125 12.5642 23.3125 12.415C23.3125 12.2659 23.2532 12.1228 23.1477 12.0173C23.0423 11.9118 22.8992 11.8525 22.75 11.8525H20.5C20.3508 11.8525 20.2077 11.9118 20.1023 12.0173C19.9968 12.1228 19.9375 12.2659 19.9375 12.415V16.915C19.9375 17.0642 19.9968 17.2073 20.1023 17.3128C20.2077 17.4183 20.3508 17.4775 20.5 17.4775H22.75C22.8992 17.4775 23.0423 17.4183 23.1477 17.3128C23.2532 17.2073 23.3125 17.0642 23.3125 16.915C23.3125 16.7659 23.2532 16.6228 23.1477 16.5173C23.0423 16.4118 22.8992 16.3525 22.75 16.3525H21.0625V15.2275H22.75Z" fill="#DCDADA"/>
</svg>
