<svg width="160" height="27" viewBox="0 0 160 27" fill="none" xmlns="http://www.w3.org/2000/svg">
  <g clip-path="url(#clip0_796_3666)">
    <path d="M0 1.95898H3.54169C6.31456 1.95898 7.701 3.69183 7.701 7.15752C7.701 8.48226 7.52086 9.46366 7.16058 10.105C6.8003 10.7463 6.16337 11.2321 5.2498 11.5593C6.29526 11.9803 7.01261 12.5212 7.39862 13.1788C7.79107 13.8298 7.98729 14.808 7.98729 16.1133C7.98729 19.6988 6.46253 21.4899 3.41302 21.4899H0V1.95898ZM2.46406 10.5649C3.47735 10.5649 4.18183 10.3285 4.57428 9.85558C4.96673 9.35678 5.16617 8.4855 5.16617 7.23526C5.16617 5.12669 4.41344 4.07079 2.90476 4.07079H2.7021H2.58952C2.52196 4.07079 2.48015 4.07403 2.46406 4.08374V10.5649ZM2.46406 19.2421C3.53525 19.2421 4.27833 19.0089 4.68686 18.5457C5.09861 18.0825 5.30127 17.2437 5.30127 16.029C5.30127 14.782 5.08896 13.9075 4.66113 13.4087C4.24295 12.9034 3.50952 12.6508 2.46085 12.6508V19.2421H2.46406Z" fill="black"/>
    <path d="M15.7366 17.0791H17.9722C17.7953 20.1593 16.5408 21.6978 14.2022 21.6978C13.5073 21.6978 12.909 21.5683 12.4104 21.3059C11.9118 21.0436 11.5001 20.6387 11.1719 20.0913C10.8438 19.5439 10.6058 18.8475 10.4482 18.0022C10.2938 17.16 10.2166 16.156 10.2166 14.9899C10.2166 12.6806 10.5382 10.9671 11.1784 9.85295C11.8185 8.73874 12.8093 8.18164 14.1507 8.18164C16.7563 8.18164 18.0591 10.4943 18.0591 15.1163V15.4207H12.5712C12.5712 18.2224 13.1245 19.6217 14.2311 19.6217C15.2347 19.6249 15.7366 18.7763 15.7366 17.0791ZM15.6111 13.6782C15.5114 12.3048 15.3538 11.4012 15.1447 10.9704C14.9259 10.491 14.5753 10.2481 14.0896 10.2481C13.5942 10.2481 13.2436 10.4878 13.0345 10.9704C12.8254 11.4012 12.671 12.3048 12.5712 13.6782H15.6111Z" fill="black"/>
    <path d="M27.883 8.40256V21.4977H25.4833V19.8134C25.1391 20.5292 24.7949 21.0248 24.4539 21.2936C24.1097 21.5625 23.6562 21.6985 23.0964 21.6985C22.0156 21.6985 21.2243 21.1414 20.7225 20.0272C20.2206 18.913 19.9697 17.1672 19.9697 14.7898C19.9697 12.5193 20.2206 10.8512 20.7225 9.78559C21.2243 8.71998 22.0156 8.18555 23.0964 8.18555C24.084 8.18555 24.8818 8.75237 25.4833 9.87952V8.39932H27.883V8.40256ZM22.4531 14.8934C22.4531 16.6133 22.5657 17.815 22.7909 18.4984C23.0257 19.1818 23.4374 19.5219 24.0229 19.5219C24.5601 19.5219 24.9493 19.1689 25.1906 18.4595C25.4351 17.7016 25.5541 16.5324 25.5541 14.955C25.5541 13.3679 25.4318 12.1954 25.1906 11.4375C24.9461 10.7281 24.5569 10.3751 24.0229 10.3751C23.4535 10.3751 23.0482 10.7119 22.8037 11.3856C22.5721 12.0108 22.4531 13.18 22.4531 14.8934Z" fill="black"/>
    <path d="M30.8652 8.40234H33.265V17.1573C33.281 17.967 33.4001 18.5435 33.622 18.8901C33.844 19.2367 34.2139 19.4083 34.735 19.4083C35.2787 19.4083 35.6615 19.2561 35.8802 18.9516C36.099 18.631 36.2083 18.0739 36.2083 17.2803V16.2309V8.40234H38.6081V16.2342C38.6081 18.0642 38.4729 19.2885 38.206 19.9039C37.643 21.1023 36.4785 21.7015 34.7125 21.7015C33.3229 21.7015 32.3321 21.3485 31.7466 20.6391C31.1612 19.9233 30.8685 18.7282 30.8685 17.0601V8.40234H30.8652Z" fill="black"/>
    <path d="M41.8665 4.73242H44.2662V8.40217H45.5754V10.3261H44.2662V21.4973H41.8665V10.3261H40.5476V8.40217H41.8665V4.73242Z" fill="black"/>
    <path d="M46.2961 8.40234H49.0111L50.9219 17.5362L53.1576 8.40234H55.5959L50.2785 26.8612H47.7533L49.751 20.448L46.2961 8.40234Z" fill="black"/>
    <path d="M64.9309 1.95898H67.5558V16.9521C67.5558 18.4777 67.3339 19.5789 66.8899 20.2559C66.2369 21.2438 65.1722 21.7361 63.6989 21.7361C62.8271 21.7361 62.0873 21.5677 61.4761 21.2308V18.6008C62.2224 19.0478 62.7982 19.2712 63.2099 19.2712C64.3583 19.2712 64.9309 18.4583 64.9309 16.8291V16.0452V1.95898Z" fill="black"/>
    <path d="M78.3449 15.0554C78.3449 19.4831 76.9842 21.6985 74.2596 21.6985C71.5382 21.6985 70.1775 19.4507 70.1775 14.955C70.1775 10.4431 71.535 8.18555 74.2499 8.18555C74.9544 8.18555 75.5624 8.32158 76.0771 8.59042C76.5918 8.85925 77.0164 9.27708 77.3509 9.8439C77.6855 10.4107 77.9364 11.1233 78.1004 11.9816C78.2613 12.8432 78.3449 13.8667 78.3449 15.0554ZM75.8551 14.9938C75.8551 13.274 75.7425 12.0755 75.5141 11.4018C75.289 10.7184 74.8869 10.3783 74.3078 10.3783C73.7385 10.3783 73.3332 10.7152 73.0887 11.3889C72.8635 12.0626 72.7509 13.2416 72.7509 14.9194C72.7509 16.5971 72.8635 17.7696 73.0887 18.4369C73.3332 19.1106 73.7385 19.4474 74.3078 19.4474C74.8772 19.4474 75.2761 19.1138 75.5013 18.4466C75.7393 17.8247 75.8551 16.6716 75.8551 14.9938Z" fill="black"/>
    <path d="M80.8379 0H83.2376V9.88208C83.4049 9.56142 83.5754 9.29259 83.7523 9.07234C83.9292 8.85209 84.0997 8.68366 84.267 8.56706C84.6015 8.31442 85.039 8.1881 85.573 8.1881C86.1263 8.1881 86.6024 8.31766 87.0045 8.57354C87.4066 8.82941 87.7347 9.22781 87.992 9.76871C88.2462 10.3096 88.4392 10.9963 88.5646 11.8319C88.6901 12.6676 88.7544 13.6587 88.7544 14.8053C88.7544 17.1827 88.5035 18.9285 88.0017 20.0362C87.4999 21.144 86.7118 21.7011 85.6406 21.7011C85.0712 21.7011 84.6144 21.565 84.2702 21.2962C83.926 21.0274 83.5818 20.5318 83.2408 19.816V21.497H80.8411V0H80.8379ZM86.2678 15.0191C86.2678 13.2409 86.1488 12.0327 85.9172 11.4012C85.692 10.7177 85.2835 10.3776 84.698 10.3776C84.1447 10.3776 83.7555 10.7242 83.5303 11.4141C83.3052 12.0975 83.1926 13.2798 83.1926 14.9575C83.1926 16.6288 83.3052 17.8078 83.5303 18.501C83.7555 19.1844 84.1447 19.5245 84.698 19.5245C85.2674 19.5245 85.6727 19.1876 85.9172 18.5139C86.1488 17.8856 86.2678 16.7228 86.2678 15.0191Z" fill="black"/>
    <path d="M96.9736 1.95898H99.5857V9.60294H103.417V1.95898H106.032V21.4964H103.417V11.8281H99.5857V21.4964H96.9736V1.95898Z" fill="black"/>
    <path d="M109.143 8.40234H111.542V17.1573C111.558 17.967 111.677 18.5435 111.899 18.8901C112.121 19.2367 112.491 19.4083 113.012 19.4083C113.556 19.4083 113.939 19.2561 114.158 18.9516C114.376 18.631 114.486 18.0739 114.486 17.2803V16.2309V8.40234H116.885V16.2342C116.885 18.0642 116.75 19.2885 116.483 19.9039C115.924 21.1023 114.759 21.7015 112.99 21.7015C111.6 21.7015 110.609 21.3485 110.024 20.6391C109.439 19.9233 109.146 18.7282 109.146 17.0601V8.40234H109.143Z" fill="black"/>
    <path d="M119.854 8.40127H122.254V9.90739C122.939 8.7608 123.827 8.1875 124.918 8.1875C125.973 8.1875 126.726 8.60533 127.179 9.44098C127.43 9.91387 127.555 10.8273 127.555 12.1876V21.4996H125.156L125.143 12.7447C125.143 11.8605 125.037 11.2321 124.828 10.8596C124.619 10.4872 124.258 10.3025 123.747 10.3025C123.47 10.3025 123.239 10.3511 123.049 10.4483C122.859 10.5455 122.708 10.7009 122.592 10.9179C122.473 11.1317 122.389 11.4135 122.335 11.7601C122.28 12.1066 122.254 12.5309 122.254 13.0395V21.5029H119.854V8.40127Z" fill="black"/>
    <path d="M130.817 4.73242H133.217V8.40217H134.523V10.3261H133.217V21.4973H130.817V10.3261H129.499V8.40217H130.817V4.73242Z" fill="black"/>
    <path d="M137.634 2.83398C138.068 2.83398 138.447 2.99593 138.766 3.31659C139.084 3.63725 139.242 4.01944 139.242 4.46642C139.242 4.92312 139.081 5.30855 138.766 5.62921C138.447 5.94987 138.061 6.10858 137.611 6.10858C137.157 6.10858 136.775 5.94663 136.456 5.62921C136.147 5.31827 135.99 4.92635 135.99 4.45347C135.99 4.01621 136.147 3.63725 136.466 3.31659C136.807 2.99269 137.196 2.83398 137.634 2.83398ZM136.501 8.40176H138.914V21.4969H136.501V8.40176Z" fill="black"/>
    <path d="M141.874 8.40127H144.273V9.90739C144.958 8.7608 145.846 8.1875 146.937 8.1875C147.992 8.1875 148.745 8.60533 149.198 9.44098C149.449 9.91387 149.575 10.8273 149.575 12.1876V21.4996H147.175L147.162 12.7447C147.162 11.8605 147.056 11.2321 146.847 10.8596C146.638 10.4872 146.277 10.3025 145.766 10.3025C145.489 10.3025 145.258 10.3511 145.068 10.4483C144.878 10.5455 144.727 10.7009 144.611 10.9179C144.492 11.1317 144.408 11.4135 144.354 11.7601C144.299 12.1066 144.273 12.5309 144.273 13.0395V21.5029H141.874V8.40127Z" fill="black"/>
    <path d="M157.588 8.40127H160V21.9142C160 23.5337 159.839 24.6544 159.521 25.2795C158.935 26.4261 157.758 26.9994 155.989 26.9994C154.824 26.9994 153.911 26.6658 153.248 25.9986C152.579 25.3249 152.244 24.4179 152.244 23.2778L152.257 22.873H154.583C154.583 24.2657 155.098 24.9621 156.127 24.9621C156.687 24.9621 157.07 24.7839 157.269 24.4309C157.478 24.0941 157.584 23.4236 157.584 22.4195V19.9028C157.073 21.1012 156.291 21.7005 155.233 21.7005C154.142 21.7005 153.341 21.1693 152.827 20.1069C152.312 19.0445 152.055 17.3829 152.055 15.1221C152.055 12.7253 152.302 10.9601 152.798 9.81994C153.284 8.73165 154.091 8.1875 155.223 8.1875C155.76 8.1875 156.195 8.31706 156.529 8.57941C156.864 8.84177 157.214 9.30494 157.584 9.97217V8.40127H157.588ZM157.626 15.0671C157.626 11.9382 157.089 10.3738 156.018 10.3738C155.506 10.3738 155.133 10.7268 154.898 11.4297C154.664 12.1326 154.548 13.263 154.548 14.8144C154.548 16.4598 154.67 17.6679 154.911 18.4453C155.162 19.1611 155.58 19.5206 156.169 19.5206C156.722 19.5206 157.102 19.2 157.311 18.5587C157.52 17.9627 157.626 16.7967 157.626 15.0671Z" fill="black"/>
  </g>
  <defs>
    <clipPath id="clip0_796_3666">
      <rect width="160" height="27" fill="white"/>
    </clipPath>
  </defs>
</svg>
