<svg width="14" height="18" viewBox="0 0 14 18" fill="none" xmlns="http://www.w3.org/2000/svg">
<path fill-rule="evenodd" clip-rule="evenodd" d="M3.48821 3.91988C4.43218 2.89499 5.69711 2.33366 7.00004 2.33366C8.30298 2.33366 9.5679 2.89499 10.5119 3.91988C11.458 4.94707 12 6.35386 12 7.83366C12 8.36743 11.8162 9.04714 11.4607 9.83621C11.1103 10.6142 10.6201 11.4397 10.0718 12.2482C8.99265 13.8396 7.73256 15.3005 7.00004 16.1099C6.26752 15.3005 5.00743 13.8396 3.92825 12.2482C3.37993 11.4397 2.88982 10.6142 2.53936 9.83621C2.18391 9.04714 2.00004 8.36743 2.00004 7.83366C2.00004 6.35386 2.54211 4.94707 3.48821 3.91988ZM7.00004 0.666992C5.20878 0.666992 3.50625 1.44018 2.2623 2.79075C1.02047 4.13903 0.333374 5.95405 0.333374 7.83366C0.333374 8.70662 0.621323 9.63625 1.01975 10.5207C1.42315 11.4163 1.96897 12.3286 2.54886 13.1837C3.70876 14.894 5.05105 16.4424 5.80074 17.2684C6.44701 17.9806 7.55307 17.9805 8.19934 17.2684C8.94903 16.4424 10.2913 14.894 11.4512 13.1837C12.0311 12.3286 12.5769 11.4163 12.9803 10.5207C13.3788 9.63625 13.6667 8.70662 13.6667 7.83366C13.6667 5.95405 12.9796 4.13903 11.7378 2.79075C10.4938 1.44018 8.7913 0.666992 7.00004 0.666992ZM6.16671 8.16699C6.16671 7.70676 6.5398 7.33366 7.00004 7.33366C7.46028 7.33366 7.83337 7.70676 7.83337 8.16699C7.83337 8.62723 7.46028 9.00033 7.00004 9.00033C6.5398 9.00033 6.16671 8.62723 6.16671 8.16699ZM7.00004 5.66699C5.61933 5.66699 4.50004 6.78628 4.50004 8.16699C4.50004 9.5477 5.61933 10.667 7.00004 10.667C8.38075 10.667 9.50004 9.5477 9.50004 8.16699C9.50004 6.78628 8.38075 5.66699 7.00004 5.66699Z" fill="#00AEE5"/>
</svg>
