<svg width="20" height="21" viewBox="0 0 20 21" fill="none" xmlns="http://www.w3.org/2000/svg">
<path fill-rule="evenodd" clip-rule="evenodd" d="M18.3346 4.66671C18.3346 5.12695 17.9615 5.50004 17.5013 5.50004L2.5013 5.50004C2.04107 5.50004 1.66797 5.12694 1.66797 4.66671C1.66797 4.20647 2.04107 3.83337 2.5013 3.83337H17.5013C17.9615 3.83337 18.3346 4.20647 18.3346 4.66671ZM18.3346 10.5C18.3346 10.9603 17.9615 11.3334 17.5013 11.3334L2.5013 11.3334C2.04107 11.3334 1.66797 10.9603 1.66797 10.5C1.66797 10.0398 2.04107 9.66671 2.5013 9.66671L17.5013 9.66671C17.9615 9.66671 18.3346 10.0398 18.3346 10.5ZM17.5013 17.1667C17.9615 17.1667 18.3346 16.7936 18.3346 16.3334C18.3346 15.8731 17.9615 15.5 17.5013 15.5L2.5013 15.5C2.04107 15.5 1.66797 15.8731 1.66797 16.3334C1.66797 16.7936 2.04107 17.1667 2.5013 17.1667L17.5013 17.1667Z" fill="#141416"/>
</svg>
