<svg width="20" height="21" viewBox="0 0 20 21" fill="none" xmlns="http://www.w3.org/2000/svg">
<path fill-rule="evenodd" clip-rule="evenodd" d="M10.669 3.83329C6.87495 3.83329 3.8399 6.81698 3.8399 10.4481C3.8399 11.5016 4.09355 12.496 4.54504 13.3791C4.74574 13.7717 4.64731 14.169 4.58562 14.3623C4.51177 14.5937 4.39169 14.8267 4.27049 15.0347C4.04164 15.4276 3.72151 15.8764 3.43107 16.2836C3.41217 16.31 3.39339 16.3364 3.37478 16.3625C3.24787 16.5405 3.12816 16.7094 3.01942 16.8675C3.25578 16.7713 3.51416 16.6585 3.78923 16.5367C3.83869 16.5148 3.88871 16.4926 3.93915 16.4702C4.41197 16.2604 4.92229 16.0339 5.36657 15.8779C5.61302 15.7914 5.8739 15.7138 6.12144 15.6756C6.34077 15.6418 6.69329 15.614 7.02721 15.7753C7.06903 15.7955 7.11175 15.8162 7.15531 15.8373C7.65581 16.0795 8.26717 16.3754 8.89556 16.6204C9.59702 16.894 10.2205 17.063 10.669 17.063C14.463 17.063 17.4981 14.0793 17.4981 10.4481C17.4981 6.81698 14.463 3.83329 10.669 3.83329ZM2.0418 17.1663C2.04195 17.1662 2.04517 17.1661 2.05099 17.1667C2.04456 17.1667 2.04165 17.1665 2.0418 17.1663ZM2.17324 10.4481C2.17324 5.85227 5.99934 2.16663 10.669 2.16663C15.3386 2.16663 19.1647 5.85227 19.1647 10.4481C19.1647 15.044 15.3386 18.7296 10.669 18.7296C9.89418 18.7296 9.02846 18.4611 8.29009 18.1732C7.5969 17.9029 6.92823 17.5791 6.43376 17.3397C6.42024 17.3331 6.40685 17.3267 6.39359 17.3202C6.38804 17.321 6.38201 17.3218 6.37546 17.3228C6.27494 17.3383 6.12455 17.3782 5.91859 17.4505C5.54142 17.5829 5.09449 17.7811 4.60518 17.9981C4.55849 18.0188 4.51142 18.0396 4.46398 18.0606C3.94516 18.2904 3.37403 18.5398 2.88691 18.687C2.6454 18.7599 2.37364 18.8241 2.11032 18.8324C1.86693 18.84 1.45498 18.805 1.13596 18.4813C0.769626 18.1095 0.815762 17.6403 0.865308 17.4132C0.919737 17.1636 1.03505 16.92 1.14538 16.7176C1.37068 16.3045 1.71154 15.8245 2.01758 15.3951L2.05355 15.3447C2.36308 14.9105 2.64167 14.5197 2.83034 14.1958C2.8932 14.0879 2.93615 14.0039 2.96401 13.9415C2.45665 12.8797 2.17324 11.6954 2.17324 10.4481ZM3.00543 13.8258C3.0059 13.8255 3.00506 13.8312 3.00149 13.8436C3.00318 13.8323 3.00496 13.8261 3.00543 13.8258ZM6.44428 17.3164C6.44419 17.3165 6.44161 17.3166 6.43683 17.3163C6.44199 17.3161 6.44438 17.3163 6.44428 17.3164Z" fill="#141416"/>
</svg>
