<svg width="18" height="18" viewBox="0 0 18 18" fill="none" xmlns="http://www.w3.org/2000/svg">
  <path fill-rule="evenodd" clip-rule="evenodd" d="M0.674977 2.22343C0.706981 1.31314 1.4697 0.666992 2.31232 0.666992H4.7676C5.52826 0.666992 6.19241 1.182 6.38179 1.91871L7.04363 4.49335C7.2141 5.15647 6.96167 5.85638 6.40718 6.25804L3.54948 8.3281C4.65347 10.7392 6.62746 13.039 9.96622 14.4042L12.1331 11.7164C12.5506 11.1986 13.236 10.9785 13.8769 11.1566L16.1127 11.7779C16.834 11.9783 17.3332 12.635 17.3332 13.3837V15.6428C17.3332 16.5742 16.5582 17.3535 15.5914 17.2934C13.4425 17.1598 11.5722 16.7708 9.95018 16.1837C5.48472 14.5673 2.99565 11.4862 1.74758 8.35183C0.883231 6.18114 0.612987 3.98657 0.674977 2.22343ZM11.6459 14.9762C12.8319 15.306 14.1664 15.5331 15.6665 15.6281V13.3837L13.4307 12.7624L11.6459 14.9762ZM2.93727 6.71358L5.42945 4.90829L4.7676 2.33366H2.33891C2.29964 3.60891 2.45753 5.14593 2.93727 6.71358Z" fill="#00AEE5"/>
</svg>
