<svg width="18" height="18" viewBox="0 0 18 18" fill="none" xmlns="http://www.w3.org/2000/svg">
<path fill-rule="evenodd" clip-rule="evenodd" d="M0.675099 2.22343C0.707103 1.31314 1.46983 0.666992 2.31245 0.666992H4.76772C5.52838 0.666992 6.19253 1.182 6.38191 1.91871L7.04376 4.49335C7.21422 5.15647 6.96179 5.85638 6.4073 6.25804L3.54961 8.3281C4.6536 10.7392 6.62758 13.039 9.96635 14.4042L12.1333 11.7164C12.5507 11.1986 13.2361 10.9785 13.877 11.1566L16.1128 11.7779C16.8341 11.9783 17.3333 12.635 17.3333 13.3837V15.6428C17.3333 16.5742 16.5584 17.3535 15.5915 17.2934C13.4426 17.1598 11.5723 16.7708 9.9503 16.1837C5.48484 14.5673 2.99577 11.4862 1.7477 8.35183C0.883353 6.18114 0.613109 3.98657 0.675099 2.22343ZM11.646 14.9762C12.8321 15.306 14.1666 15.5331 15.6666 15.6281V13.3837L13.4308 12.7624L11.646 14.9762ZM2.9374 6.71358L5.42957 4.90829L4.76772 2.33366H2.33903C2.29977 3.60891 2.45765 5.14593 2.9374 6.71358Z" fill="#00AEE5"/>
</svg>
