<svg width="28" height="28" viewBox="0 0 28 28" fill="none" xmlns="http://www.w3.org/2000/svg">
<circle cx="14" cy="14" r="14" fill="#00AEE5"/>
<path d="M16.7362 19.722L15.2522 17.944C14.8416 18.0467 14.4216 18.098 13.9922 18.098C13.0776 18.098 12.2376 17.8833 11.4722 17.454C10.7069 17.0247 10.1002 16.432 9.65223 15.676C9.20423 14.9107 8.98023 14.0473 8.98023 13.086C8.98023 12.134 9.20423 11.28 9.65223 10.524C10.1002 9.75867 10.7069 9.16133 11.4722 8.732C12.2376 8.30267 13.0776 8.088 13.9922 8.088C14.9162 8.088 15.7562 8.30267 16.5122 8.732C17.2776 9.16133 17.8796 9.75867 18.3182 10.524C18.7662 11.28 18.9902 12.134 18.9902 13.086C18.9902 13.954 18.8036 14.7473 18.4302 15.466C18.0662 16.1753 17.5669 16.754 16.9322 17.202L19.1722 19.722H16.7362ZM10.9962 13.086C10.9962 13.7393 11.1222 14.3133 11.3742 14.808C11.6262 15.3027 11.9762 15.6853 12.4242 15.956C12.8816 16.2173 13.4042 16.348 13.9922 16.348C14.5802 16.348 15.0982 16.2173 15.5462 15.956C15.9942 15.6853 16.3442 15.3027 16.5962 14.808C16.8482 14.3133 16.9742 13.7393 16.9742 13.086C16.9742 12.4327 16.8482 11.8633 16.5962 11.378C16.3442 10.8833 15.9942 10.5053 15.5462 10.244C15.0982 9.98267 14.5802 9.852 13.9922 9.852C13.4042 9.852 12.8816 9.98267 12.4242 10.244C11.9762 10.5053 11.6262 10.8833 11.3742 11.378C11.1222 11.8633 10.9962 12.4327 10.9962 13.086Z" fill="white"/>
</svg>
