<svg width="17" height="17" viewBox="0 0 17 17" fill="none" xmlns="http://www.w3.org/2000/svg">
<path fill-rule="evenodd" clip-rule="evenodd" d="M1.40576 7.62371C0.921803 7.62371 0.529475 8.01604 0.529475 8.5C0.529475 8.98396 0.921803 9.37629 1.40576 9.37629L7.53979 9.37629L7.53979 15.5103C7.53979 15.9943 7.93212 16.3866 8.41608 16.3866C8.90005 16.3866 9.29237 15.9943 9.29237 15.5103L9.29237 9.37629L15.4264 9.37629C15.9104 9.37629 16.3027 8.98396 16.3027 8.5C16.3027 8.01604 15.9104 7.62371 15.4264 7.62371L9.29237 7.62371L9.29237 1.48968C9.29237 1.00572 8.90005 0.613392 8.41608 0.613393C7.93212 0.613393 7.53979 1.00572 7.53979 1.48968L7.53979 7.62371L1.40576 7.62371Z" fill="white"/>
</svg>
