<svg width="20" height="13" viewBox="0 0 20 13" fill="none" xmlns="http://www.w3.org/2000/svg">
  <path fill-rule="evenodd" clip-rule="evenodd" d="M2.49984 6.77683C2.49984 6.74629 2.51445 6.63219 2.61034 6.42168C2.70162 6.22129 2.84631 5.97771 3.04823 5.70307C3.45186 5.15408 4.04612 4.53252 4.77637 3.94774C6.25305 2.76522 8.15761 1.83264 10.0037 1.83264C11.8528 1.83264 13.7562 2.75368 15.2286 3.92746C15.9571 4.50826 16.5493 5.12708 16.9513 5.67707C17.3833 6.26823 17.4998 6.64882 17.4998 6.77683C17.4998 6.88415 17.4005 7.21356 16.9765 7.72946C16.5823 8.20902 15.9963 8.74059 15.2685 9.23655C13.8043 10.2344 11.8848 11.0091 10.0081 10.9993C8.1286 10.9894 6.20404 10.2001 4.73509 9.1987C4.00504 8.70103 3.41681 8.17049 3.0211 7.69517C2.59222 7.18002 2.49984 6.86324 2.49984 6.77683ZM10.0037 0.165977C7.63743 0.165977 5.37341 1.33443 3.73458 2.6468C2.90708 3.30946 2.20685 4.03381 1.70543 4.71581C1.45484 5.05666 1.24436 5.39984 1.09361 5.73081C0.947458 6.05166 0.833172 6.4135 0.833172 6.77683C0.833172 7.47817 1.25981 8.18448 1.74023 8.76154C2.25382 9.37844 2.96519 10.0093 3.7963 10.5758C5.44967 11.7029 7.6937 12.6538 9.9993 12.6659C12.3076 12.678 14.5528 11.7412 16.2071 10.6138C17.0386 10.0471 17.7503 9.4127 18.264 8.78781C18.7478 8.19927 19.1665 7.48581 19.1665 6.77683C19.1665 6.08855 18.7684 5.33881 18.2968 4.69362C17.7952 4.00727 17.0948 3.28375 16.2675 2.62424C14.6282 1.3174 12.3669 0.165977 10.0037 0.165977ZM9.99984 9.33265C11.6107 9.33265 12.9165 8.02681 12.9165 6.41598C12.9165 4.80515 11.6107 3.49931 9.99984 3.49931C8.38901 3.49931 7.08317 4.80515 7.08317 6.41598C7.08317 8.02681 8.38901 9.33265 9.99984 9.33265ZM11.2498 6.41598C11.2498 7.10633 10.6902 7.66598 9.99984 7.66598C9.30948 7.66598 8.74984 7.10633 8.74984 6.41598C8.74984 5.72562 9.30948 5.16598 9.99984 5.16598C10.6902 5.16598 11.2498 5.72562 11.2498 6.41598Z" fill="#B3B3B3"/>
</svg>
