<svg width="12" height="14" viewBox="0 0 12 14" fill="none" xmlns="http://www.w3.org/2000/svg">
  <path fill-rule="evenodd" clip-rule="evenodd" d="M1.62466 8.21924C1.19339 7.87423 0.564102 7.94415 0.219093 8.37541C-0.125916 8.80667 -0.055995 9.43597 0.375267 9.78098L4.75057 13.2812C5.48101 13.8656 6.51891 13.8656 7.24935 13.2812L11.6247 9.78098C12.0559 9.43597 12.1258 8.80667 11.7808 8.37541C11.4358 7.94415 10.8065 7.87423 10.3753 8.21924L5.99996 11.7195L1.62466 8.21924ZM1.62466 0.21924C1.1934 -0.12577 0.564104 -0.0558481 0.219095 0.375414C-0.125915 0.806675 -0.0559931 1.43597 0.375269 1.78098L4.75057 5.28122C5.48101 5.86557 6.51892 5.86557 7.24935 5.28122L11.6247 1.78098C12.0559 1.43597 12.1258 0.806676 11.7808 0.375414C11.4358 -0.0558481 10.8065 -0.12577 10.3753 0.21924L5.99996 3.71948L1.62466 0.21924Z" fill="#00AEE5"/>
</svg>
