<svg width="20" height="18" viewBox="0 0 20 18" fill="none" xmlns="http://www.w3.org/2000/svg">
<path fill-rule="evenodd" clip-rule="evenodd" d="M17.7641 5.96884L10.0002 9.90814L2.23625 5.96884L10.0002 2.02954L17.7641 5.96884ZM9.10575 11.7234C9.66881 12.0091 10.3316 12.0091 10.8946 11.7234L18.6585 7.78412C20.1326 7.03619 20.1326 4.9015 18.6585 4.15357L10.8946 0.214264C10.3316 -0.0714205 9.66881 -0.0714224 9.10575 0.214264L1.34183 4.15357C-0.132268 4.9015 -0.132278 7.03618 1.34182 7.78412L9.10575 11.7234ZM0.514538 12.9445L9.0289 17.7446C9.63294 18.0851 10.3674 18.0851 10.9715 17.7446L19.4858 12.9445C19.9686 12.6724 20.1426 12.0546 19.8743 11.5646C19.6061 11.0747 18.9973 10.8982 18.5145 11.1704L10.0002 15.9705L1.48583 11.1704C1.00304 10.8982 0.394238 11.0747 0.126025 11.5646C-0.142188 12.0546 0.031756 12.6724 0.514538 12.9445Z" fill="white"/>
</svg>
