<svg width="20" height="20" viewBox="0 0 20 20" fill="none" xmlns="http://www.w3.org/2000/svg">
<path fill-rule="evenodd" clip-rule="evenodd" d="M12.9532 6C12.9532 9.31371 10.2669 12 6.95319 12C3.63948 12 0.953191 9.31371 0.953191 6C0.953191 2.68629 3.63948 0 6.95319 0C10.2669 0 12.9532 2.68629 12.9532 6ZM6.95319 10C9.16233 10 10.9532 8.20914 10.9532 6C10.9532 3.79086 9.16233 2 6.95319 2C4.74405 2 2.95319 3.79086 2.95319 6C2.95319 8.20914 4.74405 10 6.95319 10ZM2.97814 15.6878C2.05897 16.1157 2 16.4891 2 16.5V16.5073V16.5146V16.522V16.5293V16.5366V16.5439V16.5513V16.5586V16.5659V16.5732V16.5806V16.5879V16.5952V16.6025V16.6098V16.6171V16.6245V16.6318V16.6391V16.6464V16.6537V16.661V16.6683V16.6757V16.683V16.6903V16.6976V16.7049V16.7122V16.7195V16.7268V16.7341V16.7414V16.7487V16.7559V16.7632V16.7705V16.7778V16.7851V16.7924V16.7997V16.8069V16.8142V16.8215V16.8287V16.836V16.8433V16.8505V16.8578V16.865V16.8723V16.8796V16.8868V16.894V16.9013V16.9085V16.9158V16.923V16.9302V16.9374V16.9447V16.9519V16.9591V16.9663V16.9735V16.9807V16.9879V16.9951V17.0023V17.0095V17.0167V17.0239V17.031V17.0382V17.0454V17.0526V17.0597V17.0669V17.074V17.0812V17.0883V17.0955V17.1026V17.1097V17.1168V17.124V17.1311V17.1382V17.1453V17.1524V17.1595V17.1666V17.1737V17.1807V17.1878V17.1949V17.202V17.209V17.2161V17.2231V17.2302V17.2372V17.2442V17.2512V17.2583V17.2653V17.2723V17.2793V17.2863V17.2933V17.3003V17.3072V17.3142V17.3212V17.3281V17.3351V17.342V17.349V17.3559V17.3628V17.3697V17.3766V17.3835V17.3904V17.3973V17.4042V17.4111V17.418V17.4248V17.4317V17.4385V17.4454V17.4522V17.459V17.4659V17.4727V17.4795V17.4863V17.4931V17.4998V17.5066V17.5134V17.5201V17.5269V17.5336V17.5404V17.5471V17.5538V17.5605V17.5672V17.5739V17.5806V17.5872V17.5939V17.6006V17.6072V17.6139V17.6205V17.6271V17.6337V17.6403V17.6469V17.6535V17.6601V17.6667V17.6732V17.6798V17.6863V17.6928V17.6994V17.7059V17.7124V17.7189V17.7254V17.7318V17.7383V17.7447V17.7512V17.7576V17.764V17.7705V17.7769V17.7833V17.7896V17.796V17.8024V17.8087V17.8151V17.8214V17.8277V17.834V17.8403V17.8466V17.8529V17.8592V17.8654V17.8717V17.8779V17.8841V17.8903V17.8965V17.9027V17.9089V17.9151V17.9212V17.9274V17.9335V17.9396V17.9457V17.9518V17.9579V17.964V17.9701V17.9761V17.9821V17.9882V17.9942V18.0002V18.0062V18.0122V18.0181V18.0241V18.03V18.0359V18.0419V18.0478V18.0537V18.0595V18.0654V18.0713V18.0771V18.0829V18.0887V18.0945V18.1003V18.1061V18.1119V18.1176V18.1233V18.1291V18.1348V18.1405V18.1462V18.1518V18.1575V18.1631V18.1687V18.1744V18.18V18.1855V18.1911V18.1967V18.2022V18.2077V18.2132V18.2188V18.2242V18.2297V18.2352V18.2406V18.246V18.2514V18.2568V18.2622V18.2676V18.273V18.2783V18.2836V18.2889V18.2942V18.2995V18.3048V18.31V18.3153V18.3205V18.3257V18.3309V18.336V18.3412V18.3463V18.3515V18.3566V18.3617V18.3667V18.3718V18.3769V18.3819V18.3869V18.3919V18.3969V18.4018V18.4068V18.4117V18.4167V18.4216V18.4264V18.4313V18.4362V18.441V18.4458V18.4506V18.4554V18.4602V18.4649V18.4696V18.4744V18.4791V18.4837V18.4884V18.4931V18.4977V18.5023V18.5069V18.5115V18.516V18.5206V18.5251V18.5296V18.5341V18.5386V18.543V18.5475V18.5519V18.5563V18.5607V18.565V18.5694V18.5737V18.578V18.5823V18.5866V18.5908V18.5951V18.5993V18.6035V18.6077V18.6118V18.616V18.6201V18.6242V18.6283V18.6323V18.6364V18.6404V18.6444V18.6484V18.6524V18.6563V18.6603V18.6642V18.6681V18.6719V18.6758V18.6796V18.6834V18.6872V18.691V18.6948V18.6985V18.7022V18.7059V18.7096V18.7132V18.7169V18.7205V18.7241V18.7276V18.7312V18.7347V18.7382V18.7417V18.7452V18.7486V18.752V18.7555V18.7588V18.7622V18.7655V18.7689V18.7722V18.7754V18.7787V18.7819V18.7852V18.7883V18.7915V18.7947V18.7978V18.8009V18.804V18.8071V18.8101V18.8131V18.8161V18.8191V18.822V18.825V18.8279V18.8308V18.8336V18.8365V18.8393V18.8421V18.8449V18.8476V18.8504V18.8531V18.8558V18.8584V18.8611V18.8637V18.8663V18.8688V18.8714V18.8739V18.8764V18.8789V18.8813V18.8838V18.8862V18.8886V18.8909V18.8933V18.8956V18.8979V18.9001V18.9024V18.9046V18.9068V18.9089V18.9111V18.9132V18.9153V18.9174V18.9194V18.9215V18.9235V18.9254V18.9274V18.9293V18.9312V18.9331V18.935V18.9368V18.9386V18.9404V18.9421V18.9438V18.9456V18.9472V18.9489V18.9505V18.9521V18.9537V18.9552V18.9568V18.9583V18.9598V18.9612V18.9626V18.964V18.9654V18.9667V18.9681V18.9694V18.9706V18.9719V18.9731V18.9743V18.9755V18.9766V18.9777V18.9788V18.9799V18.9809V18.9819V18.9829V18.9838V18.9848V18.9857V18.9865V18.9874V18.9882V18.989V18.9898V18.9905V18.9912V18.9919V18.9925V18.9932V18.9938V18.9944V18.9949V18.9954V18.9959V18.9964V18.9968V18.9972V18.9976V18.998V18.9983V18.9986V18.9988V18.9991V18.9993V18.9995V18.9996V18.9998V18.9999V18.9999V19C2 19.5523 1.55228 20 1 20C0.447715 20 0 19.5523 0 19V18.9999V18.9999V18.9998V18.9996V18.9995V18.9993V18.9991V18.9988V18.9986V18.9983V18.998V18.9976V18.9972V18.9968V18.9964V18.9959V18.9954V18.9949V18.9944V18.9938V18.9932V18.9925V18.9919V18.9912V18.9905V18.9898V18.989V18.9882V18.9874V18.9865V18.9857V18.9848V18.9838V18.9829V18.9819V18.9809V18.9799V18.9788V18.9777V18.9766V18.9755V18.9743V18.9731V18.9719V18.9706V18.9694V18.9681V18.9667V18.9654V18.964V18.9626V18.9612V18.9598V18.9583V18.9568V18.9552V18.9537V18.9521V18.9505V18.9489V18.9472V18.9456V18.9438V18.9421V18.9404V18.9386V18.9368V18.935V18.9331V18.9312V18.9293V18.9274V18.9254V18.9235V18.9215V18.9194V18.9174V18.9153V18.9132V18.9111V18.9089V18.9068V18.9046V18.9024V18.9001V18.8979V18.8956V18.8933V18.8909V18.8886V18.8862V18.8838V18.8813V18.8789V18.8764V18.8739V18.8714V18.8688V18.8663V18.8637V18.8611V18.8584V18.8558V18.8531V18.8504V18.8476V18.8449V18.8421V18.8393V18.8365V18.8336V18.8308V18.8279V18.825V18.822V18.8191V18.8161V18.8131V18.8101V18.8071V18.804V18.8009V18.7978V18.7947V18.7915V18.7883V18.7852V18.7819V18.7787V18.7754V18.7722V18.7689V18.7655V18.7622V18.7588V18.7555V18.752V18.7486V18.7452V18.7417V18.7382V18.7347V18.7312V18.7276V18.7241V18.7205V18.7169V18.7132V18.7096V18.7059V18.7022V18.6985V18.6948V18.691V18.6872V18.6834V18.6796V18.6758V18.6719V18.6681V18.6642V18.6603V18.6563V18.6524V18.6484V18.6444V18.6404V18.6364V18.6323V18.6283V18.6242V18.6201V18.616V18.6118V18.6077V18.6035V18.5993V18.5951V18.5908V18.5866V18.5823V18.578V18.5737V18.5694V18.565V18.5607V18.5563V18.5519V18.5475V18.543V18.5386V18.5341V18.5296V18.5251V18.5206V18.516V18.5115V18.5069V18.5023V18.4977V18.4931V18.4884V18.4837V18.4791V18.4744V18.4696V18.4649V18.4602V18.4554V18.4506V18.4458V18.441V18.4362V18.4313V18.4264V18.4216V18.4167V18.4117V18.4068V18.4018V18.3969V18.3919V18.3869V18.3819V18.3769V18.3718V18.3667V18.3617V18.3566V18.3515V18.3463V18.3412V18.336V18.3309V18.3257V18.3205V18.3153V18.31V18.3048V18.2995V18.2942V18.2889V18.2836V18.2783V18.273V18.2676V18.2622V18.2568V18.2514V18.246V18.2406V18.2352V18.2297V18.2242V18.2188V18.2132V18.2077V18.2022V18.1967V18.1911V18.1855V18.18V18.1744V18.1687V18.1631V18.1575V18.1518V18.1462V18.1405V18.1348V18.1291V18.1233V18.1176V18.1119V18.1061V18.1003V18.0945V18.0887V18.0829V18.0771V18.0713V18.0654V18.0595V18.0537V18.0478V18.0419V18.0359V18.03V18.0241V18.0181V18.0122V18.0062V18.0002V17.9942V17.9882V17.9821V17.9761V17.9701V17.964V17.9579V17.9518V17.9457V17.9396V17.9335V17.9274V17.9212V17.9151V17.9089V17.9027V17.8965V17.8903V17.8841V17.8779V17.8717V17.8654V17.8592V17.8529V17.8466V17.8403V17.834V17.8277V17.8214V17.8151V17.8087V17.8024V17.796V17.7896V17.7833V17.7769V17.7705V17.764V17.7576V17.7512V17.7447V17.7383V17.7318V17.7254V17.7189V17.7124V17.7059V17.6994V17.6928V17.6863V17.6798V17.6732V17.6667V17.6601V17.6535V17.6469V17.6403V17.6337V17.6271V17.6205V17.6139V17.6072V17.6006V17.5939V17.5872V17.5806V17.5739V17.5672V17.5605V17.5538V17.5471V17.5404V17.5336V17.5269V17.5201V17.5134V17.5066V17.4998V17.4931V17.4863V17.4795V17.4727V17.4659V17.459V17.4522V17.4454V17.4385V17.4317V17.4248V17.418V17.4111V17.4042V17.3973V17.3904V17.3835V17.3766V17.3697V17.3628V17.3559V17.349V17.342V17.3351V17.3281V17.3212V17.3142V17.3072V17.3003V17.2933V17.2863V17.2793V17.2723V17.2653V17.2583V17.2512V17.2442V17.2372V17.2302V17.2231V17.2161V17.209V17.202V17.1949V17.1878V17.1807V17.1737V17.1666V17.1595V17.1524V17.1453V17.1382V17.1311V17.124V17.1168V17.1097V17.1026V17.0955V17.0883V17.0812V17.074V17.0669V17.0597V17.0526V17.0454V17.0382V17.031V17.0239V17.0167V17.0095V17.0023V16.9951V16.9879V16.9807V16.9735V16.9663V16.9591V16.9519V16.9447V16.9374V16.9302V16.923V16.9158V16.9085V16.9013V16.894V16.8868V16.8796V16.8723V16.865V16.8578V16.8505V16.8433V16.836V16.8287V16.8215V16.8142V16.8069V16.7997V16.7924V16.7851V16.7778V16.7705V16.7632V16.7559V16.7487V16.7414V16.7341V16.7268V16.7195V16.7122V16.7049V16.6976V16.6903V16.683V16.6757V16.6683V16.661V16.6537V16.6464V16.6391V16.6318V16.6245V16.6171V16.6098V16.6025V16.5952V16.5879V16.5806V16.5732V16.5659V16.5586V16.5513V16.5439V16.5366V16.5293V16.522V16.5146V16.5073V16.5C0 15.2609 1.03928 14.3843 2.13413 13.8747C3.3084 13.328 4.92666 13 6.85957 13C8.79248 13 10.4107 13.328 11.585 13.8747C12.6799 14.3843 13.7191 15.2609 13.7191 16.5L13.7191 18.4531V18.873V18.9695V18.9925V18.9981V18.9995V18.9999V19V19C13.7191 19.5523 13.2714 20 12.7191 20C12.1668 20 11.7191 19.5523 11.7191 19V19V18.9999V18.9995V18.9982V18.9925V18.9695V18.873V18.4531L11.7191 16.5C11.7191 16.4891 11.6602 16.1157 10.741 15.6878C9.90126 15.297 8.58973 15 6.85957 15C5.12941 15 3.81788 15.297 2.97814 15.6878ZM13.722 2.3822C13.722 1.82992 14.1697 1.3822 14.722 1.3822C17.4835 1.3822 19.722 3.62078 19.722 6.3822C19.722 9.14363 17.4835 11.3822 14.722 11.3822C14.1697 11.3822 13.722 10.9345 13.722 10.3822C13.722 9.82992 14.1697 9.3822 14.722 9.3822C16.3789 9.3822 17.722 8.03906 17.722 6.3822C17.722 4.72535 16.3789 3.3822 14.722 3.3822C14.1697 3.3822 13.722 2.93449 13.722 2.3822ZM14 14C14 13.4477 14.4477 13 15 13C16.6874 13 17.9427 13.4718 18.7897 14.2249C19.6273 14.9695 20 15.9356 20 16.7778V16.7875V16.7973V16.807V16.8166V16.8263V16.8359V16.8455V16.8551V16.8646V16.8742V16.8837V16.8931V16.9026V16.912V16.9214V16.9308V16.9401V16.9495V16.9588V16.968V16.9773V16.9865V16.9957V17.0049V17.014V17.0232V17.0323V17.0413V17.0504V17.0594V17.0684V17.0774V17.0863V17.0953V17.1042V17.1131V17.1219V17.1307V17.1395V17.1483V17.1571V17.1658V17.1745V17.1832V17.1919V17.2005V17.2091V17.2177V17.2262V17.2348V17.2433V17.2518V17.2603V17.2687V17.2771V17.2855V17.2939V17.3022V17.3105V17.3188V17.3271V17.3354V17.3436V17.3518V17.36V17.3681V17.3762V17.3843V17.3924V17.4005V17.4085V17.4165V17.4245V17.4325V17.4404V17.4483V17.4562V17.4641V17.4719V17.4798V17.4876V17.4953V17.5031V17.5108V17.5185V17.5262V17.5339V17.5415V17.5491V17.5567V17.5643V17.5718V17.5793V17.5868V17.5943V17.6018V17.6092V17.6166V17.624V17.6313V17.6387V17.646V17.6533V17.6605V17.6678V17.675V17.6822V17.6894V17.6965V17.7036V17.7108V17.7178V17.7249V17.7319V17.739V17.7459V17.7529V17.7599V17.7668V17.7737V17.7806V17.7874V17.7943V17.8011V17.8079V17.8147V17.8214V17.8281V17.8348V17.8415V17.8482V17.8548V17.8614V17.868V17.8746V17.8811V17.8876V17.8942V17.9006V17.9071V17.9135V17.9199V17.9263V17.9327V17.9391V17.9454V17.9517V17.958V17.9642V17.9705V17.9767V17.9829V17.9891V17.9952V18.0014V18.0075V18.0136V18.0196V18.0257V18.0317V18.0377V18.0437V18.0497V18.0556V18.0615V18.0674V18.0733V18.0791V18.085V18.0908V18.0966V18.1023V18.1081V18.1138V18.1195V18.1252V18.1309V18.1365V18.1421V18.1477V18.1533V18.1589V18.1644V18.1699V18.1754V18.1809V18.1864V18.1918V18.1972V18.2026V18.208V18.2133V18.2187V18.224V18.2293V18.2345V18.2398V18.245V18.2502V18.2554V18.2606V18.2657V18.2708V18.2759V18.281V18.2861V18.2911V18.2961V18.3011V18.3061V18.3111V18.316V18.321V18.3259V18.3307V18.3356V18.3404V18.3453V18.3501V18.3549V18.3596V18.3644V18.3691V18.3738V18.3785V18.3831V18.3878V18.3924V18.397V18.4016V18.4061V18.4107V18.4152V18.4197V18.4242V18.4287V18.4331V18.4375V18.4419V18.4463V18.4507V18.455V18.4594V18.4637V18.468V18.4722V18.4765V18.4807V18.4849V18.4891V18.4933V18.4975V18.5016V18.5057V18.5098V18.5139V18.5179V18.522V18.526V18.53V18.534V18.538V18.5419V18.5458V18.5497V18.5536V18.5575V18.5613V18.5652V18.569V18.5728V18.5766V18.5803V18.5841V18.5878V18.5915V18.5952V18.5988V18.6025V18.6061V18.6097V18.6133V18.6169V18.6204V18.624V18.6275V18.631V18.6345V18.6379V18.6414V18.6448V18.6482V18.6516V18.655V18.6583V18.6617V18.665V18.6683V18.6716V18.6748V18.6781V18.6813V18.6845V18.6877V18.6909V18.694V18.6972V18.7003V18.7034V18.7065V18.7095V18.7126V18.7156V18.7186V18.7216V18.7246V18.7276V18.7305V18.7334V18.7363V18.7392V18.7421V18.7449V18.7478V18.7506V18.7534V18.7562V18.759V18.7617V18.7644V18.7672V18.7699V18.7725V18.7752V18.7779V18.7805V18.7831V18.7857V18.7883V18.7908V18.7934V18.7959V18.7984V18.8009V18.8034V18.8059V18.8083V18.8107V18.8132V18.8155V18.8179V18.8203V18.8226V18.825V18.8273V18.8296V18.8318V18.8341V18.8363V18.8386V18.8408V18.843V18.8452V18.8473V18.8495V18.8516V18.8537V18.8558V18.8579V18.8599V18.862V18.864V18.866V18.868V18.87V18.872V18.8739V18.8759V18.8778V18.8797V18.8816V18.8835V18.8853V18.8872V18.889V18.8908V18.8926V18.8943V18.8961V18.8979V18.8996V18.9013V18.903V18.9047V18.9063V18.908V18.9096V18.9112V18.9128V18.9144V18.916V18.9176V18.9191V18.9206V18.9221V18.9236V18.9251V18.9266V18.928V18.9295V18.9309V18.9323V18.9337V18.935V18.9364V18.9377V18.9391V18.9404V18.9417V18.943V18.9442V18.9455V18.9467V18.9479V18.9492V18.9503V18.9515V18.9527V18.9538V18.955V18.9561V18.9572V18.9583V18.9594V18.9604V18.9615V18.9625V18.9635V18.9645V18.9655V18.9665V18.9674V18.9684V18.9693V18.9702V18.9711V18.972V18.9729V18.9737V18.9746V18.9754V18.9762V18.977V18.9778V18.9786V18.9793V18.9801V18.9808V18.9815V18.9822V18.9829V18.9836V18.9842V18.9849V18.9855V18.9861V18.9867V18.9873V18.9879V18.9885V18.989V18.9896V18.9901V18.9906V18.9911V18.9916V18.992V18.9925V18.9929V18.9934V18.9938V18.9942V18.9946V18.9949V18.9953V18.9956V18.996V18.9963V18.9966V18.9969V18.9972V18.9974V18.9977V18.9979V18.9981V18.9984V18.9986V18.9987V18.9989V18.9991V18.9992V18.9994V18.9995V18.9996V18.9997V18.9998V18.9998V18.9999V18.9999V19V19C20 19.5523 19.5523 20 19 20C18.4477 20 18 19.5523 18 19V19V18.9999V18.9999V18.9998V18.9998V18.9997V18.9996V18.9995V18.9994V18.9992V18.9991V18.9989V18.9987V18.9986V18.9984V18.9981V18.9979V18.9977V18.9974V18.9972V18.9969V18.9966V18.9963V18.996V18.9956V18.9953V18.9949V18.9946V18.9942V18.9938V18.9934V18.9929V18.9925V18.992V18.9916V18.9911V18.9906V18.9901V18.9896V18.989V18.9885V18.9879V18.9873V18.9867V18.9861V18.9855V18.9849V18.9842V18.9836V18.9829V18.9822V18.9815V18.9808V18.9801V18.9793V18.9786V18.9778V18.977V18.9762V18.9754V18.9746V18.9737V18.9729V18.972V18.9711V18.9702V18.9693V18.9684V18.9674V18.9665V18.9655V18.9645V18.9635V18.9625V18.9615V18.9604V18.9594V18.9583V18.9572V18.9561V18.955V18.9538V18.9527V18.9515V18.9503V18.9492V18.9479V18.9467V18.9455V18.9442V18.943V18.9417V18.9404V18.9391V18.9377V18.9364V18.935V18.9337V18.9323V18.9309V18.9295V18.928V18.9266V18.9251V18.9236V18.9221V18.9206V18.9191V18.9176V18.916V18.9144V18.9128V18.9112V18.9096V18.908V18.9063V18.9047V18.903V18.9013V18.8996V18.8979V18.8961V18.8943V18.8926V18.8908V18.889V18.8872V18.8853V18.8835V18.8816V18.8797V18.8778V18.8759V18.8739V18.872V18.87V18.868V18.866V18.864V18.862V18.8599V18.8579V18.8558V18.8537V18.8516V18.8495V18.8473V18.8452V18.843V18.8408V18.8386V18.8363V18.8341V18.8318V18.8296V18.8273V18.825V18.8226V18.8203V18.8179V18.8155V18.8132V18.8107V18.8083V18.8059V18.8034V18.8009V18.7984V18.7959V18.7934V18.7908V18.7883V18.7857V18.7831V18.7805V18.7779V18.7752V18.7725V18.7699V18.7672V18.7644V18.7617V18.759V18.7562V18.7534V18.7506V18.7478V18.7449V18.7421V18.7392V18.7363V18.7334V18.7305V18.7276V18.7246V18.7216V18.7186V18.7156V18.7126V18.7095V18.7065V18.7034V18.7003V18.6972V18.694V18.6909V18.6877V18.6845V18.6813V18.6781V18.6748V18.6716V18.6683V18.665V18.6617V18.6583V18.655V18.6516V18.6482V18.6448V18.6414V18.6379V18.6345V18.631V18.6275V18.624V18.6204V18.6169V18.6133V18.6097V18.6061V18.6025V18.5988V18.5952V18.5915V18.5878V18.5841V18.5803V18.5766V18.5728V18.569V18.5652V18.5613V18.5575V18.5536V18.5497V18.5458V18.5419V18.538V18.534V18.53V18.526V18.522V18.5179V18.5139V18.5098V18.5057V18.5016V18.4975V18.4933V18.4891V18.4849V18.4807V18.4765V18.4722V18.468V18.4637V18.4594V18.455V18.4507V18.4463V18.4419V18.4375V18.4331V18.4287V18.4242V18.4197V18.4152V18.4107V18.4061V18.4016V18.397V18.3924V18.3878V18.3831V18.3785V18.3738V18.3691V18.3644V18.3596V18.3549V18.3501V18.3453V18.3404V18.3356V18.3307V18.3259V18.321V18.316V18.3111V18.3061V18.3011V18.2961V18.2911V18.2861V18.281V18.2759V18.2708V18.2657V18.2606V18.2554V18.2502V18.245V18.2398V18.2345V18.2293V18.224V18.2187V18.2133V18.208V18.2026V18.1972V18.1918V18.1864V18.1809V18.1754V18.1699V18.1644V18.1589V18.1533V18.1477V18.1421V18.1365V18.1309V18.1252V18.1195V18.1138V18.1081V18.1023V18.0966V18.0908V18.085V18.0791V18.0733V18.0674V18.0615V18.0556V18.0497V18.0437V18.0377V18.0317V18.0257V18.0196V18.0136V18.0075V18.0014V17.9952V17.9891V17.9829V17.9767V17.9705V17.9642V17.958V17.9517V17.9454V17.9391V17.9327V17.9263V17.9199V17.9135V17.9071V17.9006V17.8942V17.8876V17.8811V17.8746V17.868V17.8614V17.8548V17.8482V17.8415V17.8348V17.8281V17.8214V17.8147V17.8079V17.8011V17.7943V17.7874V17.7806V17.7737V17.7668V17.7599V17.7529V17.7459V17.739V17.7319V17.7249V17.7178V17.7108V17.7036V17.6965V17.6894V17.6822V17.675V17.6678V17.6605V17.6533V17.646V17.6387V17.6313V17.624V17.6166V17.6092V17.6018V17.5943V17.5868V17.5793V17.5718V17.5643V17.5567V17.5491V17.5415V17.5339V17.5262V17.5185V17.5108V17.5031V17.4953V17.4876V17.4798V17.4719V17.4641V17.4562V17.4483V17.4404V17.4325V17.4245V17.4165V17.4085V17.4005V17.3924V17.3843V17.3762V17.3681V17.36V17.3518V17.3436V17.3354V17.3271V17.3188V17.3105V17.3022V17.2939V17.2855V17.2771V17.2687V17.2603V17.2518V17.2433V17.2348V17.2262V17.2177V17.2091V17.2005V17.1919V17.1832V17.1745V17.1658V17.1571V17.1483V17.1395V17.1307V17.1219V17.1131V17.1042V17.0953V17.0863V17.0774V17.0684V17.0594V17.0504V17.0413V17.0323V17.0232V17.014V17.0049V16.9957V16.9865V16.9773V16.968V16.9588V16.9495V16.9401V16.9308V16.9214V16.912V16.9026V16.8931V16.8837V16.8742V16.8646V16.8551V16.8455V16.8359V16.8263V16.8166V16.807V16.7973V16.7875V16.7778C18 16.5088 17.873 16.086 17.4608 15.7196C17.058 15.3615 16.3132 15 15 15C14.4477 15 14 14.5523 14 14Z" fill="white"/>
</svg>
