<svg width="20" height="20" viewBox="0 0 20 20" fill="none" xmlns="http://www.w3.org/2000/svg">
<path fill-rule="evenodd" clip-rule="evenodd" d="M7 5.00001C7 3.95007 7.31087 3.22792 7.76939 2.76939C8.22792 2.31086 8.95007 2 10 2C11.0499 2 11.7721 2.31086 12.2306 2.76939C12.6891 3.22792 13 3.95007 13 5V5.00822V5.01643V5.02463V5.03282V5.04101V5.04918V5.05734V5.06549V5.07363V5.08176V5.08988V5.09799V5.10609V5.11418V5.12226V5.13033V5.13839V5.14644V5.15448V5.16251V5.17054V5.17855V5.18655V5.19454V5.20252V5.21049V5.21845V5.2264V5.23435V5.24228V5.2502V5.25811V5.26601V5.27391V5.28179V5.28966V5.29752V5.30538V5.31322V5.32105V5.32888V5.33669V5.34449V5.35229V5.36007V5.36785V5.37561V5.38336V5.39111V5.39884V5.40657V5.41428V5.42199V5.42969V5.43737V5.44505V5.45271V5.46037V5.46802V5.47566V5.48328V5.4909V5.49851V5.50611V5.5137V5.52127V5.52884V5.5364V5.54395V5.55149V5.55902V5.56654V5.57405V5.58155V5.58905V5.59653V5.604V5.61146V5.61892V5.62636V5.63379V5.64122V5.64863V5.65603V5.66343V5.67081V5.67819V5.68556V5.69291V5.70026V5.7076V5.71492V5.72224V5.72955V5.73685V5.74414V5.75142V5.75869V5.76595V5.7732V5.78044V5.78767V5.79489V5.80211V5.80931V5.8165V5.82369V5.83086V5.83803V5.84518V5.85233V5.85946V5.86659V5.87371V5.88082V5.88791V5.895V5.90208V5.90915V5.91621V5.92326V5.9303V5.93734V5.94436V5.95137V5.95838V5.96537V5.97235V5.97933V5.9863V5.99325V6.0002V6.00714V6.01407V6.02098V6.02789V6.03479V6.04168V6.04856V6.05544V6.0623V6.06915V6.076V6.08283V6.08965V6.09647V6.10328V6.11007V6.11686V6.12364V6.13041V6.13717V6.14392V6.15066V6.15739V6.16411V6.17083V6.17753V6.18422V6.19091V6.19758V6.20425V6.21091V6.21756V6.22419V6.23082V6.23744V6.24405V6.25066V6.25725V6.26383V6.2704V6.27697V6.28352V6.29007V6.29661V6.30314V6.30965V6.31616V6.32266V6.32915V6.33564V6.34211V6.34857V6.35503V6.36147V6.36791V6.37433V6.38075V6.38716V6.39356V6.39995V6.40633V6.4127V6.41906V6.42542V6.43176V6.4381V6.44442V6.45074V6.45705V6.46335V6.46964V6.47592V6.48219V6.48845V6.4947V6.50095V6.50718V6.51341V6.51963V6.52583V6.53203V6.53822V6.5444V6.55057V6.55674V6.56289V6.56904V6.57517V6.5813V6.58742V6.59352V6.59962V6.60571V6.6118V6.61787V6.62393V6.62999V6.63603V6.64207V6.6481V6.65412V6.66013V6.66613V6.67212V6.6781V6.68408V6.69004V6.696V6.70195V6.70788V6.71381V6.71973V6.72565V6.73155V6.73744V6.74333V6.7492V6.75507V6.76093V6.76678V6.77262V6.77845V6.78427V6.79009V6.79589V6.80169V6.80748V6.81325V6.81902V6.82479V6.83054V6.83628V6.84202V6.84774V6.85346V6.85917V6.86487V6.87056V6.87624V6.88191V6.88757V6.89323V6.89888V6.90451V6.91014V6.91576V6.92138V6.92698V6.93257V6.93816V6.94373V6.9493V6.95486V6.96041V6.96595V6.97149V6.97701V6.98253V6.98803V6.99353V6.99902V7.0045V7.00997V7.01544V7.02089V7.02634V7.03178V7.03721V7.04263V7.04804V7.05344V7.05883V7.06422V7.0696V7.07497V7.08033V7.08568V7.09102V7.09635V7.10168V7.107V7.1123V7.1176V7.12289V7.12818V7.13345V7.13872V7.14397V7.14922V7.15446V7.15969V7.16491V7.17013V7.17533V7.18053V7.18572V7.1909V7.19607V7.20123V7.20639V7.21153V7.21667V7.2218V7.22692V7.23203V7.23714V7.24223V7.24732V7.2524V7.25746V7.26253V7.26758V7.27262V7.27766V7.28269V7.2877V7.29272V7.29772V7.30271V7.3077V7.31267V7.31764V7.3226V7.32755V7.3325V7.33743V7.34236V7.34727V7.35218V7.35709V7.36198V7.36686V7.37174V7.37661V7.38147V7.38632V7.39116V7.396V7.40082V7.40564V7.41045V7.41525V7.42004V7.42483V7.4296V7.43437V7.43913V7.44388V7.44863V7.45336V7.45809V7.46281V7.46752V7.47222V7.47691V7.4816V7.48627V7.49094V7.4956V7.50026V7.5049V7.50954V7.51416V7.51878V7.52339V7.528V7.53259V7.53718V7.54176V7.54633V7.55089V7.55544V7.55999V7.56453V7.56906V7.57358V7.57809V7.58259V7.58709V7.59158V7.59606V7.60053V7.605V7.60945V7.6139V7.61834V7.62277V7.6272V7.63161V7.63602V7.64042V7.64481V7.64919V7.65357V7.65794V7.66229V7.66665V7.67099V7.67532V7.67965V7.68397V7.68828V7.69258V7.69688V7.70116V7.70544V7.70971V7.71397V7.71823V7.72248V7.72671V7.73094V7.73517V7.73938V7.74359V7.74779V7.75198V7.75616V7.76033V7.7645V7.76866V7.77281V7.77695V7.78109V7.78522V7.78934V7.79345V7.79755V7.80165V7.80573V7.80981V7.81388V7.81795V7.822V7.82605V7.83009V7.83412V7.83815V7.84216V7.84617V7.85017V7.85417V7.85815V7.86213V7.8661V7.87006V7.87401V7.87796V7.8819V7.88583V7.88975V7.89366V7.89757V7.90147V7.90536V7.90924V7.91312V7.91699V7.92085V7.9247V7.92854V7.93238V7.93621V7.94003V7.94384V7.94765V7.95145V7.95524V7.95902V7.96279V7.96656V7.97032V7.97407V7.97782V7.98155V7.98528V7.989V7.99271V7.99642V8H7L7 5.00001ZM5 8L5 5C5 3.54936 5.43885 2.27151 6.35518 1.35518C7.27151 0.43885 8.54936 0 10 0C11.4506 0 12.7285 0.43885 13.6448 1.35518C14.5612 2.27151 15 3.54936 15 5V5.00822V5.01643V5.02463V5.03282V5.04101V5.04918V5.05734V5.06549V5.07363V5.08176V5.08988V5.09799V5.10609V5.11418V5.12226V5.13033V5.13839V5.14644V5.15448V5.16251V5.17054V5.17855V5.18655V5.19454V5.20252V5.21049V5.21845V5.2264V5.23435V5.24228V5.2502V5.25811V5.26601V5.27391V5.28179V5.28966V5.29752V5.30538V5.31322V5.32105V5.32888V5.33669V5.34449V5.35229V5.36007V5.36785V5.37561V5.38336V5.39111V5.39884V5.40657V5.41428V5.42199V5.42969V5.43737V5.44505V5.45271V5.46037V5.46802V5.47566V5.48328V5.4909V5.49851V5.50611V5.5137V5.52127V5.52884V5.5364V5.54395V5.55149V5.55902V5.56654V5.57405V5.58155V5.58905V5.59653V5.604V5.61146V5.61892V5.62636V5.63379V5.64122V5.64863V5.65603V5.66343V5.67081V5.67819V5.68556V5.69291V5.70026V5.7076V5.71492V5.72224V5.72955V5.73685V5.74414V5.75142V5.75869V5.76595V5.7732V5.78044V5.78767V5.79489V5.80211V5.80931V5.8165V5.82369V5.83086V5.83803V5.84518V5.85233V5.85946V5.86659V5.87371V5.88082V5.88791V5.895V5.90208V5.90915V5.91621V5.92326V5.9303V5.93734V5.94436V5.95137V5.95838V5.96537V5.97235V5.97933V5.9863V5.99325V6.0002V6.00714V6.01407V6.02098V6.02789V6.03479V6.04168V6.04856V6.05544V6.0623V6.06915V6.076V6.08283V6.08965V6.09647V6.10328V6.11007V6.11686V6.12364V6.13041V6.13717V6.14392V6.15066V6.15739V6.16411V6.17083V6.17753V6.18422V6.19091V6.19758V6.20425V6.21091V6.21756V6.22419V6.23082V6.23744V6.24405V6.25066V6.25725V6.26383V6.2704V6.27697V6.28352V6.29007V6.29661V6.30314V6.30965V6.31616V6.32266V6.32915V6.33564V6.34211V6.34857V6.35503V6.36147V6.36791V6.37433V6.38075V6.38716V6.39356V6.39995V6.40633V6.4127V6.41906V6.42542V6.43176V6.4381V6.44442V6.45074V6.45705V6.46335V6.46964V6.47592V6.48219V6.48845V6.4947V6.50095V6.50718V6.51341V6.51963V6.52583V6.53203V6.53822V6.5444V6.55057V6.55674V6.56289V6.56904V6.57517V6.5813V6.58742V6.59352V6.59962V6.60571V6.6118V6.61787V6.62393V6.62999V6.63603V6.64207V6.6481V6.65412V6.66013V6.66613V6.67212V6.6781V6.68408V6.69004V6.696V6.70195V6.70788V6.71381V6.71973V6.72565V6.73155V6.73744V6.74333V6.7492V6.75507V6.76093V6.76678V6.77262V6.77845V6.78427V6.79009V6.79589V6.80169V6.80748V6.81325V6.81902V6.82479V6.83054V6.83628V6.84202V6.84774V6.85346V6.85917V6.86487V6.87056V6.87624V6.88191V6.88757V6.89323V6.89888V6.90451V6.91014V6.91576V6.92138V6.92698V6.93257V6.93816V6.94373V6.9493V6.95486V6.96041V6.96595V6.97149V6.97701V6.98253V6.98803V6.99353V6.99902V7.0045V7.00997V7.01544V7.02089V7.02634V7.03178V7.03721V7.04263V7.04804V7.05344V7.05883V7.06422V7.0696V7.07497V7.08033V7.08568V7.09102V7.09635V7.10168V7.107V7.1123V7.1176V7.12289V7.12818V7.13345V7.13872V7.14397V7.14922V7.15446V7.15969V7.16491V7.17013V7.17533V7.18053V7.18572V7.1909V7.19607V7.20123V7.20639V7.21153V7.21667V7.2218V7.22692V7.23203V7.23714V7.24223V7.24732V7.2524V7.25746V7.26253V7.26758V7.27262V7.27766V7.28269V7.2877V7.29272V7.29772V7.30271V7.3077V7.31267V7.31764V7.3226V7.32755V7.3325V7.33743V7.34236V7.34727V7.35218V7.35709V7.36198V7.36686V7.37174V7.37661V7.38147V7.38632V7.39116V7.396V7.40082V7.40564V7.41045V7.41525V7.42004V7.42483V7.4296V7.43437V7.43913V7.44388V7.44863V7.45336V7.45809V7.46281V7.46752V7.47222V7.47691V7.4816V7.48627V7.49094V7.4956V7.50026V7.5049V7.50954V7.51416V7.51878V7.52339V7.528V7.53259V7.53718V7.54176V7.54633V7.55089V7.55544V7.55999V7.56453V7.56906V7.57358V7.57809V7.58259V7.58709V7.59158V7.59606V7.60053V7.605V7.60945V7.6139V7.61834V7.62277V7.6272V7.63161V7.63602V7.64042V7.64481V7.64919V7.65357V7.65794V7.66229V7.66665V7.67099V7.67532V7.67965V7.68397V7.68828V7.69258V7.69688V7.70116V7.70544V7.70971V7.71397V7.71823V7.72248V7.72671V7.73094V7.73517V7.73938V7.74359V7.74779V7.75198V7.75616V7.76033V7.7645V7.76866V7.77281V7.77695V7.78109V7.78522V7.78934V7.79345V7.79755V7.80165V7.80573V7.80981V7.81388V7.81795V7.822V7.82605V7.83009V7.83412V7.83815V7.84216V7.84617V7.85017V7.85417V7.85815V7.86213V7.8661V7.87006V7.87401V7.87796V7.8819V7.88583V7.88975V7.89366V7.89757V7.90147V7.90536V7.90924V7.91312V7.91699V7.92085V7.9247V7.92854V7.93238V7.93621V7.94003V7.94384V7.94765V7.95145V7.95524V7.95902V7.96279V7.96656V7.97032V7.97407V7.97782V7.98155V7.98528V7.989V7.99271V7.99642V8H17C18.6569 8 20 9.34315 20 11V17C20 18.6569 18.6569 20 17 20H3C1.34315 20 0 18.6569 0 17V11C0 9.34315 1.34315 8 3 8H5ZM6.99605 10H3C2.44772 10 2 10.4477 2 11V17C2 17.5523 2.44772 18 3 18H17C17.5523 18 18 17.5523 18 17V11C18 10.4477 17.5523 10 17 10H13.0039C13.0026 10 13.0013 10 13 10H7C6.99868 10 6.99737 10 6.99605 10Z" fill="white"/>
</svg>
