<svg width="20" height="21" viewBox="0 0 20 21" fill="none" xmlns="http://www.w3.org/2000/svg">
<g clip-path="url(#clip0_1769_67029)">
<path d="M0 3.86742V16.2147C0 16.8172 0.49156 17.3057 1.09792 17.3057H13.3186V15.1399C13.0955 14.8836 12.9154 14.5962 12.782 14.2828C12.6116 13.8823 12.5252 13.4574 12.5252 13.0196C12.5252 12.5819 12.6116 12.157 12.782 11.7565C12.9465 11.3701 13.1818 11.0233 13.4814 10.7254C13.7811 10.4277 14.1302 10.1939 14.519 10.0304C14.922 9.86102 15.3496 9.77515 15.7901 9.77515C16.2306 9.77515 16.6582 9.86104 17.0611 10.0304C17.45 10.1938 17.799 10.4277 18.0987 10.7254C18.3984 11.0232 18.6336 11.3701 18.7982 11.7565C18.9686 12.157 19.055 12.5819 19.055 13.0196C19.055 13.4574 18.9685 13.8823 18.7982 14.2828C18.6647 14.5962 18.4847 14.8836 18.2615 15.1399V17.3057H18.9021C19.5084 17.3057 20 16.8172 20 16.2147V7.84286H16.2191C15.4926 7.84286 14.9015 7.25553 14.9015 6.5336V2.77637H1.09792C0.491538 2.77637 0 3.26486 0 3.86742ZM2.43793 6.20043H13.4035V7.40059H2.43793V6.20043ZM2.43793 10.4937H11.7347V11.1484H2.43793V10.4937ZM2.43793 12.5449H7.92072V13.1996H2.43793V12.5449Z" fill="white"/>
<path d="M15.5586 2.87879V6.53355C15.5586 6.89508 15.8535 7.18818 16.2173 7.18818H19.8956H19.9983L15.5586 2.77612V2.87879Z" fill="white"/>
<path d="M17.6019 17.3055V15.7185C17.4317 15.8316 17.2508 15.9287 17.0603 16.0087C16.6573 16.1781 16.2297 16.264 15.7892 16.264C15.3488 16.264 14.9212 16.1781 14.5182 16.0087C14.3277 15.9287 14.1468 15.8316 13.9766 15.7185V17.3055V18.8107L15.7892 18.0932L17.6019 18.8107V17.3055H17.6019Z" fill="white"/>
<path d="M17.9318 14.4948C18.0706 14.2961 18.1822 14.0772 18.2611 13.8433C18.3484 13.5846 18.3958 13.3075 18.3958 13.0195C18.3958 11.5892 17.229 10.4297 15.7897 10.4297C14.3504 10.4297 13.1836 11.5892 13.1836 13.0196C13.1836 13.3075 13.231 13.5846 13.3183 13.8433C13.3972 14.0772 13.5088 14.2961 13.6476 14.4948C13.7447 14.6337 13.8551 14.7628 13.977 14.8801C14.4461 15.3315 15.0852 15.6094 15.7897 15.6094C16.4942 15.6094 17.1333 15.3315 17.6024 14.8801C17.7243 14.7628 17.8347 14.6337 17.9318 14.4948Z" fill="white"/>
</g>
<defs>
<clipPath id="clip0_1769_67029">
<rect width="20" height="19.875" fill="white" transform="translate(0 0.856201)"/>
</clipPath>
</defs>
</svg>
