<svg width="20" height="20" viewBox="0 0 20 20" fill="none" xmlns="http://www.w3.org/2000/svg">
<g clip-path="url(#clip0_1769_67011)">
<path d="M5.56641 3.68237H8.16008V6.27608H5.56641V3.68237Z" fill="white"/>
<path d="M14.0807 5.02084H17.7753L13.0977 0.343262V4.03779C13.0977 4.57986 13.5387 5.02084 14.0807 5.02084Z" fill="white"/>
<path d="M14.0794 6.1927C12.8912 6.1927 11.9245 5.22602 11.9245 4.03777V0H4.03777C2.84953 0 1.88281 0.966719 1.88281 2.15496V17.845C1.88281 19.0333 2.84953 20 4.03773 20H15.9623C17.1505 20 18.1172 19.0333 18.1172 17.845V6.1927H14.0794ZM4.39328 3.09637C4.39328 2.77277 4.65559 2.51043 4.97922 2.51043H8.74477C9.0684 2.51043 9.33071 2.77277 9.33071 3.09637V6.86195C9.33071 7.18555 9.0684 7.44789 8.74477 7.44789H4.97922C4.65559 7.44789 4.39328 7.18555 4.39328 6.86195V3.09637ZM4.97922 8.78648H12.5104C12.8341 8.78648 13.0964 9.04883 13.0964 9.37242C13.0964 9.69602 12.8341 9.95836 12.5104 9.95836H4.97922C4.65559 9.95836 4.39328 9.69602 4.39328 9.37242C4.39328 9.04879 4.65559 8.78648 4.97922 8.78648ZM15.0209 17.4895H4.97922C4.65559 17.4895 4.39328 17.2272 4.39328 16.9036C4.39328 16.58 4.65559 16.3177 4.97922 16.3177H15.0209C15.3444 16.3177 15.6068 16.58 15.6068 16.9036C15.6068 17.2272 15.3444 17.4895 15.0209 17.4895ZM15.0209 14.9792H4.97922C4.65559 14.9792 4.39328 14.7168 4.39328 14.3932C4.39328 14.0696 4.65559 13.8073 4.97922 13.8073H15.0209C15.3444 13.8073 15.6068 14.0696 15.6068 14.3932C15.6068 14.7168 15.3444 14.9792 15.0209 14.9792ZM15.0209 12.4687H4.97922C4.65559 12.4687 4.39328 12.2064 4.39328 11.8828C4.39328 11.5592 4.65559 11.2968 4.97922 11.2968H15.0209C15.3444 11.2968 15.6068 11.5592 15.6068 11.8828C15.6068 12.2064 15.3444 12.4687 15.0209 12.4687Z" fill="white"/>
</g>
<defs>
<clipPath id="clip0_1769_67011">
<rect width="20" height="20" fill="white"/>
</clipPath>
</defs>
</svg>
