<svg width="20" height="20" viewBox="0 0 20 20" fill="none" xmlns="http://www.w3.org/2000/svg">
<g clip-path="url(#clip0_1769_67044)">
<path d="M19.7886 13.7028L17.8936 11.8076L13.9735 15.7278C13.2737 16.4275 12.3954 16.8838 11.4414 17.0545L13.9391 19.5522C14.1678 19.7811 14.5389 19.7811 14.7677 19.5522L19.7886 14.5315C20.0175 14.3026 20.0175 13.9315 19.7886 13.7028Z" fill="white"/>
<path d="M17.1224 10.9223C17.7829 10.2619 17.7831 9.18721 17.1233 8.52635C17.1225 8.52559 17.1217 8.52482 17.121 8.52406C16.9577 8.36094 16.767 8.23521 16.5593 8.15113C16.7394 7.69566 16.7774 6.9254 16.1809 6.32878C16.1794 6.32725 16.1778 6.32557 16.1762 6.32405C16.0137 6.16261 15.8241 6.0381 15.6178 5.95448C15.7979 5.49931 15.836 4.72889 15.2399 4.13258C15.2394 4.13212 15.2391 4.13181 15.2388 4.13151C15.0754 3.96809 14.8845 3.84205 14.6765 3.75797C14.8566 3.3025 14.8946 2.53208 14.2981 1.93546C14.298 1.93546 14.298 1.93531 14.2978 1.93531C14.2976 1.93516 14.2975 1.93501 14.2973 1.93485C13.6365 1.27399 12.5613 1.27399 11.9005 1.93485L10.7895 3.04569L11.3576 3.61378C12.3042 4.56043 12.3042 6.10066 11.3577 7.04731C11.0391 7.36576 10.6477 7.58458 10.2211 7.68879C10.119 8.10475 9.90601 8.49904 9.58146 8.82344C9.26331 9.14158 8.87253 9.36024 8.44635 9.46461C8.34214 9.89064 8.12333 10.2816 7.80533 10.5996C7.48719 10.9177 7.09641 11.1364 6.67023 11.2407C6.56601 11.6668 6.3472 12.0577 6.02921 12.3758C5.57068 12.8342 4.96094 13.0869 4.31244 13.0869C3.66394 13.0869 3.0542 12.8344 2.59567 12.3757L2.02759 11.8076L0.132599 13.7027C-0.096283 13.9316 -0.096283 14.3026 0.132599 14.5314L5.15335 19.5522C5.38224 19.7811 5.75318 19.7809 5.98206 19.5522L9.57612 15.9583H10.5887C11.5546 15.9583 12.4626 15.582 13.1456 14.8992L17.1224 10.9223Z" fill="white"/>
<path d="M3.42427 11.5473C3.91469 12.0379 4.70998 12.0379 5.2004 11.5473C5.69097 11.0569 5.69097 10.2617 5.2004 9.77117C5.69097 10.2617 6.4861 10.2617 6.97667 9.77117C7.46709 9.28075 7.46709 8.48546 6.97667 7.99505C7.46709 8.48546 8.26238 8.48546 8.7528 7.99505C9.24322 7.50463 9.24322 6.70934 8.7528 6.21892C9.24322 6.70934 10.0385 6.70934 10.5289 6.21892C11.0195 5.72835 11.0195 4.93322 10.5289 4.44264L8.02465 1.93837C7.53423 1.44795 6.73894 1.44795 6.24852 1.93837C5.75811 2.42879 5.75811 3.22408 6.24852 3.71449L6.56224 4.02837C6.07183 3.5378 5.27654 3.5378 4.78612 4.02837C4.2957 4.51879 4.2957 5.31407 4.78612 5.80449L5.41371 6.43209C4.9233 5.94167 4.12801 5.94167 3.63759 6.43209C3.14702 6.92251 3.14702 7.71779 3.63759 8.20821L4.26518 8.83596C3.77461 8.34539 2.97948 8.34539 2.48891 8.83596C1.99849 9.32638 1.99849 10.1215 2.48891 10.6121L3.42427 11.5473Z" fill="white"/>
<path d="M11.0704 1.10624C11.157 1.01957 11.2488 0.939917 11.3441 0.865912L11.0014 0.5232C10.8232 0.344824 10.5505 0.300726 10.3251 0.413336L8.87891 1.13645L9.95953 2.21723L11.0704 1.10624Z" fill="white"/>
</g>
<defs>
<clipPath id="clip0_1769_67044">
<rect width="20" height="20" fill="white"/>
</clipPath>
</defs>
</svg>
