<svg width="20" height="20" viewBox="0 0 20 20" fill="none" xmlns="http://www.w3.org/2000/svg">
<g clip-path="url(#clip0_1769_67037)">
<path d="M11.2823 13.865C10.9264 14.0834 10.4705 14.2036 9.99868 14.2036C9.52686 14.2036 9.07099 14.0834 8.71502 13.865L2.90346 10.3008C2.90346 10.3008 2.37891 9.97923 2.37891 10.7076C2.37891 11.5347 2.37891 14.0161 2.37891 14.0161C2.37891 14.0492 2.37891 14.2153 2.37891 14.2668C2.37891 16.1417 5.79034 18.163 9.99853 18.163C14.2067 18.163 17.6181 16.1418 17.6181 14.2668C17.6181 14.2153 17.6181 14.0492 17.6181 14.0161C17.6181 14.0161 17.6181 11.3843 17.6181 10.5069C17.6181 9.92229 17.2452 10.208 17.2452 10.208L11.2823 13.865Z" fill="white"/>
<path d="M19.6651 7.46561C20.1116 7.19176 20.1116 6.7436 19.6651 6.4697L10.8119 2.04255C10.3653 1.76869 9.63461 1.76869 9.18806 2.04255L0.334912 6.4697C-0.111637 6.74355 -0.111637 7.19171 0.334912 7.46561L9.18806 12.8953C9.63461 13.1692 10.3653 13.1692 10.8119 12.8953" fill="white"/>
<path d="M19.298 15.5138C19.298 14.0146 19.298 9.5171 19.298 9.5171C19.298 9.5171 19.3022 9.23306 19.1336 9.32686C18.9984 9.4021 18.667 9.58683 18.5503 9.68839C18.4155 9.80554 18.4459 10.0685 18.4459 10.0685C18.4459 10.0685 18.4459 14.1525 18.4459 15.5138C18.4459 15.5911 18.3794 15.628 18.3478 15.6466C18.0417 15.8265 17.8359 16.1586 17.8359 16.5394C17.8359 17.1116 18.2997 17.5754 18.872 17.5754C19.4441 17.5754 19.9079 17.1116 19.9079 16.5394C19.9079 16.1572 19.7006 15.824 19.3926 15.6446C19.362 15.6267 19.298 15.591 19.298 15.5138Z" fill="white"/>
</g>
<defs>
<clipPath id="clip0_1769_67037">
<rect width="20" height="20" fill="white"/>
</clipPath>
</defs>
</svg>
