<svg width="20" height="20" viewBox="0 0 20 20" fill="none" xmlns="http://www.w3.org/2000/svg">
<g clip-path="url(#clip0_1769_67019)">
<path d="M10.0004 15.1613C10.4473 15.1613 10.8095 14.7991 10.8095 14.3523C10.8095 13.9054 10.4473 13.5432 10.0004 13.5432C9.55363 13.5432 9.19141 13.9054 9.19141 14.3523C9.19141 14.7991 9.55363 15.1613 10.0004 15.1613Z" fill="white"/>
<path d="M12.1877 11.1572C14.0582 11.1572 15.5746 9.6565 15.5746 7.80506C15.5746 5.95397 14.0582 4.45312 12.1877 4.45312C10.317 4.45312 8.80078 5.95397 8.80078 7.80506C8.80072 9.65656 10.317 11.1572 12.1877 11.1572Z" fill="white"/>
<path d="M18.6839 19.3783L16.4257 13.4094C16.3683 13.258 15.8825 12.2581 14.9805 12.2581C14.6952 12.2581 9.747 12.2655 9.58506 12.2655C9.58506 12.2655 9.55871 12.2655 9.39809 12.2655C8.38851 12.2655 8.01049 13.258 7.95329 13.4094L5.69488 19.3783C5.63751 19.5299 5.67079 19.7179 5.98855 19.7179C5.98855 19.7179 7.20757 19.7179 7.65511 19.7179C7.95872 19.7179 8.0533 19.4521 8.0533 19.4521L9.13001 16.5632C9.13001 16.5632 9.26538 16.1934 9.26538 16.5946C9.26538 17.146 9.2726 18.6194 9.27613 19.3274C9.27746 19.5662 9.31438 19.7179 9.59632 19.7179C11.0568 19.7179 13.7201 19.7179 15.0946 19.7179C15.4852 19.7179 15.4375 19.5146 15.4366 19.2082C15.4345 18.4609 15.4308 17.0996 15.4308 16.5728C15.4308 16.3019 15.5269 16.4867 15.5269 16.4867L16.5382 19.407C16.5382 19.407 16.6346 19.7179 16.9924 19.7179C17.3729 19.7179 18.3733 19.7179 18.3733 19.7179C18.7018 19.7179 18.7412 19.5299 18.6839 19.3783Z" fill="white"/>
<path d="M4.68642 17.0037C4.01107 17.0037 1.98487 17.0037 1.98487 17.0037C1.75041 17.0037 1.55859 17.1955 1.55859 17.43V19.2915C1.55859 19.526 1.75041 19.7178 1.98487 19.7178C1.98487 19.7178 3.32492 19.7178 3.77165 19.7178C4.1279 19.7178 4.26113 19.275 4.26113 19.275L4.97172 17.326C4.97172 17.3259 5.06196 17.0037 4.68642 17.0037Z" fill="white"/>
<path d="M6.194 12.8615C5.15357 12.8615 2.03239 12.8615 2.03239 12.8615C1.58018 12.8615 1.21024 12.4916 1.21024 12.0393V2.46326C1.21024 2.01099 1.58018 1.64105 2.03239 1.64105H17.9676C18.4198 1.64105 18.7898 2.01093 18.7898 2.46326V12.0393C18.7898 12.407 18.5426 12.7127 18.2105 12.8246C17.872 12.9387 17.9647 13.164 17.9647 13.164L18.9779 15.8424C18.9779 15.8424 19.0612 16.0922 19.3429 16.0537C19.7211 16.002 20 15.644 20 15.2483V1.10414C20 0.65198 19.63 0.281982 19.1778 0.281982H0.822154C0.36994 0.281982 0 0.65198 0 1.10414V6.99458V9.82561V15.2483C0 15.7005 0.36994 16.0705 0.822154 16.0705C0.822154 16.0705 3.88388 16.0705 4.92535 16.0705C5.31049 16.0705 5.42956 15.7703 5.42956 15.7703L6.4262 13.1361C6.4262 13.1361 6.53343 12.8615 6.194 12.8615Z" fill="white"/>
</g>
<defs>
<clipPath id="clip0_1769_67019">
<rect width="20" height="20" fill="white"/>
</clipPath>
</defs>
</svg>
