<svg width="24" height="24" viewBox="0 0 24 24" fill="none" xmlns="http://www.w3.org/2000/svg">
<path d="M12 5.1219L11.8635 4.99301C10.7014 3.85591 9.14236 3.21573 7.5165 3.20801C5.92264 3.20801 4.39391 3.84045 3.2659 4.96649C2.13789 6.09253 1.50278 7.62016 1.5 9.21401C1.5 12.448 2.6865 13.9915 7.989 18.181L10.7737 20.3425C11.4953 20.9026 12.5047 20.9026 13.2263 20.3425L16.011 18.181C21.3135 13.9915 22.5 12.448 22.5 9.21401C22.4972 7.62016 21.8621 6.09253 20.7341 4.96649C19.6061 3.84045 18.0773 3.20801 16.4835 3.20801C14.8576 3.21573 13.2986 3.85591 12.1365 4.99301L12 5.1219Z" fill="#F72121"/>
</svg>
