<svg width="28" height="28" viewBox="0 0 28 28" fill="none" xmlns="http://www.w3.org/2000/svg">
<rect width="28" height="28" rx="4" fill="#EFF6FF"/>
<path fill-rule="evenodd" clip-rule="evenodd" d="M5.67644 7.2231C5.70845 6.31282 6.47117 5.66667 7.31379 5.66667H9.76907C10.5297 5.66667 11.1939 6.18168 11.3833 6.91839L12.0451 9.49302C12.2156 10.1561 11.9631 10.8561 11.4086 11.2577L8.55095 13.3278C9.65494 15.7388 11.6289 18.0387 14.9677 19.4039L17.1346 16.7161C17.5521 16.1982 18.2375 15.9782 18.8783 16.1563L21.1142 16.7775C21.8355 16.9779 22.3346 17.6347 22.3346 18.3834V20.6425C22.3346 21.5738 21.5597 22.3531 20.5928 22.293C18.4439 22.1595 16.5737 21.7705 14.9516 21.1833C10.4862 19.567 7.99711 16.4859 6.74904 13.3515C5.8847 11.1808 5.61445 8.98625 5.67644 7.2231ZM16.6474 19.9759C17.8334 20.3057 19.1679 20.5328 20.668 20.6278V18.3834L18.4321 17.7621L16.6474 19.9759ZM7.93874 11.7133L10.4309 9.90797L9.76907 7.33333H7.34038C7.30111 8.60858 7.459 10.1456 7.93874 11.7133Z" fill="#0D99FF"/>
</svg>
