<svg width="28" height="28" viewBox="0 0 28 28" fill="none" xmlns="http://www.w3.org/2000/svg">
<rect width="28" height="28" rx="4" fill="#EFF6FF"/>
<path fill-rule="evenodd" clip-rule="evenodd" d="M10.4869 8.91955C11.4308 7.89467 12.6958 7.33333 13.9987 7.33333C15.3016 7.33333 16.5666 7.89467 17.5105 8.91955C18.4566 9.94674 18.9987 11.3535 18.9987 12.8333C18.9987 13.3671 18.8148 14.0468 18.4594 14.8359C18.1089 15.6139 17.6188 16.4394 17.0705 17.2479C15.9913 18.8392 14.7312 20.3002 13.9987 21.1096C13.2662 20.3002 12.0061 18.8392 10.9269 17.2479C10.3786 16.4394 9.88848 15.6139 9.53801 14.8359C9.18257 14.0468 8.9987 13.3671 8.9987 12.8333C8.9987 11.3535 9.54077 9.94674 10.4869 8.91955ZM13.9987 5.66667C12.2074 5.66667 10.5049 6.43985 9.26095 7.79043C8.01912 9.1387 7.33203 10.9537 7.33203 12.8333C7.33203 13.7063 7.61998 14.6359 8.01841 15.5204C8.42181 16.4159 8.96763 17.3283 9.54752 18.1834C10.7074 19.8937 12.0497 21.442 12.7994 22.2681C13.4457 22.9802 14.5517 22.9802 15.198 22.2681C15.9477 21.442 17.29 19.8937 18.4499 18.1834C19.0298 17.3283 19.5756 16.4159 19.979 15.5204C20.3774 14.6359 20.6654 13.7063 20.6654 12.8333C20.6654 10.9537 19.9783 9.1387 18.7364 7.79043C17.4925 6.43985 15.79 5.66667 13.9987 5.66667ZM13.1654 13.1667C13.1654 12.7064 13.5385 12.3333 13.9987 12.3333C14.4589 12.3333 14.832 12.7064 14.832 13.1667C14.832 13.6269 14.4589 14 13.9987 14C13.5385 14 13.1654 13.6269 13.1654 13.1667ZM13.9987 10.6667C12.618 10.6667 11.4987 11.786 11.4987 13.1667C11.4987 14.5474 12.618 15.6667 13.9987 15.6667C15.3794 15.6667 16.4987 14.5474 16.4987 13.1667C16.4987 11.786 15.3794 10.6667 13.9987 10.6667Z" fill="#0D99FF"/>
</svg>
