<svg width="40" height="40" viewBox="0 0 40 40" fill="none" xmlns="http://www.w3.org/2000/svg">
  <rect x="0.5" y="0.5" width="39" height="39" fill="white"/>
  <path fill-rule="evenodd" clip-rule="evenodd" d="M19.001 10H18.001H11.9985C10.894 10 9.99854 10.8954 9.99854 12V18V19H10.9985H18.001H19.001V18V11V10ZM17.001 12V17H11.9985L11.9985 12H17.001ZM19.001 21H18.001H10.9985H9.99854V22V28C9.99854 29.1046 10.894 30 11.9985 30H18.001H19.001V29V22V21ZM17.001 23V28H11.9985V23H17.001ZM20.9998 10H21.9998H28.003C29.1075 10 30.003 10.8954 30.003 12V18V19H29.003H21.9998H20.9998V18V11V10ZM22.9998 12V17H28.003V12H22.9998ZM20.9998 21H21.9998H29.003H30.003V22V28C30.003 29.1046 29.1075 30 28.003 30H21.9998H20.9998V29V22V21ZM22.9998 23V28H28.003V23H22.9998Z" fill="black"/>
  <path d="M17.001 28V23H11.9985V28H17.001Z" fill="black"/>
  <path d="M17.001 17V12H11.9985L11.9985 17H17.001Z" fill="black"/>
  <path d="M22.9998 17V12H28.003V17H22.9998Z" fill="black"/>
  <path d="M22.9998 28V23H28.003V28H22.9998Z" fill="black"/>
  <rect x="0.5" y="0.5" width="39" height="39" stroke="black"/>
</svg>
