<svg width="30" height="30" viewBox="0 0 30 30" fill="none" xmlns="http://www.w3.org/2000/svg">
<path fill-rule="evenodd" clip-rule="evenodd" d="M16.0054 5C10.3144 5 5.76181 9.47553 5.76181 14.9223C5.76181 16.5025 6.14227 17.994 6.81951 19.3187C7.12056 19.9076 6.97292 20.5035 6.88039 20.7935C6.76961 21.1407 6.58948 21.49 6.40769 21.8021C6.06442 22.3914 5.58422 23.0646 5.14856 23.6754C5.12021 23.7151 5.09204 23.7546 5.06412 23.7938C4.87375 24.0609 4.69419 24.3142 4.53108 24.5513C4.88562 24.407 5.27319 24.2377 5.68579 24.0551C5.75999 24.0222 5.83502 23.9889 5.91068 23.9553C6.61991 23.6406 7.38539 23.3009 8.05181 23.067C8.42149 22.9372 8.8128 22.8208 9.18412 22.7635C9.5131 22.7128 10.0419 22.6711 10.5428 22.913C10.6055 22.9433 10.6696 22.9744 10.7349 23.006C11.4857 23.3694 12.4027 23.8132 13.3453 24.1807C14.3975 24.591 15.3327 24.8445 16.0054 24.8445C21.6965 24.8445 26.2491 20.369 26.2491 14.9223C26.2491 9.47553 21.6965 5 16.0054 5ZM3.06466 24.9995C3.06488 24.9993 3.06971 24.9993 3.07844 25.0001C3.06879 25.0001 3.06443 24.9997 3.06466 24.9995ZM3.26181 14.9223C3.26181 8.02846 9.00097 2.5 16.0054 2.5C23.0099 2.5 28.7491 8.02846 28.7491 14.9223C28.7491 21.8161 23.0099 27.3445 16.0054 27.3445C14.8432 27.3445 13.5446 26.9418 12.4371 26.5099C11.3973 26.1045 10.3943 25.6188 9.65259 25.2596C9.63231 25.2498 9.61222 25.2401 9.59234 25.2304C9.58402 25.2315 9.57496 25.2328 9.56514 25.2343C9.41436 25.2576 9.18878 25.3174 8.87984 25.4259C8.31409 25.6244 7.64369 25.9217 6.90972 26.2471C6.83969 26.2782 6.76908 26.3095 6.69793 26.341C5.91969 26.6856 5.06299 27.0597 4.33232 27.2805C3.97005 27.39 3.56241 27.4862 3.16743 27.4986C2.80235 27.5101 2.18442 27.4575 1.70589 26.9719C1.15639 26.4144 1.2256 25.7105 1.29991 25.3698C1.38156 24.9955 1.55452 24.63 1.72003 24.3265C2.05797 23.7069 2.56927 22.9868 3.02833 22.3427L3.08227 22.2671C3.54658 21.6158 3.96446 21.0296 4.24747 20.5438C4.34175 20.3819 4.40618 20.2558 4.44797 20.1623C3.68692 18.5696 3.26181 16.7932 3.26181 14.9223ZM4.5101 19.9888C4.51081 19.9884 4.50954 19.9968 4.5042 20.0155C4.50672 19.9986 4.5094 19.9892 4.5101 19.9888ZM9.66838 25.2247C9.66824 25.2249 9.66437 25.225 9.6572 25.2245C9.66494 25.2243 9.66852 25.2245 9.66838 25.2247Z" fill="#00AEE5"/>
</svg>
