<svg width="30" height="30" viewBox="0 0 30 30" fill="none" xmlns="http://www.w3.org/2000/svg">
<path d="M15 6.40191L14.8294 6.2408C13.3767 4.81943 11.4279 4.0192 9.39563 4.00955C7.4033 4.00955 5.49239 4.8001 4.08237 6.20765C2.67236 7.6152 1.87847 9.52474 1.875 11.5171C1.875 15.5595 3.35813 17.4889 9.98625 22.7258L13.4671 25.4276C14.3691 26.1278 15.6309 26.1278 16.5329 25.4276L20.0138 22.7258C26.6419 17.4889 28.125 15.5595 28.125 11.5171C28.1215 9.52474 27.3276 7.6152 25.9176 6.20765C24.5076 4.8001 22.5966 4.00955 20.6044 4.00955C18.572 4.0192 16.6233 4.81943 15.1706 6.2408L15 6.40191Z" fill="white" stroke="#F62121" stroke-width="2.25"/>
</svg>
