<svg width="24" height="24" viewBox="0 0 24 24" fill="none" xmlns="http://www.w3.org/2000/svg">
<path fill-rule="evenodd" clip-rule="evenodd" d="M11.0025 2H10.0025H4C2.89543 2 2 2.89543 2 4V10V11H3H10.0025H11.0025V10V3V2ZM9.00247 4V9H4L4 4H9.00247ZM11.0025 13H10.0025H3H2V14V20C2 21.1046 2.89543 22 4 22H10.0025H11.0025V21V14V13ZM9.00247 15V20H4V15H9.00247ZM13.0012 2H14.0012H20.0044C21.109 2 22.0044 2.89543 22.0044 4V10V11H21.0044H14.0012H13.0012V10V3V2ZM15.0012 4V9H20.0044V4H15.0012ZM13.0012 13H14.0012H21.0044H22.0044V14V20C22.0044 21.1046 21.109 22 20.0044 22H14.0012H13.0012V21V14V13ZM15.0012 15V20H20.0044V15H15.0012Z" fill="#0D99FF"/>
<path d="M9.00247 20V15H4V20H9.00247Z" fill="#0D99FF"/>
<path d="M9.00247 9V4H4L4 9H9.00247Z" fill="#0D99FF"/>
<path d="M15.0012 9V4H20.0044V9H15.0012Z" fill="#0D99FF"/>
<path d="M15.0012 20V15H20.0044V20H15.0012Z" fill="#0D99FF"/>
</svg>
