<svg width="32" height="32" viewBox="0 0 32 32" fill="none" xmlns="http://www.w3.org/2000/svg">
<rect width="32" height="32" rx="5" fill="#DCDADA"/>
<path d="M12.2894 24.1278C19.835 24.1278 23.9662 17.875 23.9662 12.451C23.9662 12.275 23.9662 12.0958 23.9534 11.9198C24.7566 11.3374 25.451 10.6206 26.0014 9.79497C25.2526 10.1278 24.459 10.3454 23.6462 10.4414C24.5038 9.92937 25.1438 9.12297 25.451 8.17257C24.6446 8.64937 23.7646 8.98857 22.8462 9.16777C21.291 7.51657 18.6926 7.43657 17.0414 8.98857C15.9758 9.99017 15.5246 11.4846 15.8542 12.9086C12.555 12.7422 9.47981 11.1838 7.39661 8.62057C6.30861 10.4958 6.86221 12.8926 8.66701 14.099C8.01421 14.0798 7.37421 13.9038 6.80461 13.587C6.80461 13.603 6.80461 13.6222 6.80461 13.6382C6.80461 15.5902 8.18061 17.2734 10.0974 17.6606C9.49261 17.8238 8.85901 17.8494 8.24461 17.731C8.78221 19.4014 10.3214 20.547 12.0782 20.5822C10.6254 21.7246 8.83021 22.3454 6.98381 22.3422C6.65741 22.3422 6.33101 22.323 6.00781 22.2814C7.87661 23.4878 10.0622 24.1278 12.2894 24.1246" fill="white"/>
</svg>
