<svg width="14" height="18" viewBox="0 0 14 18" fill="none" xmlns="http://www.w3.org/2000/svg">
<path fill-rule="evenodd" clip-rule="evenodd" d="M3.48784 3.91988C4.43181 2.89499 5.69674 2.33366 6.99967 2.33366C8.30261 2.33366 9.56754 2.89499 10.5115 3.91988C11.4576 4.94707 11.9997 6.35386 11.9997 7.83366C11.9997 8.36743 11.8158 9.04714 11.4604 9.83621C11.1099 10.6142 10.6198 11.4397 10.0715 12.2482C8.99228 13.8396 7.7322 15.3005 6.99967 16.1099C6.26715 15.3005 5.00707 13.8396 3.92788 12.2482C3.37957 11.4397 2.88945 10.6142 2.53899 9.83621C2.18354 9.04714 1.99967 8.36743 1.99967 7.83366C1.99967 6.35386 2.54175 4.94707 3.48784 3.91988ZM6.99967 0.666992C5.20842 0.666992 3.50588 1.44018 2.26193 2.79075C1.0201 4.13903 0.333008 5.95405 0.333008 7.83366C0.333008 8.70662 0.620957 9.63625 1.01938 10.5207C1.42279 11.4163 1.9686 12.3286 2.54849 13.1837C3.7084 14.894 5.05068 16.4424 5.80037 17.2684C6.44664 17.9806 7.55271 17.9805 8.19898 17.2684C8.94867 16.4424 10.291 14.894 11.4509 13.1837C12.0307 12.3286 12.5766 11.4163 12.98 10.5207C13.3784 9.63625 13.6663 8.70662 13.6663 7.83366C13.6663 5.95405 12.9792 4.13903 11.7374 2.79075C10.4935 1.44018 8.79093 0.666992 6.99967 0.666992ZM6.16634 8.16699C6.16634 7.70676 6.53944 7.33366 6.99967 7.33366C7.45991 7.33366 7.83301 7.70676 7.83301 8.16699C7.83301 8.62723 7.45991 9.00033 6.99967 9.00033C6.53944 9.00033 6.16634 8.62723 6.16634 8.16699ZM6.99967 5.66699C5.61896 5.66699 4.49967 6.78628 4.49967 8.16699C4.49967 9.5477 5.61896 10.667 6.99967 10.667C8.38039 10.667 9.49967 9.5477 9.49967 8.16699C9.49967 6.78628 8.38039 5.66699 6.99967 5.66699Z" fill="#00AEE5"/>
</svg>
